<svg width="20" height="20" viewBox="0 0 20 20" fill="none" xmlns="http://www.w3.org/2000/svg">
<path d="M2.375 11.25C2.375 10.8358 2.71079 10.5 3.125 10.5C3.53921 10.5 3.875 10.8358 3.875 11.25V15.5H16.125V11.25C16.125 10.8358 16.4608 10.5 16.875 10.5C17.2892 10.5 17.625 10.8358 17.625 11.25V16.25C17.625 16.6642 17.2892 17 16.875 17H3.125C2.71079 17 2.375 16.6642 2.375 16.25V11.25ZM9.25 2.5C9.25 2.08579 9.58579 1.75 10 1.75C10.4142 1.75 10.75 2.08579 10.75 2.5V9.43945L12.5947 7.59473C12.8876 7.30183 13.3624 7.30183 13.6553 7.59473C13.9482 7.88762 13.9482 8.36238 13.6553 8.65527L10.5303 11.7803C10.2374 12.0732 9.76262 12.0732 9.46973 11.7803L6.34473 8.65527C6.05183 8.36238 6.05183 7.88762 6.34473 7.59473C6.63762 7.30183 7.11238 7.30183 7.40527 7.59473L9.25 9.43945V2.5Z" fill="black"/>
</svg>
