<svg width="20" height="20" viewBox="0 0 20 20" fill="none" xmlns="http://www.w3.org/2000/svg">
<path d="M8.75 2.375C9.16421 2.375 9.5 2.71079 9.5 3.125C9.5 3.53921 9.16421 3.875 8.75 3.875H4.5V16.125H8.75C9.16421 16.125 9.5 16.4608 9.5 16.875C9.5 17.2892 9.16421 17.625 8.75 17.625H3.75C3.33579 17.625 3 17.2892 3 16.875V3.125C3 2.71079 3.33579 2.375 3.75 2.375H8.75ZM13.8447 6.34473C14.1376 6.05183 14.6124 6.05183 14.9053 6.34473L18.0303 9.46973C18.3232 9.76262 18.3232 10.2374 18.0303 10.5303L14.9053 13.6553C14.6124 13.9482 14.1376 13.9482 13.8447 13.6553C13.5518 13.3624 13.5518 12.8876 13.8447 12.5947L15.6895 10.75H8.75C8.33579 10.75 8 10.4142 8 10C8 9.58579 8.33579 9.25 8.75 9.25H15.6895L13.8447 7.40527C13.5518 7.11238 13.5518 6.63762 13.8447 6.34473Z" fill="black"/>
</svg>
