<svg width="20" height="20" viewBox="0 0 20 20" fill="none" xmlns="http://www.w3.org/2000/svg">
<path d="M16.75 10C16.75 6.27208 13.7279 3.25 10 3.25C6.27208 3.25 3.25 6.27208 3.25 10C3.25 13.7279 6.27208 16.75 10 16.75C13.7279 16.75 16.75 13.7279 16.75 10ZM13.125 9.25C13.5392 9.25 13.875 9.58579 13.875 10C13.875 10.4142 13.5392 10.75 13.125 10.75H6.875C6.46079 10.75 6.125 10.4142 6.125 10C6.125 9.58579 6.46079 9.25 6.875 9.25H13.125ZM18.25 10C18.25 14.5563 14.5563 18.25 10 18.25C5.44365 18.25 1.75 14.5563 1.75 10C1.75 5.44365 5.44365 1.75 10 1.75C14.5563 1.75 18.25 5.44365 18.25 10Z" fill="black"/>
</svg>
