<svg width="20" height="20" viewBox="0 0 20 20" fill="none" xmlns="http://www.w3.org/2000/svg">
<path d="M16.75 9.6875C16.75 8.84212 16.5833 8.00467 16.2598 7.22363C15.9363 6.44274 15.4619 5.73343 14.8643 5.13574C14.2666 4.53806 13.5573 4.06375 12.7764 3.74023C11.9953 3.41672 11.1579 3.25 10.3125 3.25C8.60517 3.25 6.96801 3.92848 5.76074 5.13574C4.55348 6.34301 3.875 7.98017 3.875 9.6875V16.125H10.3125C11.1579 16.125 11.9953 15.9583 12.7764 15.6348C13.5573 15.3113 14.2666 14.8369 14.8643 14.2393C15.4619 13.6416 15.9363 12.9323 16.2598 12.1514C16.5833 11.3703 16.75 10.5329 16.75 9.6875ZM12.8125 10.5C13.2267 10.5 13.5625 10.8358 13.5625 11.25C13.5625 11.6642 13.2267 12 12.8125 12H7.5C7.08579 12 6.75 11.6642 6.75 11.25C6.75 10.8358 7.08579 10.5 7.5 10.5H12.8125ZM12.8125 8C13.2267 8 13.5625 8.33579 13.5625 8.75C13.5625 9.16421 13.2267 9.5 12.8125 9.5H7.5C7.08579 9.5 6.75 9.16421 6.75 8.75C6.75 8.33579 7.08579 8 7.5 8H12.8125ZM18.25 9.6875C18.25 10.7298 18.0443 11.7617 17.6455 12.7246C17.2466 13.6876 16.6619 14.5627 15.9248 15.2998C15.1877 16.0369 14.3126 16.6216 13.3496 17.0205C12.3867 17.4193 11.3548 17.625 10.3125 17.625H3.75C3.38533 17.625 3.03521 17.4805 2.77734 17.2227C2.51948 16.9648 2.375 16.6147 2.375 16.25V9.6875C2.375 7.58234 3.21163 5.56377 4.7002 4.0752C6.18877 2.58663 8.20734 1.75 10.3125 1.75C11.3548 1.75 12.3867 1.95567 13.3496 2.35449C14.3126 2.75339 15.1877 3.33813 15.9248 4.0752C16.6619 4.81226 17.2466 5.68737 17.6455 6.65039C18.0443 7.61333 18.25 8.64523 18.25 9.6875Z" fill="black"/>
</svg>
