<svg xmlns="http://www.w3.org/2000/svg" width="20" height="20" fill="none" viewBox="0 0 20 20">
  <path fill="#000" d="M4.5 16.75h11V7.625h-3.625a.75.75 0 0 1-.75-.75V3.25H4.5v13.5Zm6.845-7.28a.75.75 0 1 1 1.06 1.06l-1.345 1.345 1.345 1.345a.75.75 0 1 1-1.06 1.06L10 12.935 8.655 14.28a.75.75 0 1 1-1.06-1.06l1.344-1.345-1.344-1.345a.75.75 0 1 1 1.06-1.06L10 10.815l1.345-1.345Zm1.28-3.345h1.815l-1.815-1.814v1.814ZM17 16.875a1.376 1.376 0 0 1-1.375 1.375H4.375A1.376 1.376 0 0 1 3 16.875V3.125c0-.365.144-.715.402-.973l.102-.09c.245-.2.552-.312.871-.312h7.5c.199 0 .39.08.53.22l4.375 4.375c.14.14.22.331.22.53v10Z"/>
</svg>
