<svg width="20" height="20" viewBox="0 0 20 20" fill="none" xmlns="http://www.w3.org/2000/svg">
<path d="M16.75 10C16.75 6.27208 13.7279 3.25 10 3.25C6.27208 3.25 3.25 6.27208 3.25 10C3.25 13.7279 6.27208 16.75 10 16.75C13.7279 16.75 16.75 13.7279 16.75 10ZM11.9697 6.96973C12.2626 6.67683 12.7374 6.67683 13.0303 6.96973C13.3232 7.26262 13.3232 7.73738 13.0303 8.03027L11.0605 10L13.0303 11.9697C13.3232 12.2626 13.3232 12.7374 13.0303 13.0303C12.7374 13.3232 12.2626 13.3232 11.9697 13.0303L10 11.0605L8.03027 13.0303C7.73738 13.3232 7.26262 13.3232 6.96973 13.0303C6.67683 12.7374 6.67683 12.2626 6.96973 11.9697L8.93945 10L6.96973 8.03027C6.67683 7.73738 6.67683 7.26262 6.96973 6.96973C7.26262 6.67683 7.73738 6.67683 8.03027 6.96973L10 8.93945L11.9697 6.96973ZM18.25 10C18.25 14.5563 14.5563 18.25 10 18.25C5.44365 18.25 1.75 14.5563 1.75 10C1.75 5.44365 5.44365 1.75 10 1.75C14.5563 1.75 18.25 5.44365 18.25 10Z" fill="black"/>
</svg>
