<svg width="16" height="16" viewBox="0 0 16 16" fill="none" xmlns="http://www.w3.org/2000/svg">
<path d="M9.33331 10.8997C11.0055 10.8997 12.3917 12.0298 12.9036 13.5628C13.2756 13.5274 13.5667 13.2146 13.5667 12.8333V5.83331C13.5667 5.4283 13.2383 5.09991 12.8333 5.09991H5.83331C5.4283 5.09991 5.09991 5.4283 5.09991 5.83331V12.8333C5.09991 13.2143 5.39048 13.5269 5.76202 13.5628C6.27385 12.0297 7.66102 10.8997 9.33331 10.8997ZM9.33331 12.0999C8.36174 12.0999 7.49395 12.6831 7.05304 13.5667H11.6136C11.1727 12.6831 10.3049 12.0999 9.33331 12.0999ZM10.2337 8.33331C10.2337 7.83628 9.83034 7.43292 9.33331 7.43292C8.83628 7.43292 8.43292 7.83628 8.43292 8.33331C8.43292 8.83034 8.83628 9.2337 9.33331 9.2337C9.83034 9.2337 10.2337 8.83034 10.2337 8.33331ZM11.4329 8.33331C11.4329 9.49308 10.4931 10.4329 9.33331 10.4329C8.17354 10.4329 7.2337 9.49308 7.2337 8.33331C7.2337 7.17354 8.17354 6.2337 9.33331 6.2337C10.4931 6.2337 11.4329 7.17354 11.4329 8.33331ZM10.8997 3.16632C10.8995 2.76146 10.5712 2.43292 10.1663 2.43292H3.16632C2.76157 2.4331 2.4331 2.76157 2.43292 3.16632V10.1663C2.43292 10.5712 2.76146 10.8995 3.16632 10.8997H3.89972V5.83331C3.89972 4.76556 4.76556 3.89972 5.83331 3.89972H10.8997V3.16632ZM12.0999 3.89972H12.8333C13.9011 3.89972 14.7669 4.76557 14.7669 5.83331V12.8333C14.7669 13.9011 13.9011 14.7669 12.8333 14.7669H5.83331C4.76557 14.7669 3.89972 13.9011 3.89972 12.8333V12.0999H3.16632C2.09873 12.0997 1.2337 11.234 1.2337 10.1663V3.16632C1.23388 2.09883 2.09883 1.23388 3.16632 1.2337H10.1663C11.234 1.2337 12.0997 2.09873 12.0999 3.16632V3.89972Z" fill="black"/>
</svg>
