<svg width="16" height="16" viewBox="0 0 16 16" fill="none" xmlns="http://www.w3.org/2000/svg">
<path d="M9.2334 4.33301C9.23322 3.65201 8.68104 3.09961 8 3.09961C7.31896 3.09961 6.76678 3.65201 6.7666 4.33301C6.7666 5.01416 7.31885 5.56641 8 5.56641C8.68115 5.56641 9.2334 5.01416 9.2334 4.33301ZM10.4336 4.33301C10.4336 5.46966 9.65309 6.42108 8.59961 6.68848V10.75C8.59961 11.9374 9.56257 12.9004 10.75 12.9004C11.9374 12.9004 12.9004 11.9374 12.9004 10.75V10.002L11.9502 10.8467L11.1533 9.9502L14.0996 7.33008V10.75C14.0996 12.6002 12.6002 14.0996 10.75 14.0996C9.61085 14.0996 8.60524 13.5309 8 12.6621C7.39476 13.5309 6.38915 14.0996 5.25 14.0996C3.39985 14.0996 1.90039 12.6002 1.90039 10.75V7.33008L4.84668 9.9502L4.0498 10.8467L3.09961 10.002V10.75C3.09961 11.9374 4.06259 12.9004 5.25 12.9004C6.43743 12.9004 7.40039 11.9374 7.40039 10.75V6.68848C6.34691 6.42108 5.56641 5.46966 5.56641 4.33301C5.56658 2.98926 6.65622 1.90039 8 1.90039C9.34378 1.90039 10.4334 2.98926 10.4336 4.33301Z" fill="black"/>
</svg>
