<svg width="16" height="16" viewBox="0 0 16 16" fill="none" xmlns="http://www.w3.org/2000/svg">
<path d="M9.93438 2.16641C9.93438 2.49778 9.66571 2.76641 9.33438 2.76641C9.00298 2.76641 8.73438 2.49778 8.73438 2.16641C8.73438 1.83503 9.00298 1.56641 9.33438 1.56641C9.66571 1.56641 9.93438 1.83503 9.93438 2.16641Z" fill="black"/>
<path d="M9.33438 4.93308C9.66575 4.93308 9.93438 4.66445 9.93438 4.33308C9.93438 4.00171 9.66575 3.73308 9.33438 3.73308C9.003 3.73308 8.73438 4.00171 8.73438 4.33308C8.73438 4.66445 9.003 4.93308 9.33438 4.93308Z" fill="black"/>
<path d="M11.3333 3.83333C11.6095 3.83333 11.8333 3.60947 11.8333 3.33333C11.8333 3.05719 11.6095 2.83333 11.3333 2.83333C11.0572 2.83333 10.8333 3.05719 10.8333 3.33333C10.8333 3.60947 11.0572 3.83333 11.3333 3.83333Z" fill="black"/>
<path d="M11.3333 5.83333C11.6095 5.83333 11.8333 5.60947 11.8333 5.33333C11.8333 5.05719 11.6095 4.83333 11.3333 4.83333C11.0572 4.83333 10.8333 5.05719 10.8333 5.33333C10.8333 5.60947 11.0572 5.83333 11.3333 5.83333Z" fill="black"/>
<path d="M9.33438 7.09973C9.66575 7.09973 9.93438 6.83111 9.93438 6.49973C9.93438 6.16836 9.66575 5.89973 9.33438 5.89973C9.003 5.89973 8.73438 6.16836 8.73438 6.49973C8.73438 6.83111 9.003 7.09973 9.33438 7.09973Z" fill="black"/>
<path d="M9.33438 9.26641C9.66575 9.26641 9.93438 8.99778 9.93438 8.66641C9.93438 8.33504 9.66575 8.06641 9.33438 8.06641C9.003 8.06641 8.73438 8.33504 8.73438 8.66641C8.73438 8.99778 9.003 9.26641 9.33438 9.26641Z" fill="black"/>
<path d="M11.3333 9.16667C11.6095 9.16667 11.8333 8.94281 11.8333 8.66667C11.8333 8.39053 11.6095 8.16667 11.3333 8.16667C11.0572 8.16667 10.8333 8.39053 10.8333 8.66667C10.8333 8.94281 11.0572 9.16667 11.3333 9.16667Z" fill="black"/>
<path d="M13.3333 11.5C13.6095 11.5 13.8333 11.2761 13.8333 11C13.8333 10.7239 13.6095 10.5 13.3333 10.5C13.0572 10.5 12.8333 10.7239 12.8333 11C12.8333 11.2761 13.0572 11.5 13.3333 11.5Z" fill="black"/>
<path d="M13.3333 13.8333C13.6095 13.8333 13.8333 13.6095 13.8333 13.3333C13.8333 13.0572 13.6095 12.8333 13.3333 12.8333C13.0572 12.8333 12.8333 13.0572 12.8333 13.3333C12.8333 13.6095 13.0572 13.8333 13.3333 13.8333Z" fill="black"/>
<path d="M9.33438 11.5997C9.66575 11.5997 9.93438 11.3311 9.93438 10.9997C9.93438 10.6684 9.66575 10.3997 9.33438 10.3997C9.003 10.3997 8.73438 10.6684 8.73438 10.9997C8.73438 11.3311 9.003 11.5997 9.33438 11.5997Z" fill="black"/>
<path d="M11.3344 11.5997C11.6657 11.5997 11.9344 11.3311 11.9344 10.9997C11.9344 10.6684 11.6657 10.3997 11.3344 10.3997C11.003 10.3997 10.7344 10.6684 10.7344 10.9997C10.7344 11.3311 11.003 11.5997 11.3344 11.5997Z" fill="black"/>
<path d="M9.33438 13.9331C9.66575 13.9331 9.93438 13.6644 9.93438 13.3331C9.93438 13.0017 9.66575 12.7331 9.33438 12.7331C9.003 12.7331 8.73438 13.0017 8.73438 13.3331C8.73438 13.6644 9.003 13.9331 9.33438 13.9331Z" fill="black"/>
<path d="M11.3344 13.9331C11.6657 13.9331 11.9344 13.6644 11.9344 13.3331C11.9344 13.0017 11.6657 12.7331 11.3344 12.7331C11.003 12.7331 10.7344 13.0017 10.7344 13.3331C10.7344 13.6644 11.003 13.9331 11.3344 13.9331Z" fill="black"/>
<path d="M7.5 1.88347C6.35889 2.1151 5.5 3.12398 5.5 4.33345C5.5 5.54294 6.35889 6.55182 7.5 6.78347" stroke="black" stroke-width="1.2" stroke-linecap="round" stroke-linejoin="round"/>
<path d="M7.49712 13.5001H4.46455C3.67888 13.5001 3.04912 12.8122 3.32167 12.0753C3.97097 10.3198 5.48588 9.03954 7.49712 8.85614" stroke="black" stroke-width="1.2" stroke-linecap="round" stroke-linejoin="round"/>
</svg>
