<svg width="16" height="16" viewBox="0 0 16 16" fill="none" xmlns="http://www.w3.org/2000/svg">
<path d="M1.88638 8C1.88638 4.63106 4.61706 1.90039 7.98599 1.90039C9.79486 1.90039 11.0876 2.58323 12.2331 3.69824V2.66699C12.2331 2.33562 12.5023 2.06641 12.8336 2.06641C13.1649 2.06658 13.4333 2.33573 13.4333 2.66699V4.83301C13.4333 5.44042 12.941 5.93342 12.3336 5.93359H10.1667C9.83529 5.93359 9.56705 5.66438 9.56705 5.33301C9.56722 5.00179 9.8354 4.7334 10.1667 4.7334H11.571C10.5361 3.66485 9.48807 3.09961 7.98599 3.09961C5.2798 3.09961 3.0856 5.2938 3.0856 8C3.0856 10.7062 5.27981 12.9004 7.98599 12.9004C10.1184 12.9004 11.934 11.5375 12.6071 9.63379C12.7175 9.32146 13.0604 9.15735 13.3727 9.26758C13.6851 9.37799 13.8493 9.72081 13.7389 10.0332C12.9018 12.4016 10.6429 14.0996 7.98599 14.0996C4.61706 14.0996 1.88638 11.3689 1.88638 8Z" fill="black"/>
</svg>
