<svg width="16" height="16" viewBox="0 0 16 16" fill="none" xmlns="http://www.w3.org/2000/svg">
<path d="M3.16668 4.5H4.28643C4.73224 4.5 5.14854 4.2772 5.39583 3.90627L5.93752 3.09373C6.18481 2.7228 6.60112 2.5 7.04694 2.5H8.95308C9.39888 2.5 9.81521 2.7228 10.0625 3.09373L10.6042 3.90627C10.8515 4.2772 11.2678 4.5 11.7136 4.5H12.8333C13.5697 4.5 14.1667 5.09695 14.1667 5.83333V12.1667C14.1667 12.9031 13.5697 13.5 12.8333 13.5H3.16668C2.4303 13.5 1.83334 12.9031 1.83334 12.1667V5.83333C1.83334 5.09695 2.4303 4.5 3.16668 4.5Z" stroke="black" stroke-width="1.2" stroke-linecap="square" stroke-linejoin="round"/>
<path d="M10.1667 8.66667C10.1667 9.86327 9.19661 10.8333 8.00001 10.8333C6.80341 10.8333 5.83334 9.86327 5.83334 8.66667C5.83334 7.47007 6.80341 6.5 8.00001 6.5C9.19661 6.5 10.1667 7.47007 10.1667 8.66667Z" stroke="black" stroke-width="1.2" stroke-linecap="square" stroke-linejoin="round"/>
</svg>
