<svg width="16" height="16" viewBox="0 0 16 16" fill="none" xmlns="http://www.w3.org/2000/svg">
<path fill-rule="evenodd" clip-rule="evenodd" d="M8.00004 1.33333C4.31814 1.33333 1.33337 4.31809 1.33337 7.99999C1.33337 11.6819 4.31814 14.6667 8.00004 14.6667C11.6819 14.6667 14.6667 11.6819 14.6667 7.99999C14.6667 4.31809 11.6819 1.33333 8.00004 1.33333ZM6.66671 7.33333C6.66671 7.05719 6.89057 6.83333 7.16671 6.83333H8.00004C8.27617 6.83333 8.50004 7.05719 8.50004 7.33333V10.8333C8.50004 11.1095 8.27617 11.3333 8.00004 11.3333C7.72391 11.3333 7.50004 11.1095 7.50004 10.8333V7.83333H7.16671C6.89057 7.83333 6.66671 7.60946 6.66671 7.33333ZM8.00004 4.83333C7.72391 4.83333 7.50004 5.05719 7.50004 5.33333C7.50004 5.60947 7.72391 5.83333 8.00004 5.83333C8.27617 5.83333 8.50004 5.60947 8.50004 5.33333C8.50004 5.05719 8.27617 4.83333 8.00004 4.83333Z" fill="black"/>
</svg>
