<svg width="16" height="16" viewBox="0 0 16 16" fill="none" xmlns="http://www.w3.org/2000/svg">
<path d="M11.5 4.49999V3.16666C11.5 2.43028 10.903 1.83333 10.1666 1.83333H3.16665C2.43027 1.83333 1.83331 2.43028 1.83331 3.16666V10.1667C1.83331 10.9031 2.43027 11.5 3.16665 11.5H4.49998M12.4491 14.1667H6.21749M12.4491 14.1667H12.8333C13.5697 14.1667 14.1666 13.5697 14.1666 12.8333V5.83333C14.1666 5.09695 13.5697 4.49999 12.8333 4.49999H5.83331C5.09693 4.49999 4.49998 5.09695 4.49998 5.83333V12.8333C4.49998 13.5697 5.09693 14.1667 5.83331 14.1667H6.21749M12.4491 14.1667C12.1419 12.6428 10.8636 11.5 9.33331 11.5C7.80305 11.5 6.52473 12.6428 6.21749 14.1667M10.8333 8.33333C10.8333 9.16173 10.1617 9.83333 9.33331 9.83333C8.50491 9.83333 7.83331 9.16173 7.83331 8.33333C7.83331 7.50493 8.50491 6.83333 9.33331 6.83333C10.1617 6.83333 10.8333 7.50493 10.8333 8.33333Z" stroke="#1E252B" stroke-width="1.2" stroke-linecap="square" stroke-linejoin="round"/>
</svg>
