<svg width="16" height="16" viewBox="0 0 16 16" fill="none" xmlns="http://www.w3.org/2000/svg">
<g clip-path="url(#clip0_214_390)">
<path d="M9.16667 3.83333H11.5C12.2364 3.83333 12.8333 4.43028 12.8333 5.16666V10.8333C12.8333 11.5697 12.2364 12.1667 11.5 12.1667H10.5M8.83333 8.5C8.83333 10.8933 6.96787 12.8333 4.66667 12.8333C2.36548 12.8333 0.5 10.8933 0.5 8.5M13 6.57142L14.5375 5.81C14.9806 5.59056 15.5 5.91294 15.5 6.40742V9.59253C15.5 10.0871 14.9806 10.4094 14.5375 10.19L13 9.42853M2.5 5.33333C2.5 4.13671 3.47005 3.16666 4.66667 3.16666C5.86329 3.16666 6.83333 4.13671 6.83333 5.33333V8.66666C6.83333 9.86326 5.86329 10.8333 4.66667 10.8333C3.47005 10.8333 2.5 9.86326 2.5 8.66666V5.33333Z" stroke="black" stroke-width="1.2" stroke-miterlimit="16" stroke-linecap="round" stroke-linejoin="round"/>
</g>
<defs>
<clipPath id="clip0_214_390">
<rect width="16" height="16" fill="white"/>
</clipPath>
</defs>
</svg>
