<svg width="16" height="16" viewBox="0 0 16 16" fill="none" xmlns="http://www.w3.org/2000/svg">
<path d="M12.8319 3.16795C14.0685 4.40455 14.8333 6.11288 14.8333 7.99986C14.8333 9.88679 14.0685 11.5951 12.8319 12.8317M10.5927 5.40754C11.2563 6.07107 11.6667 6.98773 11.6667 8.00026C11.6667 9.01279 11.2563 9.92946 10.5927 10.593M2.49999 5.16665H3.56993C3.84954 5.16665 4.12208 5.07875 4.349 4.91537L7.63852 2.54689C7.85906 2.38813 8.16666 2.5457 8.16666 2.8174V13.1826C8.16666 13.4543 7.85906 13.6119 7.63852 13.4531L4.349 11.0846C4.12208 10.9212 3.84954 10.8333 3.56993 10.8333H2.49999C1.76361 10.8333 1.16666 10.2364 1.16666 9.49999V6.49999C1.16666 5.76361 1.76361 5.16665 2.49999 5.16665Z" stroke="black" stroke-width="1.2" stroke-linecap="round" stroke-linejoin="round"/>
</svg>
