<svg width="16" height="16" viewBox="0 0 16 16" fill="none" xmlns="http://www.w3.org/2000/svg">
<path d="M3.23373 10.1663V7.16632C3.23391 6.8351 3.50208 6.56671 3.83334 6.56671C4.16461 6.56671 4.43278 6.8351 4.43295 7.16632V10.1663C4.43295 12.0441 5.95558 13.5667 7.83334 13.5667H8.16635C10.0441 13.5667 11.5667 12.0441 11.5667 10.1663V4.66632C11.5666 3.43304 10.5667 2.43292 9.33334 2.43292C8.10002 2.43292 7.10012 3.43304 7.09995 4.66632V9.91632C7.09995 10.3672 7.46547 10.7335 7.91635 10.7337C8.36738 10.7337 8.73373 10.3673 8.73373 9.91632V5.16632C8.73391 4.8351 9.00208 4.56671 9.33334 4.56671C9.66461 4.56671 9.93278 4.8351 9.93295 5.16632V9.91632C9.93295 11.0301 9.03012 11.9329 7.91635 11.9329C6.80273 11.9327 5.89975 11.03 5.89975 9.91632V4.66632C5.89993 2.77029 7.43728 1.2337 9.33334 1.2337C11.2294 1.2337 12.7668 2.77029 12.7669 4.66632V10.1663C12.7669 12.7068 10.7069 14.7669 8.16635 14.7669H7.83334C5.29283 14.7669 3.23373 12.7068 3.23373 10.1663Z" fill="black"/>
</svg>
