<svg width="16" height="16" viewBox="0 0 16 16" fill="none" xmlns="http://www.w3.org/2000/svg">
<path d="M12.9004 3.83301C12.9002 3.42825 12.5718 3.09978 12.167 3.09961H3.83301C3.42826 3.09979 3.09979 3.42826 3.09961 3.83301V12.167C3.09978 12.5718 3.42825 12.9002 3.83301 12.9004H12.167C12.5718 12.9002 12.9002 12.5718 12.9004 12.167V3.83301ZM8.95801 4.57617C9.09997 4.27696 9.45749 4.14925 9.75684 4.29102C10.0562 4.43284 10.1837 4.79041 10.042 5.08984L7.04199 11.4238C6.90003 11.723 6.54251 11.8508 6.24316 11.709C5.94375 11.5672 5.81629 11.2096 5.95801 10.9102L8.95801 4.57617ZM14.0996 12.167C14.0994 13.2345 13.2345 14.0994 12.167 14.0996H3.83301C2.76552 14.0994 1.90057 13.2345 1.90039 12.167V3.83301C1.90057 2.76552 2.76552 1.90057 3.83301 1.90039H12.167C13.2345 1.90057 14.0994 2.76552 14.0996 3.83301V12.167Z" fill="black"/>
</svg>
