<svg width="16" height="16" viewBox="0 0 16 16" fill="none" xmlns="http://www.w3.org/2000/svg">
<path d="M5.16667 2.5C5.16667 2.22386 4.94281 2 4.66667 2C4.39053 2 4.16667 2.22386 4.16667 2.5H5.16667ZM4.16667 6.83333C4.16667 7.10947 4.39053 7.33333 4.66667 7.33333C4.94281 7.33333 5.16667 7.10947 5.16667 6.83333H4.16667ZM2.5 4.16667C2.22386 4.16667 2 4.39053 2 4.66667C2 4.94281 2.22386 5.16667 2.5 5.16667V4.16667ZM6.83333 5.16667C7.10947 5.16667 7.33333 4.94281 7.33333 4.66667C7.33333 4.39053 7.10947 4.16667 6.83333 4.16667V5.16667ZM13.2189 10.1548C13.4142 9.95953 13.4142 9.643 13.2189 9.44773C13.0237 9.25247 12.7071 9.25247 12.5119 9.44773L13.2189 10.1548ZM9.44773 12.5119C9.25247 12.7071 9.25247 13.0237 9.44773 13.2189C9.643 13.4142 9.95953 13.4142 10.1548 13.2189L9.44773 12.5119ZM10.1548 9.44773C9.95953 9.25247 9.643 9.25247 9.44773 9.44773C9.25247 9.643 9.25247 9.95953 9.44773 10.1548L10.1548 9.44773ZM12.5119 13.2189C12.7071 13.4142 13.0237 13.4142 13.2189 13.2189C13.4142 13.0237 13.4142 12.7071 13.2189 12.5119L12.5119 13.2189ZM11.3333 6.33333C10.4129 6.33333 9.66667 5.58714 9.66667 4.66667H8.66667C8.66667 6.13943 9.8606 7.33333 11.3333 7.33333V6.33333ZM13 4.66667C13 5.58714 12.2538 6.33333 11.3333 6.33333V7.33333C12.8061 7.33333 14 6.13943 14 4.66667H13ZM11.3333 3C12.2538 3 13 3.74619 13 4.66667H14C14 3.19391 12.8061 2 11.3333 2V3ZM11.3333 2C9.8606 2 8.66667 3.19391 8.66667 4.66667H9.66667C9.66667 3.74619 10.4129 3 11.3333 3V2ZM4.16667 2.5V4.66667H5.16667V2.5H4.16667ZM4.16667 4.66667V6.83333H5.16667V4.66667H4.16667ZM2.5 5.16667H4.66667V4.16667H2.5V5.16667ZM4.66667 5.16667H6.83333V4.16667H4.66667V5.16667ZM12.5119 9.44773L10.9798 10.9798L11.6869 11.6869L13.2189 10.1548L12.5119 9.44773ZM10.9798 10.9798L9.44773 12.5119L10.1548 13.2189L11.6869 11.6869L10.9798 10.9798ZM9.44773 10.1548L10.9798 11.6869L11.6869 10.9798L10.1548 9.44773L9.44773 10.1548ZM10.9798 11.6869L12.5119 13.2189L13.2189 12.5119L11.6869 10.9798L10.9798 11.6869ZM3.5 9.66667H5.83333V8.66667H3.5V9.66667ZM6.33333 10.1667V12.5H7.33333V10.1667H6.33333ZM5.83333 13H3.5V14H5.83333V13ZM3 12.5V10.1667H2V12.5H3ZM3.5 13C3.22386 13 3 12.7761 3 12.5H2C2 13.3284 2.67157 14 3.5 14V13ZM6.33333 12.5C6.33333 12.7761 6.10947 13 5.83333 13V14C6.66176 14 7.33333 13.3284 7.33333 12.5H6.33333ZM5.83333 9.66667C6.10947 9.66667 6.33333 9.89053 6.33333 10.1667H7.33333C7.33333 9.33827 6.66176 8.66667 5.83333 8.66667V9.66667ZM3.5 8.66667C2.67157 8.66667 2 9.33827 2 10.1667H3C3 9.89053 3.22386 9.66667 3.5 9.66667V8.66667Z" fill="#1E252B"/>
</svg>
