<svg width="16" height="16" viewBox="0 0 16 16" fill="none" xmlns="http://www.w3.org/2000/svg">
<path fill-rule="evenodd" clip-rule="evenodd" d="M8.00004 2.33331C4.87043 2.33331 2.33337 4.87037 2.33337 7.99998C2.33337 11.1296 4.87043 13.6666 8.00004 13.6666C9.09511 13.6666 10.1162 13.3565 10.9821 12.8195C11.2168 12.674 11.525 12.7462 11.6706 12.9809C11.8161 13.2156 11.7438 13.5238 11.5092 13.6693C10.4896 14.3016 9.28671 14.6666 8.00004 14.6666C4.31814 14.6666 1.33337 11.6818 1.33337 7.99998C1.33337 4.31808 4.31814 1.33331 8.00004 1.33331C11.6819 1.33331 14.6667 4.31808 14.6667 7.99998C14.6667 8.73051 14.4871 9.51471 14.0519 10.113C13.5978 10.7373 12.8837 11.1278 11.9358 11.0416C11.0747 10.9634 10.3483 10.4916 9.91224 9.82338C9.31264 10.7264 8.30831 11.2862 7.20704 11.1314C5.59742 10.9052 4.60761 9.26891 4.84199 7.60125C5.07637 5.93352 6.47885 4.63349 8.08844 4.85971C8.79864 4.95951 9.38811 5.33379 9.80511 5.86414L9.85364 5.52997C9.89331 5.25669 10.147 5.06733 10.4203 5.10703C10.6936 5.14671 10.8829 5.40043 10.8432 5.6737L10.4903 8.10351C10.3525 9.07091 11.053 9.95731 12.0263 10.0458C12.6081 10.0986 12.9868 9.87725 13.2432 9.52478C13.5184 9.14645 13.6667 8.58918 13.6667 7.99998C13.6667 4.87037 11.1296 2.33331 8.00004 2.33331ZM7.94931 5.84997C7.00664 5.71749 6.00781 6.49126 5.83225 7.74038C5.6567 8.98958 6.40357 10.0086 7.34617 10.1411C8.28884 10.2736 9.28771 9.49985 9.46324 8.25071C9.63877 7.00158 8.89191 5.98245 7.94931 5.84997Z" fill="black"/>
</svg>
