<svg width="16" height="16" viewBox="0 0 16 16" fill="none" xmlns="http://www.w3.org/2000/svg">
<path d="M14.1667 8C14.1667 11.4057 11.4057 14.1667 8.00001 14.1667C4.59426 14.1667 1.83334 11.4057 1.83334 8C1.83334 4.59425 4.59426 1.83334 8.00001 1.83334C11.4057 1.83334 14.1667 4.59425 14.1667 8Z" stroke="#1E252B" stroke-width="1.2" stroke-linejoin="round"/>
<path d="M9.77054 5.82016L7.03421 6.56644C6.80648 6.62854 6.62855 6.80647 6.56644 7.0342L5.82016 9.77054C5.7523 10.0194 5.98062 10.2477 6.22946 10.1799L8.96581 9.4336C9.19354 9.37147 9.37148 9.19354 9.43361 8.9658L10.1799 6.22945C10.2477 5.98062 10.0194 5.75229 9.77054 5.82016Z" stroke="#1E252B" stroke-width="1.2" stroke-linejoin="round"/>
</svg>
