<svg width="16" height="16" viewBox="0 0 16 16" fill="none" xmlns="http://www.w3.org/2000/svg">
<path d="M7.16667 6.73334C6.8353 6.73334 6.56667 7.00196 6.56667 7.33334C6.56667 7.66471 6.8353 7.93334 7.16667 7.93334V7.33334V6.73334ZM8 7.33334H8.6C8.6 7.00196 8.33137 6.73334 8 6.73334V7.33334ZM7.4 10.8333C7.4 11.1647 7.66863 11.4333 8 11.4333C8.33137 11.4333 8.6 11.1647 8.6 10.8333H8H7.4ZM7.16667 7.33334V7.93334H8V7.33334V6.73334H7.16667V7.33334ZM8 7.33334H7.4V10.8333H8H8.6V7.33334H8ZM14.1667 8H13.5667C13.5667 11.0744 11.0744 13.5667 8 13.5667V14.1667V14.7667C11.7371 14.7667 14.7667 11.7371 14.7667 8H14.1667ZM8 14.1667V13.5667C4.92562 13.5667 2.43334 11.0744 2.43334 8H1.83334H1.23334C1.23334 11.7371 4.26288 14.7667 8 14.7667V14.1667ZM1.83334 8H2.43334C2.43334 4.92562 4.92562 2.43334 8 2.43334V1.83334V1.23334C4.26288 1.23334 1.23334 4.26288 1.23334 8H1.83334ZM8 1.83334V2.43334C11.0744 2.43334 13.5667 4.92562 13.5667 8H14.1667H14.7667C14.7667 4.26288 11.7371 1.23334 8 1.23334V1.83334ZM7.91667 4.91667V4.31667C7.35515 4.31667 6.9 4.77186 6.9 5.33334H7.5H8.1C8.1 5.43458 8.01792 5.51667 7.91667 5.51667V4.91667ZM7.5 5.33334H6.9C6.9 5.89482 7.35515 6.35001 7.91667 6.35001V5.75001V5.15001C8.01792 5.15001 8.1 5.2321 8.1 5.33334H7.5ZM7.91667 5.75001V6.35001C8.47819 6.35001 8.93334 5.89482 8.93334 5.33334H8.33334H7.73334C7.73334 5.2321 7.81542 5.15001 7.91667 5.15001V5.75001ZM8.33334 5.33334H8.93334C8.93334 4.77186 8.47819 4.31667 7.91667 4.31667V4.91667V5.51667C7.81542 5.51667 7.73334 5.43458 7.73334 5.33334H8.33334Z" fill="black"/>
</svg>
