<svg width="16" height="16" viewBox="0 0 16 16" fill="none" xmlns="http://www.w3.org/2000/svg">
<path d="M8.00001 2.56708C10.6293 2.5671 13.1778 4.13929 14.874 7.11591C15.1862 7.66419 15.1864 8.33627 14.874 8.88446C13.1778 11.861 10.6292 13.4333 8.00001 13.4333C5.37079 13.4333 2.82216 11.861 1.12598 8.88446C0.813474 8.33611 0.813474 7.66328 1.12598 7.11493C2.82216 4.13867 5.37091 2.56707 8.00001 2.56708ZM8.00001 3.7663C5.88909 3.76629 3.69769 5.02518 2.16798 7.70966C2.06545 7.88967 2.0654 8.11071 2.16798 8.29071C3.69768 10.9751 5.88913 12.2331 8.00001 12.2331C10.1109 12.2331 12.3023 10.9751 13.832 8.29071C13.9346 8.11071 13.9346 7.8898 13.832 7.70966C12.3023 5.02517 10.1109 3.76631 8.00001 3.7663ZM9.56641 7.99969C9.56624 7.13461 8.86513 6.43329 8.00001 6.43329C7.13489 6.43329 6.43378 7.13461 6.4336 7.99969C6.4336 8.86492 7.13478 9.56708 8.00001 9.56708C8.86524 9.56708 9.56641 8.86492 9.56641 7.99969ZM10.7666 7.99969C10.7666 9.52767 9.52798 10.7663 8.00001 10.7663C6.47204 10.7663 5.23341 9.52767 5.23341 7.99969C5.23358 6.47187 6.47214 5.23309 8.00001 5.23309C9.52787 5.23309 10.7664 6.47187 10.7666 7.99969Z" fill="black"/>
</svg>
