<svg width="16" height="16" viewBox="0 0 16 16" fill="none" xmlns="http://www.w3.org/2000/svg">
<path fill-rule="evenodd" clip-rule="evenodd" d="M6.66666 7.83333C6.66666 6.8208 7.48746 6 8.49999 6H12.8333C13.8459 6 14.6667 6.8208 14.6667 7.83333V12.1667C14.6667 13.1792 13.8459 14 12.8333 14H8.49999C7.48746 14 6.66666 13.1792 6.66666 12.1667V7.83333ZM9.70712 13H12.8333C13.2295 13 13.5612 12.7235 13.6458 12.3529L12.5893 11.2963C12.2638 10.9709 11.7362 10.9709 11.4107 11.2963L9.70712 13ZM13.6667 10.9595L13.2963 10.5893C12.5804 9.87327 11.4196 9.87327 10.7037 10.5893L8.31379 12.9791C7.94319 12.8945 7.66666 12.5629 7.66666 12.1667V7.83333C7.66666 7.37307 8.03972 7 8.49999 7H12.8333C13.2936 7 13.6667 7.37307 13.6667 7.83333V10.9595Z" fill="#1E252B"/>
<path d="M10.3333 8.83333C10.3333 9.2936 9.96026 9.66667 9.49999 9.66667C9.03972 9.66667 8.66666 9.2936 8.66666 8.83333C8.66666 8.37307 9.03972 8 9.49999 8C9.96026 8 10.3333 8.37307 10.3333 8.83333Z" fill="#1E252B"/>
<path fill-rule="evenodd" clip-rule="evenodd" d="M1.83332 3C1.74128 3 1.66666 3.07462 1.66666 3.16667C1.66666 3.44281 1.4428 3.66667 1.16666 3.66667C0.890516 3.66667 0.666656 3.44281 0.666656 3.16667C0.666656 2.52233 1.18899 2 1.83332 2H6.16666C6.81099 2 7.33332 2.52233 7.33332 3.16667C7.33332 3.44281 7.10946 3.66667 6.83332 3.66667C6.55718 3.66667 6.33332 3.44281 6.33332 3.16667C6.33332 3.07462 6.2587 3 6.16666 3H4.49999V8.33333H4.83332C5.10946 8.33333 5.33332 8.5572 5.33332 8.83333C5.33332 9.10947 5.10946 9.33334 4.83332 9.33334H3.16666C2.89052 9.33334 2.66666 9.10947 2.66666 8.83333C2.66666 8.5572 2.89052 8.33333 3.16666 8.33333H3.49999V3H1.83332Z" fill="#1E252B"/>
<path d="M13.8368 1.43846C13.7667 1.29829 13.5667 1.29829 13.4966 1.43846L13.0611 2.3094C13.0427 2.34621 13.0129 2.37605 12.9761 2.39445L12.1051 2.82992C11.9649 2.90001 11.9649 3.10003 12.1051 3.17012L12.9761 3.60559C13.0129 3.62399 13.0427 3.65383 13.0611 3.69064L13.4966 4.56158C13.5667 4.70175 13.7667 4.70175 13.8368 4.56158L14.2723 3.69064C14.2907 3.65383 14.3205 3.62399 14.3573 3.60559L15.2283 3.17012C15.3684 3.10003 15.3684 2.90001 15.2283 2.82992L14.3573 2.39445C14.3205 2.37605 14.2907 2.34621 14.2723 2.3094L13.8368 1.43846Z" fill="#1E252B"/>
<path d="M10.1763 2.77563C10.1037 2.63035 9.89632 2.63035 9.82366 2.77563L9.50372 3.41557C9.48466 3.45371 9.45372 3.48465 9.41552 3.50372L8.77566 3.82369C8.63032 3.89633 8.63032 4.10367 8.77566 4.17631L9.41552 4.49628C9.45372 4.51535 9.48466 4.54629 9.50372 4.58443L9.82366 5.22437C9.89632 5.36966 10.1037 5.36966 10.1763 5.22437L10.4963 4.58443C10.5153 4.54629 10.5463 4.51535 10.5845 4.49628L11.2243 4.17631C11.3697 4.10367 11.3697 3.89633 11.2243 3.82369L10.5845 3.50372C10.5463 3.48465 10.5153 3.45371 10.4963 3.41557L10.1763 2.77563Z" fill="#1E252B"/>
<path d="M3.17008 10.7718C3.1 10.6316 2.89998 10.6316 2.8299 10.7718L2.39443 11.6427C2.37602 11.6795 2.34618 11.7094 2.30938 11.7278L1.43845 12.1633C1.29828 12.2333 1.29828 12.4333 1.43845 12.5034L2.30938 12.9389C2.34618 12.9573 2.37602 12.9871 2.39443 13.0239L2.8299 13.8949C2.89998 14.0351 3.1 14.0351 3.17009 13.8949L3.60555 13.0239C3.62396 12.9871 3.6538 12.9573 3.6906 12.9389L4.56153 12.5034C4.7017 12.4333 4.7017 12.2333 4.56153 12.1633L3.6906 11.7278C3.6538 11.7094 3.62396 11.6795 3.60555 11.6427L3.17008 10.7718Z" fill="#1E252B"/>
</svg>
