<svg width="16" height="16" viewBox="0 0 16 16" fill="none" xmlns="http://www.w3.org/2000/svg">
<path d="M12.2331 6.66632C12.2329 4.32847 10.3376 2.43292 7.99969 2.43292C5.66195 2.4331 3.76647 4.32858 3.7663 6.66632C3.7663 8.01025 4.37171 9.33723 5.18719 10.5052C5.9979 11.6662 6.97733 12.6153 7.63739 13.1917C7.84959 13.3771 8.14971 13.3769 8.362 13.1917C9.0221 12.6152 10.0024 11.6662 10.8132 10.5052C11.6287 9.33723 12.2331 8.01025 12.2331 6.66632ZM9.23309 6.66632C9.23292 5.98532 8.68075 5.43292 7.99969 5.43292C7.31879 5.4331 6.76647 5.98543 6.7663 6.66632C6.7663 7.34737 7.31868 7.89954 7.99969 7.89972C8.68086 7.89972 9.23309 7.34748 9.23309 6.66632ZM10.4333 6.66632C10.4333 8.01023 9.3436 9.09991 7.99969 9.09991C6.65594 9.09974 5.56708 8.01012 5.56708 6.66632C5.56725 5.32269 6.65605 4.23388 7.99969 4.2337C9.34349 4.2337 10.4331 5.32258 10.4333 6.66632ZM13.4333 6.66632C13.4333 8.35877 12.6802 9.92747 11.7975 11.1917C10.9102 12.4626 9.85182 13.4839 9.15204 14.095C8.48755 14.6754 7.51282 14.6754 6.84833 14.095C6.14855 13.4839 5.09024 12.4627 4.20282 11.1917C3.32011 9.92745 2.56708 8.35884 2.56708 6.66632C2.56725 3.66583 4.99921 1.23388 7.99969 1.2337C11.0004 1.2337 13.4331 3.66573 13.4333 6.66632Z" fill="black"/>
</svg>
