<svg width="16" height="16" viewBox="0 0 16 16" fill="none" xmlns="http://www.w3.org/2000/svg">
<path d="M13.5681 3.83301C13.5679 3.42816 13.2395 3.09961 12.8347 3.09961H3.16766C2.76291 3.09978 2.43444 3.42826 2.43427 3.83301V10.833C2.43427 11.2379 2.7628 11.5662 3.16766 11.5664H4.66766C4.99903 11.5664 5.26825 11.8356 5.26825 12.167V12.9844L7.71259 11.6406L7.78094 11.6084C7.85089 11.5808 7.92599 11.5664 8.00165 11.5664H12.8347C13.2396 11.5664 13.5681 11.238 13.5681 10.833V3.83301ZM10.9997 7.2334C10.9447 7.23358 10.9003 7.27803 10.9001 7.33301L10.9079 7.37207C10.923 7.40795 10.9583 7.43346 10.9997 7.43359C11.0412 7.43359 11.0774 7.40811 11.0925 7.37207L11.1003 7.33301L11.0925 7.29395C11.0823 7.27009 11.0627 7.25127 11.0388 7.24121L10.9997 7.2334ZM8.09247 7.29395C8.0823 7.2701 8.06267 7.25127 8.03876 7.24121L7.99969 7.2334C7.94472 7.23357 7.90026 7.27803 7.90009 7.33301L7.9079 7.37207C7.923 7.40795 7.95835 7.43346 7.99969 7.43359C8.04123 7.43359 8.07735 7.40811 8.09247 7.37207L8.10028 7.33301L8.09247 7.29395ZM5.09247 7.29395C5.0823 7.2701 5.06266 7.25127 5.03876 7.24121L4.99969 7.2334C4.94472 7.23357 4.90026 7.27803 4.90009 7.33301L4.9079 7.37207C4.923 7.40795 4.95835 7.43346 4.99969 7.43359C5.04123 7.43359 5.07735 7.40811 5.09247 7.37207L5.10028 7.33301L5.09247 7.29395ZM6.10028 7.33301C6.10028 7.94051 5.60721 8.43359 4.99969 8.43359C4.43014 8.43343 3.96205 8.0001 3.90594 7.44531L3.90009 7.33301L3.90594 7.2207C3.96235 6.66623 4.43036 6.23356 4.99969 6.2334L5.11298 6.23926C5.66731 6.29581 6.10012 6.7638 6.10028 7.33301ZM9.10028 7.33301C9.10028 7.94051 8.6072 8.43359 7.99969 8.43359C7.43015 8.43343 6.96205 8.0001 6.90594 7.44531L6.90009 7.33301L6.90594 7.2207C6.96235 6.66622 7.43037 6.23356 7.99969 6.2334L8.11298 6.23926C8.6673 6.29581 9.10012 6.76379 9.10028 7.33301ZM12.1003 7.33301C12.1003 7.94051 11.6072 8.43359 10.9997 8.43359C10.4302 8.43343 9.96205 8.0001 9.90594 7.44531L9.90009 7.33301L9.90594 7.2207C9.96235 6.66622 10.4304 6.23356 10.9997 6.2334L11.113 6.23926C11.6673 6.29581 12.1001 6.76379 12.1003 7.33301ZM14.7682 10.833C14.7682 11.9008 13.9023 12.7666 12.8347 12.7666H8.15594L4.95673 14.5254C4.77099 14.6275 4.54547 14.6243 4.36298 14.5166C4.18037 14.4086 4.06805 14.2121 4.06805 14V12.7666H3.16766C2.10007 12.7664 1.23505 11.9007 1.23505 10.833V3.83301C1.23522 2.76552 2.10017 1.90057 3.16766 1.90039H12.8347C13.9022 1.90039 14.7681 2.76539 14.7682 3.83301V10.833Z" fill="black"/>
</svg>
