<svg width="16" height="16" viewBox="0 0 16 16" fill="none" xmlns="http://www.w3.org/2000/svg">
<path d="M10.5 4.33333C10.5 5.71404 9.38073 6.83333 8 6.83333C6.61929 6.83333 5.5 5.71404 5.5 4.33333C5.5 2.95261 6.61929 1.83333 8 1.83333C9.38073 1.83333 10.5 2.95261 10.5 4.33333Z" stroke="black" stroke-width="1.2" stroke-linecap="round" stroke-linejoin="round"/>
<path d="M13.3334 10.6667L12 12M12 12L10.6667 13.3333M12 12L10.6667 10.6667M12 12L13.3334 13.3333" stroke="black" stroke-width="1.2" stroke-linecap="round" stroke-linejoin="round"/>
<path d="M7.9024 8.83419C5.69028 8.87253 4.01455 10.2039 3.32244 12.0753C3.0499 12.8121 3.67909 13.5 4.46476 13.5H8.16746M7.9024 8.83419C7.93506 8.83359 7.96786 8.83333 8.0008 8.83333C8.34753 8.83333 8.6814 8.86493 9.0008 8.92526M7.9024 8.83419C7.469 8.84173 7.0564 8.89886 6.66753 8.99999" stroke="black" stroke-width="1.2" stroke-linecap="round" stroke-linejoin="round"/>
</svg>
