<svg width="16" height="16" viewBox="0 0 16 16" fill="none" xmlns="http://www.w3.org/2000/svg">
<path d="M1.68521 3.4533C1.28892 2.37656 2.41472 1.36982 3.44107 1.88299L13.4088 6.86736C14.3425 7.33414 14.3425 8.66622 13.4088 9.13299L3.44107 14.1174C2.41451 14.6307 1.28848 13.6229 1.68521 12.5461L3.36002 7.9992L1.68521 3.4533ZM2.82974 2.966C2.81636 2.97797 2.80974 2.99129 2.80728 3.00018C2.80577 3.00575 2.80303 3.01709 2.81119 3.03924L4.41861 7.39959H6.16666C6.49803 7.39959 6.76626 7.66881 6.76626 8.00018C6.76614 8.33144 6.49795 8.59979 6.16666 8.59979H4.41861L2.81119 12.9611C2.80292 12.9836 2.80577 12.9947 2.80728 13.0002C2.80975 13.0091 2.81638 13.0224 2.82974 13.0344C2.84305 13.0462 2.85683 13.0515 2.86587 13.0529C2.8715 13.0538 2.8827 13.0547 2.90396 13.0441L12.8727 8.05975C12.89 8.05107 12.8964 8.04235 12.9001 8.03631C12.9048 8.02818 12.9098 8.01545 12.9098 8.00018C12.9098 7.9848 12.9049 7.97221 12.9001 7.96404C12.8965 7.958 12.8902 7.94941 12.8727 7.94061L2.90396 2.95623C2.88252 2.94552 2.8715 2.94655 2.86587 2.94744C2.85677 2.9489 2.84312 2.95403 2.82974 2.966Z" fill="black"/>
</svg>
