<svg width="16" height="16" viewBox="0 0 16 16" fill="none" xmlns="http://www.w3.org/2000/svg">
<g clip-path="url(#clip0_383_3610)">
<path d="M2.50089 12.1665H1.66744C0.93106 12.1665 0.313549 11.5375 0.657801 10.8866C1.11906 10.0143 2.01904 9.37273 3.00089 9.208M13.5 12.1665H14.3333C15.0697 12.1665 15.6872 11.5375 15.343 10.8865C14.8818 10.0143 13.9818 9.37273 13 9.208M9.66665 4.66667C9.66665 5.58714 8.92045 6.33333 7.99998 6.33333C7.07951 6.33333 6.33331 5.58714 6.33331 4.66667C6.33331 3.74619 7.07951 3 7.99998 3C8.92045 3 9.66665 3.74619 9.66665 4.66667ZM4.33331 6C4.33331 6.73638 3.73636 7.33333 2.99998 7.33333C2.2636 7.33333 1.66665 6.73638 1.66665 6C1.66665 5.26362 2.2636 4.66667 2.99998 4.66667C3.73636 4.66667 4.33331 5.26362 4.33331 6ZM14.3333 6C14.3333 6.73638 13.7364 7.33333 13 7.33333C12.2636 7.33333 11.6666 6.73638 11.6666 6C11.6666 5.26362 12.2636 4.66667 13 4.66667C13.7364 4.66667 14.3333 5.26362 14.3333 6ZM5.66665 12.8333H10.3333C10.9776 12.8333 11.5 12.311 11.5 11.6667C11.5 9.73367 9.93298 8.16667 7.99998 8.16667C6.06698 8.16667 4.49998 9.73367 4.49998 11.6667C4.49998 12.311 5.02231 12.8333 5.66665 12.8333Z" stroke="black" stroke-width="1.2" stroke-linecap="round" stroke-linejoin="round"/>
</g>
<defs>
<clipPath id="clip0_383_3610">
<rect width="16" height="16" fill="white"/>
</clipPath>
</defs>
</svg>
