<svg width="16" height="16" viewBox="0 0 16 16" fill="none" xmlns="http://www.w3.org/2000/svg">
<path d="M13.5638 4.49969C13.5636 4.09488 13.2353 3.76637 12.8304 3.7663H11.43V12.2331H12.8304C13.2354 12.233 13.5638 11.9047 13.5638 11.4997V4.49969ZM1.23373 11.4997V4.49969C1.23391 3.4322 2.09886 2.56725 3.16635 2.56708H8.83334C9.16471 2.56708 9.43295 2.83532 9.43295 3.16669C9.43295 3.49806 9.16471 3.7663 8.83334 3.7663H3.16635C2.7616 3.76647 2.43313 4.09494 2.43295 4.49969V11.4997C2.43295 11.9046 2.76149 12.2329 3.16635 12.2331H8.83334C9.16471 12.2331 9.43295 12.5023 9.43295 12.8337C9.43278 13.1649 9.16461 13.4333 8.83334 13.4333H3.16635C2.09876 13.4331 1.23373 12.5674 1.23373 11.4997ZM5.24252 5.90887C5.47685 5.67472 5.8569 5.67461 6.09116 5.90887L7.75717 7.57587C7.99149 7.81018 7.99149 8.19018 7.75717 8.4245L6.09116 10.0905C5.85684 10.3248 5.47684 10.3248 5.24252 10.0905C5.00843 9.85624 5.00843 9.47713 5.24252 9.24286L6.48471 7.99969L5.24252 6.75751C5.00821 6.52319 5.00821 6.14319 5.24252 5.90887ZM14.764 11.4997C14.764 12.5674 13.8981 13.4332 12.8304 13.4333H11.43V14.3337C11.4298 14.6649 11.1616 14.9332 10.8304 14.9333C10.4992 14.9333 10.23 14.6649 10.2298 14.3337V1.66669C10.2298 1.33532 10.499 1.06708 10.8304 1.06708C11.1617 1.06715 11.43 1.33536 11.43 1.66669V2.56708H12.8304C13.898 2.56715 14.7638 3.43215 14.764 4.49969V11.4997Z" fill="black"/>
</svg>
