<svg width="16" height="16" viewBox="0 0 16 16" fill="none" xmlns="http://www.w3.org/2000/svg">
<path d="M10 1.83333C11.2887 1.83333 12.3334 2.87799 12.3334 4.16666C12.3334 5.45533 11.2887 6.5 10 6.5M13.8334 13.5H14.1667C14.9031 13.5 15.5166 12.8898 15.2937 12.1879C14.8399 10.7593 13.6747 9.53999 12.1667 9.00586M6.16669 6.5C4.87802 6.5 3.83335 5.45533 3.83335 4.16666C3.83335 2.87799 4.87802 1.83333 6.16669 1.83333C7.45535 1.83333 8.50002 2.87799 8.50002 4.16666C8.50002 5.45533 7.45535 6.5 6.16669 6.5ZM6.16539 8.5C3.64265 8.5 1.51661 10.1011 0.868414 12.1664C0.647902 12.869 1.26235 13.4791 1.99873 13.4792H10.3321C11.0684 13.4792 11.6829 12.869 11.4624 12.1664C10.8142 10.1011 8.68815 8.5 6.16539 8.5Z" stroke="#1E252B" stroke-width="1.2" stroke-linecap="round" stroke-linejoin="round"/>
</svg>
