<svg width="16" height="16" viewBox="0 0 16 16" fill="none" xmlns="http://www.w3.org/2000/svg">
<path d="M3.16668 7.32354V3.16667C3.16668 2.43029 3.76363 1.83334 4.50001 1.83334H11.5C12.2364 1.83334 12.8333 2.43029 12.8333 3.16667V7.32354M6.50001 5.16667H9.50001M8.41134 9.03327L13.2943 7.4496C13.725 7.30994 14.1667 7.631 14.1667 8.08374V12.1667C14.1667 12.9031 13.5697 13.5 12.8333 13.5H3.16668C2.4303 13.5 1.83334 12.9031 1.83334 12.1667V8.08374C1.83334 7.631 2.275 7.30994 2.70568 7.4496L7.58868 9.03327C7.85601 9.12 8.14401 9.12 8.41134 9.03327Z" stroke="#1E252B" stroke-width="1.2" stroke-linecap="round" stroke-linejoin="round"/>
</svg>
