<svg width="16" height="16" viewBox="0 0 16 16" fill="none" xmlns="http://www.w3.org/2000/svg">
<path d="M10.4089 4.74281C10.6432 4.5085 11.0232 4.5085 11.2575 4.74281C11.4916 4.97709 11.4916 5.3562 11.2575 5.59047L8.84733 7.99965L11.2575 10.4088C11.4918 10.6431 11.4918 11.0231 11.2575 11.2575C11.0232 11.4918 10.6432 11.4918 10.4089 11.2575L7.99967 8.84731L5.59049 11.2575C5.35622 11.4916 4.97711 11.4916 4.74284 11.2575C4.50852 11.0231 4.50852 10.6431 4.74284 10.4088L7.15104 7.99965L4.74284 5.59047C4.50852 5.35616 4.50852 4.97713 4.74284 4.74281C4.97715 4.5085 5.35618 4.5085 5.59049 4.74281L7.99967 7.15102L10.4089 4.74281Z" fill="black"/>
</svg>
