<svg width="16" height="16" viewBox="0 0 16 16" fill="none" xmlns="http://www.w3.org/2000/svg">
<path d="M11.4037 11.4385C11.4037 12.5771 10.4797 13.5 9.33987 13.5C8.20007 13.5 7.27607 12.5771 7.27607 11.4385C7.27607 10.2999 8.20007 9.37693 9.33987 9.37693C10.4797 9.37693 11.4037 10.2999 11.4037 11.4385Z" stroke="#1E252B" stroke-width="1.2" stroke-linejoin="round"/>
<path d="M3.32763 4.65731L6.97873 7.7176L2.5 9.34587L3.32763 4.65731Z" stroke="#1E252B" stroke-width="1.2" stroke-linejoin="round"/>
<path d="M9.341 2.97688C9.43633 2.6214 9.80173 2.41045 10.1573 2.50561L12.8563 3.228C13.2121 3.32323 13.4232 3.68897 13.3278 4.04472L12.6049 6.73953C12.5095 7.095 12.1442 7.30593 11.7887 7.2108L9.08967 6.48839C8.73387 6.39315 8.52273 6.02742 8.61813 5.67166L9.341 2.97688Z" stroke="#1E252B" stroke-width="1.2" stroke-linejoin="round"/>
</svg>
