<svg width="16" height="16" viewBox="0 0 16 16" fill="none" xmlns="http://www.w3.org/2000/svg">
<path fill-rule="evenodd" clip-rule="evenodd" d="M4.61305 2H7.5C7.77613 2 8 2.22386 8 2.5C8 2.77614 7.77613 3.00001 7.5 3.00001H4.63333C4.25171 3.00001 3.99557 3.00039 3.79832 3.01651C3.60691 3.03215 3.51538 3.06007 3.45501 3.09083C3.29821 3.17072 3.17072 3.29821 3.09083 3.45501C3.06007 3.51538 3.03215 3.6069 3.01651 3.79833C3.00039 3.99558 3 4.25172 3 4.63334V11.3667C3 11.7483 3.00039 12.0044 3.01651 12.2017C3.03215 12.3931 3.06007 12.4846 3.09083 12.545C3.17072 12.7018 3.29821 12.8293 3.45501 12.9092C3.51538 12.9399 3.60691 12.9679 3.79832 12.9835C3.99557 12.9996 4.25171 13 4.63333 13H11.3667C11.7483 13 12.0044 12.9996 12.2017 12.9835C12.3931 12.9679 12.4846 12.9399 12.545 12.9092C12.7018 12.8293 12.8293 12.7018 12.9092 12.545C12.9399 12.4846 12.9679 12.3931 12.9835 12.2017C12.9996 12.0044 13 11.7483 13 11.3667V8.5C13 8.22387 13.2239 8 13.5 8C13.7761 8 14 8.22387 14 8.5V11.387C14 11.7431 14 12.0403 13.9802 12.2831C13.9595 12.5364 13.9147 12.7741 13.8002 12.999C13.6244 13.3439 13.3439 13.6244 12.999 13.8002C12.7741 13.9147 12.5364 13.9595 12.2831 13.9802C12.0403 14 11.7431 14 11.387 14H4.61303C4.25693 14 3.95971 14 3.71689 13.9802C3.46363 13.9595 3.22586 13.9147 3.00102 13.8002C2.65605 13.6244 2.37559 13.3439 2.19982 12.999C2.08526 12.7741 2.04052 12.5364 2.01983 12.2831C1.99999 12.0403 1.99999 11.7431 2 11.3869V4.61304C1.99999 4.25694 1.99999 3.95971 2.01983 3.71689C2.04052 3.46364 2.08526 3.22587 2.19982 3.00103C2.37559 2.65606 2.65605 2.37559 3.00102 2.19982C3.22586 2.08526 3.46363 2.04053 3.71689 2.01983C3.95971 1.99999 4.25694 2 4.61305 2Z" fill="black"/>
<path d="M13.963 1.92239C13.2471 1.20643 12.0863 1.20643 11.3703 1.92239L5.67504 7.61767C5.45625 7.83647 5.33333 8.1332 5.33333 8.44261V10.1665C5.33333 10.4426 5.55719 10.6665 5.83333 10.6665H7.5572C7.8666 10.6665 8.16333 10.5435 8.38213 10.3247L14.0774 4.6295C14.7934 3.91354 14.7934 2.75274 14.0774 2.03677L13.963 1.92239Z" fill="black"/>
</svg>
