<svg width="16" height="16" viewBox="0 0 16 16" fill="none" xmlns="http://www.w3.org/2000/svg">
<path d="M13.5667 5.83301C13.5666 5.42814 13.2383 5.09961 12.8333 5.09961H11.7132C11.067 5.09948 10.4633 4.777 10.1048 4.23926L9.56284 3.42676C9.42693 3.2229 9.19851 3.09974 8.95346 3.09961H7.04721C6.80199 3.09961 6.57286 3.22275 6.43686 3.42676L5.89487 4.23926C5.53629 4.77698 4.93279 5.0996 4.28647 5.09961H3.16635C2.7616 5.09979 2.43313 5.42826 2.43295 5.83301V12.167C2.43313 12.5718 2.76159 12.9002 3.16635 12.9004H12.8333C13.2383 12.9004 13.5666 12.5719 13.5667 12.167V5.83301ZM9.56674 8.66699C9.56674 7.80187 8.86542 7.09979 8.00034 7.09961C7.13511 7.09961 6.43295 7.80176 6.43295 8.66699C6.43313 9.53207 7.13521 10.2334 8.00034 10.2334C8.86531 10.2332 9.56657 9.53196 9.56674 8.66699ZM10.7669 8.66699C10.7668 10.1947 9.52805 11.4334 8.00034 11.4336C6.47247 11.4336 5.23391 10.1948 5.23373 8.66699C5.23373 7.13902 6.47237 5.90039 8.00034 5.90039C9.52816 5.90057 10.7669 7.13913 10.7669 8.66699ZM14.7669 12.167C14.7668 13.2346 13.901 14.0996 12.8333 14.0996H3.16635C2.09886 14.0994 1.23391 13.2345 1.23373 12.167V5.83301C1.23391 4.76552 2.09886 3.90057 3.16635 3.90039H4.28647C4.53165 3.90038 4.76082 3.77724 4.89682 3.57324L5.43784 2.76074C5.79641 2.22288 6.40078 1.90039 7.04721 1.90039H8.95346C9.59968 1.90052 10.2034 2.223 10.5619 2.76074L11.1039 3.57324C11.2398 3.7771 11.4682 3.90026 11.7132 3.90039H12.8333C13.901 3.90039 14.7668 4.76541 14.7669 5.83301V12.167Z" fill="black"/>
</svg>
