<svg width="16" height="16" viewBox="0 0 16 16" fill="none" xmlns="http://www.w3.org/2000/svg">
<path d="M11.2456 13.2445C10.3029 13.8291 9.19088 14.1667 8.00001 14.1667C4.59426 14.1667 1.83334 11.4057 1.83334 8C1.83334 4.59425 4.59426 1.83334 8.00001 1.83334C11.4057 1.83334 14.1667 4.59425 14.1667 8C14.1667 9.3198 13.5108 10.6828 11.981 10.5437C10.7225 10.4293 9.81661 9.28387 9.99534 8.0328L10.3484 5.60186M9.95834 8.32034C9.75334 9.77874 8.55274 10.8157 7.27661 10.6363C6.00046 10.4569 5.13212 9.12927 5.33709 7.67087C5.54206 6.21242 6.74274 5.17552 8.01888 5.35486C9.29494 5.53421 10.1633 6.86187 9.95834 8.32034Z" stroke="#1E252B" stroke-width="1.2" stroke-linecap="round"/>
</svg>
