<svg width="16" height="16" viewBox="0 0 16 16" fill="none" xmlns="http://www.w3.org/2000/svg">
<path d="M13.5667 8.00031C13.5667 4.92603 11.0745 2.4331 8.00033 2.43292C4.92594 2.43292 2.43294 4.92592 2.43294 8.00031C2.43312 11.0745 4.92605 13.5667 8.00033 13.5667C11.0744 13.5665 13.5666 11.0744 13.5667 8.00031ZM9.53548 5.95343C9.7453 5.69699 10.1237 5.6587 10.3802 5.86847C10.6367 6.07831 10.674 6.45673 10.4642 6.7132L7.46419 10.3802C7.35685 10.5112 7.19882 10.5905 7.02962 10.5989C6.8604 10.6073 6.69533 10.5439 6.57552 10.4241L5.24251 9.09113C5.0082 8.85681 5.0082 8.47681 5.24251 8.24249C5.47683 8.00818 5.85683 8.00818 6.09115 8.24249L6.9554 9.10675L9.53548 5.95343ZM14.7669 8.00031C14.7668 11.7372 11.7372 14.7667 8.00033 14.7669C4.26331 14.7669 1.2339 11.7373 1.23372 8.00031C1.23372 4.26318 4.2632 1.2337 8.00033 1.2337C11.7373 1.23388 14.7669 4.26329 14.7669 8.00031Z" fill="black"/>
</svg>
