<svg width="16" height="16" viewBox="0 0 16 16" fill="none" xmlns="http://www.w3.org/2000/svg">
<path d="M8.50001 2.5H3.16668C2.4303 2.5 1.83334 3.09695 1.83334 3.83333V10.8333C1.83334 11.5697 2.4303 12.1667 3.16668 12.1667H5.76789C5.92451 12.1667 6.07613 12.2218 6.19616 12.3224L7.57288 13.4765C7.81948 13.6832 8.17861 13.6842 8.42648 13.4789L9.82534 12.3199C9.94488 12.2209 10.0953 12.1667 10.2506 12.1667H12.8333C13.5697 12.1667 14.1667 11.5697 14.1667 10.8333V8.16667" stroke="#1E252B" stroke-width="1.2" stroke-linecap="round" stroke-linejoin="round"/>
<path d="M13.4937 2.79012L13.0291 1.58223C12.9714 1.43228 12.8273 1.33333 12.6667 1.33333C12.506 1.33333 12.3619 1.43228 12.3043 1.58223L11.8397 2.79012C11.772 2.96618 11.6329 3.10531 11.4568 3.17303L10.2489 3.63761C10.0989 3.69528 10 3.83934 10 4C10 4.16066 10.0989 4.30472 10.2489 4.36239L11.4568 4.82697C11.6329 4.89469 11.772 5.03382 11.8397 5.20988L12.3043 6.41777C12.3619 6.56772 12.506 6.66667 12.6667 6.66667C12.8273 6.66667 12.9714 6.56772 13.0291 6.41777L13.4937 5.20988C13.5613 5.03382 13.7005 4.89469 13.8765 4.82697L15.0845 4.36239C15.2344 4.30472 15.3333 4.16066 15.3333 4C15.3333 3.83934 15.2344 3.69528 15.0845 3.63761L13.8765 3.17303C13.7005 3.10531 13.5613 2.96618 13.4937 2.79012Z" fill="#1E252B"/>
</svg>
