<svg width="16" height="16" viewBox="0 0 16 16" fill="none" xmlns="http://www.w3.org/2000/svg">
<path d="M7.40039 11.5V8.59961H4.5C4.16863 8.59961 3.90039 8.33137 3.90039 8C3.90039 7.66863 4.16863 7.40039 4.5 7.40039H7.40039V4.5C7.40039 4.16863 7.66863 3.90039 8 3.90039C8.33137 3.90039 8.59961 4.16863 8.59961 4.5V7.40039H11.5C11.8314 7.40039 12.0996 7.66863 12.0996 8C12.0996 8.33137 11.8314 8.59961 11.5 8.59961H8.59961V11.5C8.59961 11.8314 8.33137 12.0996 8 12.0996C7.66863 12.0996 7.40039 11.8314 7.40039 11.5Z" fill="black"/>
</svg>
