<svg width="16" height="16" viewBox="0 0 16 16" fill="none" xmlns="http://www.w3.org/2000/svg">
<path d="M7.5 2.99998C7.77613 2.99998 8 2.77612 8 2.49998C8 2.22384 7.77613 1.99998 7.5 1.99998V2.99998ZM14 8.49998V7.99998H13V8.49998H14ZM11.3667 13H4.63333V14H11.3667V13ZM3 11.3666V4.63331H2V11.3666H3ZM4.63333 2.99998H7.5V1.99998H4.63333V2.99998ZM13 8.49998V11.3666H14V8.49998H13ZM4.63333 13C4.25171 13 3.99557 12.9996 3.79832 12.9834C3.6069 12.9678 3.51538 12.9399 3.45501 12.9092L3.00102 13.8002C3.22586 13.9147 3.46363 13.9594 3.71689 13.9802C3.96431 14.0004 4.26821 14 4.63333 14V13ZM2 11.3666C2 11.7318 1.99961 12.0356 2.01983 12.2831C2.04052 12.5364 2.08526 12.7741 2.19982 12.999L3.09083 12.545C3.06007 12.4846 3.03215 12.393 3.01651 12.2016C3.00039 12.0044 3 11.7482 3 11.3666H2ZM3.45501 12.9092C3.29821 12.8292 3.17072 12.7018 3.09083 12.545L2.19982 12.999C2.37559 13.3439 2.65605 13.6244 3.00102 13.8002L3.45501 12.9092ZM11.3667 14C11.7318 14 12.0357 14.0004 12.2831 13.9802C12.5364 13.9594 12.7741 13.9147 12.999 13.8002L12.545 12.9092C12.4846 12.9399 12.3931 12.9678 12.2017 12.9834C12.0044 12.9996 11.7483 13 11.3667 13V14ZM13 11.3666C13 11.7482 12.9996 12.0044 12.9835 12.2016C12.9679 12.393 12.9399 12.4846 12.9092 12.545L13.8002 12.999C13.9147 12.7741 13.9595 12.5364 13.9802 12.2831C14.0004 12.0356 14 11.7318 14 11.3666H13ZM12.999 13.8002C13.3439 13.6244 13.6244 13.3439 13.8002 12.999L12.9092 12.545C12.8293 12.7018 12.7018 12.8292 12.545 12.9092L12.999 13.8002ZM3 4.63331C3 4.25169 3.00039 3.99555 3.01651 3.7983C3.03215 3.60688 3.06007 3.51536 3.09083 3.45499L2.19982 3.001C2.08526 3.22584 2.04052 3.46361 2.01983 3.71687C1.99961 3.96429 2 4.26819 2 4.63331H3ZM4.63333 1.99998C4.26821 1.99998 3.96431 1.99959 3.71689 2.01981C3.46363 2.0405 3.22586 2.08524 3.00102 2.1998L3.45501 3.09081C3.51538 3.06005 3.6069 3.03213 3.79832 3.01649C3.99557 3.00037 4.25171 2.99998 4.63333 2.99998V1.99998ZM3.09083 3.45499C3.17072 3.29819 3.29821 3.1707 3.45501 3.09081L3.00102 2.1998C2.65605 2.37557 2.37559 2.65603 2.19982 3.001L3.09083 3.45499Z" fill="black"/>
<path d="M11.2992 1.85138C12.054 1.09647 13.2785 1.09669 14.0335 1.85138L14.1478 1.96662L14.2806 2.1131C14.9 2.87246 14.8556 3.99216 14.1478 4.70001L8.45247 10.3953C8.21487 10.6329 7.89275 10.7664 7.55697 10.7664H5.83333C5.50204 10.7664 5.23385 10.4981 5.23372 10.1668V8.44318C5.23372 8.10715 5.3664 7.78423 5.60384 7.54669L11.2992 1.85138ZM6.43294 9.56622H7.55697C7.57476 9.56622 7.59243 9.55908 7.60482 9.54669L13.2992 3.85138C13.5855 3.56499 13.5855 3.10066 13.2992 2.81427L13.1849 2.70001C12.8985 2.41395 12.434 2.41375 12.1478 2.70001L6.45247 8.39533C6.43997 8.40791 6.43294 8.42554 6.43294 8.44318V9.56622Z" fill="black"/>
</svg>
