<svg width="16" height="16" viewBox="0 0 16 16" fill="none" xmlns="http://www.w3.org/2000/svg">
<path d="M13.5667 8.00031C13.5667 4.92603 11.0745 2.4331 8.00032 2.43292C4.92594 2.43292 2.43294 4.92592 2.43294 8.00031C2.43312 11.0745 4.92605 13.5667 8.00032 13.5667C11.0744 13.5665 13.5666 11.0744 13.5667 8.00031ZM5.89974 6.16632C5.89991 5.2828 6.6168 4.56671 7.50032 4.56671H8.30599C9.29674 4.56681 10.0998 5.3699 10.0999 6.36066C10.0999 6.96045 9.80033 7.52104 9.30111 7.85382L8.92611 8.10382C8.72252 8.23976 8.60006 8.46833 8.59993 8.7132V8.83331C8.59993 9.16457 8.33155 9.43275 8.00032 9.43292C7.66895 9.43292 7.39974 9.16468 7.39974 8.83331V8.7132C7.39987 8.06695 7.72329 7.46328 8.26107 7.1048L8.63509 6.85577C8.80036 6.74562 8.89974 6.55934 8.89974 6.36066C8.89963 6.03263 8.63399 5.76701 8.30599 5.76691H7.50032C7.27953 5.76691 7.10011 5.94556 7.09993 6.16632C7.09993 6.49758 6.83155 6.76673 6.50032 6.76691C6.16895 6.76691 5.89974 6.49769 5.89974 6.16632ZM8.76693 10.6663C8.76693 11.0896 8.42361 11.4327 8.00032 11.4329C7.60349 11.4329 7.27708 11.1318 7.23763 10.7454L7.23372 10.6663L7.23763 10.5882C7.27693 10.2016 7.60338 9.89972 8.00032 9.89972L8.07845 9.90363C8.46494 9.94289 8.76676 10.2695 8.76693 10.6663ZM14.7669 8.00031C14.7667 11.7372 11.7372 14.7667 8.00032 14.7669C4.26331 14.7669 1.2339 11.7373 1.23372 8.00031C1.23372 4.26318 4.2632 1.2337 8.00032 1.2337C11.7373 1.23388 14.7669 4.26329 14.7669 8.00031Z" fill="black"/>
</svg>
