<svg width="16" height="16" viewBox="0 0 16 16" fill="none" xmlns="http://www.w3.org/2000/svg">
<path d="M12.9004 7.09991H3.09961V12.1663C3.09961 12.5712 3.42814 12.8995 3.83301 12.8997H12.167C12.5719 12.8995 12.9004 12.5712 12.9004 12.1663V7.09991ZM12.9004 4.50031C12.9004 4.0954 12.5719 3.76708 12.167 3.76691H3.83301C3.42815 3.76708 3.09961 4.0954 3.09961 4.50031V5.89972H12.9004V4.50031ZM14.0996 12.1663C14.0996 13.234 13.2346 14.0997 12.167 14.0999H3.83301C2.76541 14.0997 1.90039 13.234 1.90039 12.1663V4.50031C1.90039 3.43266 2.76541 2.56689 3.83301 2.56671H4.56641V1.83331C4.56641 1.50194 4.83562 1.2337 5.16699 1.2337C5.49821 1.23388 5.7666 1.50205 5.7666 1.83331V2.56671H10.2334V1.83331C10.2334 1.50205 10.5018 1.23388 10.833 1.2337C11.1644 1.2337 11.4336 1.50194 11.4336 1.83331V2.56671H12.167C13.2346 2.56689 14.0996 3.43267 14.0996 4.50031V12.1663Z" fill="black"/>
</svg>
