<svg width="16" height="16" viewBox="0 0 16 16" fill="none" xmlns="http://www.w3.org/2000/svg">
<path d="M14.3896 8.15153C14.3896 7.67879 14.3472 7.22419 14.2684 6.78786H7.98959V9.36966H11.5775C11.4199 10.2 10.9471 10.903 10.2381 11.3757V13.0545H12.4017C13.6623 11.8909 14.3896 10.1818 14.3896 8.15153Z" fill="#1E252B"/>
<path d="M7.98799 14.6667C9.78799 14.6667 11.2971 14.0727 12.4001 13.0545L10.2365 11.3757C9.64252 11.7757 8.88492 12.0182 7.98799 12.0182C6.25463 12.0182 4.7819 10.8485 4.25463 9.27273H2.03645V10.9939C3.13341 13.1697 5.38191 14.6667 7.98799 14.6667Z" fill="#1E252B"/>
<path d="M4.25624 9.26666C4.12291 8.86666 4.04412 8.44239 4.04412 7.99999C4.04412 7.55753 4.12291 7.13333 4.25624 6.73333V5.0121H2.03805C1.58351 5.90907 1.32291 6.92119 1.32291 7.99999C1.32291 9.07879 1.58351 10.0909 2.03805 10.9879L3.76533 9.64239L4.25624 9.26666Z" fill="#1E252B"/>
<path d="M7.98799 3.98787C8.96979 3.98787 9.84252 4.32727 10.5395 4.98181L12.4486 3.07272C11.291 1.99393 9.78799 1.33333 7.98799 1.33333C5.38191 1.33333 3.13341 2.8303 2.03645 5.01212L4.25463 6.73333C4.7819 5.15757 6.25463 3.98787 7.98799 3.98787Z" fill="#1E252B"/>
</svg>
