<svg width="16" height="16" viewBox="0 0 16 16" fill="none" xmlns="http://www.w3.org/2000/svg">
<path fill-rule="evenodd" clip-rule="evenodd" d="M7.21613 8.07673C6.94406 7.76933 6.6948 7.4412 6.47099 7.09513C6.31092 6.84767 6.35126 6.48981 6.61261 6.23891C7.096 5.77487 7.28066 5.08025 7.0916 4.43743L6.7618 3.31603C6.5323 2.53579 5.81622 2 5.00294 2H3.81522C2.832 2 1.95158 2.80368 2.06448 3.86416C2.23197 5.43749 2.7269 6.97173 3.52437 8.34627C3.93632 9.05627 4.42311 9.7174 4.97397 10.3189L2.14644 13.1465C1.95118 13.3417 1.95118 13.6583 2.14644 13.8535C2.3417 14.0488 2.65829 14.0488 2.85355 13.8535L13.8535 2.85355C14.0488 2.65829 14.0488 2.34171 13.8535 2.14645C13.6583 1.95119 13.3417 1.95119 13.1465 2.14645L7.21613 8.07673ZM5.68183 9.61107C5.19154 9.07113 4.7576 8.4792 4.38933 7.8444C3.6635 6.59336 3.21174 5.19437 3.05886 3.7583C3.01751 3.36988 3.34137 3 3.81522 3H5.00294C5.37262 3 5.69811 3.24354 5.80242 3.59819L6.13224 4.71959C6.21598 5.00432 6.13418 5.31199 5.92008 5.51752C5.36298 6.05233 5.17524 6.933 5.63128 7.6382C5.89347 8.0436 6.1868 8.427 6.50787 8.785L5.68183 9.61107Z" fill="#1E252B"/>
<path d="M8.1562 11.6113C7.81233 11.4118 7.48106 11.193 7.1638 10.9565L6.44986 11.6704C6.8328 11.9636 7.23506 12.2329 7.65433 12.4762C9.0382 13.2791 10.5532 13.7513 12.1149 13.9243C13.1803 14.0422 14.0006 13.162 14.0006 12.1667V10.9977C14.0006 10.1844 13.4648 9.46827 12.6846 9.2388L11.5632 8.909C10.9203 8.71993 10.2257 8.9046 9.76166 9.388C9.5108 9.64933 9.15293 9.68967 8.90546 9.5296C8.84186 9.48847 8.77886 9.44653 8.71653 9.40367L7.99866 10.1215C8.1178 10.2069 8.23913 10.2896 8.3624 10.3693C9.0676 10.8253 9.94826 10.6376 10.4831 10.0805C10.6886 9.8664 10.9963 9.7846 11.281 9.86833L12.4024 10.1982C12.7571 10.3025 13.0006 10.628 13.0006 10.9977V12.1667C13.0006 12.6441 12.6233 12.9744 12.2249 12.9303C10.7917 12.7716 9.41166 12.3397 8.1562 11.6113Z" fill="#1E252B"/>
</svg>
