<svg width="16" height="16" viewBox="0 0 16 16" fill="none" xmlns="http://www.w3.org/2000/svg">
<path d="M12.2331 7.83337C12.2331 7.42834 11.9047 7.09998 11.4997 7.09998H4.49966C4.0948 7.10015 3.76627 7.42846 3.76627 7.83337V12.8334C3.76627 13.2383 4.0948 13.5666 4.49966 13.5668H11.4997C11.9047 13.5668 12.2331 13.2384 12.2331 12.8334V7.83337ZM7.40005 11.3334V9.33337C7.40005 9.00211 7.66844 8.73394 7.99966 8.73376C8.33104 8.73376 8.60025 9.002 8.60025 9.33337V11.3334C8.60025 11.6647 8.33104 11.933 7.99966 11.933C7.66844 11.9328 7.40005 11.6646 7.40005 11.3334ZM13.4333 12.8334C13.4333 13.9011 12.5674 14.767 11.4997 14.767H4.49966C3.43207 14.7668 2.56705 13.901 2.56705 12.8334V7.83337C2.56705 6.76571 3.43207 5.89996 4.49966 5.89978H4.56705V4.66638C4.56722 2.77046 6.10374 1.23394 7.99966 1.23376C9.69077 1.23376 11.0955 2.45571 11.3805 4.06482C11.4382 4.39102 11.2204 4.70236 10.8942 4.76013C10.568 4.81777 10.2567 4.60001 10.1989 4.2738C10.0136 3.22781 9.09868 2.43298 7.99966 2.43298C6.76649 2.43316 5.76644 3.4332 5.76627 4.66638V5.89978H11.4997C12.5674 5.89978 13.4333 6.7656 13.4333 7.83337V12.8334Z" fill="black"/>
</svg>
