<svg width="16" height="16" viewBox="0 0 16 16" fill="none" xmlns="http://www.w3.org/2000/svg">
<path d="M11.3333 9.16667V2.5M11.3333 9.16667C12.5304 9.16667 13.5 10.1363 13.5 11.3333C13.5 12.5304 12.5304 13.5 11.3333 13.5C10.1363 13.5 9.16667 12.5304 9.16667 11.3333C9.16667 10.1363 10.1363 9.16667 11.3333 9.16667ZM4.66667 13.5V8.16667M4.66667 8.16667C3.46959 8.16667 2.5 7.19707 2.5 6C2.5 4.80292 3.46959 3.83333 4.66667 3.83333M4.66667 8.16667C5.86375 8.16667 6.83333 7.19707 6.83333 6C6.83333 4.80292 5.86375 3.83333 4.66667 3.83333M4.66667 3.83333V2.5" stroke="#1E252B" stroke-width="1.2" stroke-linecap="round" stroke-linejoin="round"/>
</svg>
