<svg width="16" height="16" viewBox="0 0 16 16" fill="none" xmlns="http://www.w3.org/2000/svg">
<path d="M3.26204 6.07259C3.49631 5.83849 3.87542 5.83851 4.1097 6.07259C4.34402 6.3069 4.34401 6.6869 4.1097 6.92122L3.46224 7.56868C2.09022 8.94071 2.09032 11.1653 3.46224 12.5374C4.83433 13.9095 7.0589 13.9095 8.43099 12.5374L9.07454 11.8949C9.30886 11.6605 9.68886 11.6605 9.92317 11.8949C10.1571 12.1292 10.1574 12.5093 9.92317 12.7435L9.27962 13.3861C7.4389 15.2268 4.45432 15.2268 2.6136 13.3861C0.773057 11.5453 0.772952 8.56071 2.6136 6.72005L3.26204 6.07259ZM9.24251 5.9095C9.47682 5.67519 9.85683 5.67519 10.0911 5.9095C10.325 6.14374 10.325 6.52293 10.0911 6.75716L6.75716 10.0911C6.52293 10.325 6.14373 10.325 5.9095 10.0911C5.67519 9.85683 5.67519 9.47683 5.9095 9.24251L9.24251 5.9095ZM6.72005 2.61361C8.56071 0.772958 11.5453 0.77305 13.3861 2.61361C15.2268 4.45432 15.2268 7.4389 13.3861 9.27962L12.7406 9.92513C12.5063 10.1595 12.1263 10.1594 11.8919 9.92513C11.6579 9.69087 11.6579 9.31175 11.8919 9.07747L12.5374 8.43099C13.9095 7.0589 13.9095 4.83433 12.5374 3.46224C11.1653 2.09031 8.94071 2.09022 7.56868 3.46224L6.92415 4.10677C6.68982 4.34093 6.30978 4.34104 6.07552 4.10677C5.84144 3.87249 5.84142 3.4924 6.07552 3.25814L6.72005 2.61361Z" fill="black"/>
</svg>
