<svg width="16" height="16" viewBox="0 0 16 16" fill="none" xmlns="http://www.w3.org/2000/svg">
<path d="M11.5664 14.1663V12.7669H10.167C9.8356 12.7669 9.56639 12.4977 9.56639 12.1663C9.56656 11.8351 9.83571 11.5667 10.167 11.5667H11.5664V10.1663C11.5666 9.8351 11.8357 9.56671 12.167 9.56671C12.4981 9.56689 12.7664 9.83521 12.7666 10.1663V11.5667H14.167C14.4981 11.5669 14.7664 11.8352 14.7666 12.1663C14.7666 12.4976 14.4982 12.7667 14.167 12.7669H12.7666V14.1663C12.7666 14.4976 12.4982 14.7667 12.167 14.7669C11.8356 14.7669 11.5664 14.4977 11.5664 14.1663ZM8.38572 8.24542L8.7617 8.28058L9.14744 8.3421C9.20142 8.35265 9.25432 8.36719 9.3076 8.37921C9.36705 8.39263 9.42675 8.40401 9.48533 8.41925C9.48862 8.4201 9.49184 8.42128 9.4951 8.42218C9.75 8.48896 9.99647 8.57239 10.2334 8.67218C10.5388 8.80082 10.6823 9.15293 10.5537 9.45831C10.425 9.76366 10.0729 9.90726 9.76756 9.77863C9.49934 9.66564 9.21353 9.57752 8.91111 9.51886C8.81303 9.49983 8.71287 9.48382 8.61131 9.47101C8.41443 9.44617 8.21082 9.43293 8.00096 9.43292L7.91307 9.4339C7.7624 9.43651 7.61441 9.44741 7.46971 9.4632C7.40057 9.47073 7.33219 9.47915 7.26463 9.48956C7.22825 9.49517 7.19219 9.50168 7.15623 9.50812C7.07628 9.52242 6.99754 9.5387 6.9199 9.55695C5.46753 9.89837 4.38719 10.925 3.88475 12.2835C3.83022 12.4312 3.86075 12.5633 3.95701 12.678C4.06154 12.8026 4.24487 12.8996 4.46483 12.8997H8.33397C8.66534 12.8997 8.93358 13.1689 8.93358 13.5003C8.9334 13.8315 8.66523 14.0999 8.33397 14.0999H4.46483C3.89952 14.0998 3.37558 13.8529 3.03709 13.4495C2.69041 13.0362 2.54205 12.4564 2.75975 11.8675C3.41893 10.0851 4.8873 8.73154 6.83885 8.34503C6.84598 8.34362 6.85319 8.34251 6.86033 8.34113C6.95651 8.32246 7.05386 8.30621 7.15233 8.2923C7.16922 8.28991 7.18616 8.28771 7.20311 8.28546C7.29876 8.2728 7.39543 8.26229 7.49315 8.25421C7.52333 8.25171 7.55361 8.24943 7.58397 8.24738C7.68545 8.24053 7.788 8.23648 7.89158 8.23468L8.00096 8.2337C8.13061 8.23371 8.25889 8.23752 8.38572 8.24542ZM9.90037 4.33331C9.90037 3.28397 9.04934 2.43292 7.99998 2.43292C6.95064 2.43292 6.09959 3.28397 6.09959 4.33331C6.09959 5.38266 6.95064 6.2337 7.99998 6.2337C9.04934 6.2337 9.90037 5.38266 9.90037 4.33331ZM11.0996 4.33331C11.0996 6.04539 9.71209 7.43292 7.99998 7.43292C6.2879 7.43292 4.90037 6.0454 4.90037 4.33331C4.90037 2.62123 6.2879 1.2337 7.99998 1.2337C9.71209 1.2337 11.0996 2.62123 11.0996 4.33331Z" fill="black"/>
</svg>
