<svg width="16" height="16" viewBox="0 0 16 16" fill="none" xmlns="http://www.w3.org/2000/svg">
<path d="M2.56641 13.5V11.333C2.56658 10.7257 3.05958 10.2334 3.66699 10.2334H5.83301C6.16427 10.2334 6.43342 10.5018 6.43359 10.833C6.43359 11.1644 6.16438 11.4336 5.83301 11.4336H4.46484C5.36652 12.3374 6.62959 12.9004 8 12.9004C10.7062 12.9004 12.9004 10.7062 12.9004 8C12.9004 7.79208 12.8873 7.58737 12.8623 7.38672C12.8213 7.05803 13.0542 6.75797 13.3828 6.7168C13.7116 6.67582 14.0117 6.90949 14.0527 7.23828C14.0839 7.48803 14.0996 7.74232 14.0996 8C14.0996 11.3689 11.3689 14.0996 8 14.0996C6.37644 14.0996 4.87479 13.4637 3.7666 12.4268V13.5C3.7666 13.8313 3.49821 14.0994 3.16699 14.0996C2.83562 14.0996 2.56641 13.8314 2.56641 13.5ZM1.90039 8C1.90039 4.63106 4.63106 1.90039 8 1.90039C9.62728 1.90039 11.1323 2.53892 12.2412 3.58008V2.5C12.2412 2.16876 12.5096 1.9006 12.8408 1.90039C13.1722 1.90039 13.4414 2.16863 13.4414 2.5V4.66699C13.4412 5.27431 12.9483 5.7666 12.3408 5.7666H10.1748C9.84354 5.7666 9.57439 5.49821 9.57422 5.16699C9.57422 4.83562 9.84343 4.56641 10.1748 4.56641H11.5342C10.6325 3.66289 9.37016 3.09961 8 3.09961C5.2938 3.09961 3.09961 5.2938 3.09961 8C3.09961 8.20792 3.11267 8.41266 3.1377 8.61328C3.17867 8.94198 2.94582 9.24204 2.61719 9.2832C2.28837 9.32421 1.98828 9.09054 1.94727 8.76172C1.91611 8.51194 1.90039 8.25768 1.90039 8Z" fill="black"/>
</svg>
