<svg width="16" height="16" viewBox="0 0 16 16" fill="none" xmlns="http://www.w3.org/2000/svg">
<path d="M13.5638 7.10028H2.43295V11.4977C2.43313 11.9025 2.76159 12.231 3.16635 12.2311H12.8304C13.2353 12.2311 13.5636 11.9026 13.5638 11.4977V7.10028ZM6.50034 8.23309C6.83156 8.23327 7.09995 8.50242 7.09995 8.83368C7.09977 9.16479 6.83145 9.43311 6.50034 9.43329H4.50034C4.16907 9.43329 3.89993 9.1649 3.89975 8.83368C3.89975 8.50231 4.16896 8.23309 4.50034 8.23309H6.50034ZM14.764 11.4977C14.7638 12.5654 13.8981 13.4304 12.8304 13.4304H3.16635C2.09886 13.4302 1.23391 12.5653 1.23373 11.4977V4.50165C1.23391 3.43416 2.09886 2.56921 3.16635 2.56903H12.8324C13.8975 2.56922 14.7631 3.43108 14.764 4.49774V11.4977ZM2.43295 5.90009H13.5638C13.5638 5.43285 13.5641 4.96581 13.5638 4.49872C13.5635 4.09589 13.2366 3.76844 12.8324 3.76825H3.16635C2.7616 3.76843 2.43313 4.0969 2.43295 4.50165V5.90009Z" fill="black"/>
</svg>
