<svg width="16" height="16" viewBox="0 0 16 16" fill="none" xmlns="http://www.w3.org/2000/svg">
<path d="M3.21516 3.88186C5.85766 1.23936 10.142 1.23946 12.7845 3.88186C15.3569 6.45422 15.4253 10.582 12.9896 13.2373C12.7656 13.4815 12.3861 13.4983 12.1419 13.2744C11.8979 13.0506 11.8812 12.671 12.1048 12.4268C14.1082 10.2429 14.0519 6.84651 11.9359 4.73049C9.76197 2.55673 6.23767 2.55662 4.0638 4.73049C1.94777 6.84652 1.89152 10.2429 3.89485 12.4268C4.11861 12.671 4.10185 13.0505 3.85774 13.2744C3.61354 13.4981 3.23398 13.4814 3.01009 13.2373C0.574528 10.582 0.642856 6.45417 3.21516 3.88186ZM5.4095 6.0762C5.64381 5.84188 6.02284 5.84188 6.25716 6.0762L8.42415 8.24221C8.65846 8.47653 8.65846 8.85653 8.42415 9.09084C8.18983 9.32516 7.80983 9.32516 7.57552 9.09084L5.4095 6.92385C5.17519 6.68954 5.17519 6.31051 5.4095 6.0762Z" fill="black"/>
</svg>
