<svg width="16" height="16" viewBox="0 0 16 16" fill="none" xmlns="http://www.w3.org/2000/svg">
<path d="M9.83335 6.66666C9.83335 7.67919 9.01255 8.49999 8.00002 8.49999C6.98749 8.49999 6.16669 7.67919 6.16669 6.66666C6.16669 5.65414 6.98749 4.83333 8.00002 4.83333C9.01255 4.83333 9.83335 5.65414 9.83335 6.66666Z" stroke="#1E252B" stroke-width="1.2" stroke-linejoin="round"/>
<path d="M12.8334 6.66666C12.8334 9.70313 10.1169 12.4555 8.75695 13.6432C8.31855 14.0261 7.68149 14.0261 7.24309 13.6432C5.88316 12.4555 3.16669 9.70313 3.16669 6.66666C3.16669 3.99729 5.33065 1.83333 8.00002 1.83333C10.6694 1.83333 12.8334 3.99729 12.8334 6.66666Z" stroke="#1E252B" stroke-width="1.2" stroke-linejoin="round"/>
</svg>
