<svg width="16" height="16" viewBox="0 0 16 16" fill="none" xmlns="http://www.w3.org/2000/svg">
<path fill-rule="evenodd" clip-rule="evenodd" d="M8.00004 2.33333C4.87043 2.33333 2.33337 4.87038 2.33337 7.99999C2.33337 11.1296 4.87043 13.6667 8.00004 13.6667C9.09511 13.6667 10.1162 13.3565 10.9821 12.8195C11.2168 12.674 11.525 12.7463 11.6706 12.9809C11.8161 13.2156 11.7438 13.5238 11.5092 13.6693C10.4896 14.3017 9.28671 14.6667 8.00004 14.6667C4.31814 14.6667 1.33337 11.6819 1.33337 7.99999C1.33337 4.31809 4.31814 1.33333 8.00004 1.33333C11.6819 1.33333 14.6667 4.31809 14.6667 7.99999C14.6667 8.73053 14.4871 9.51473 14.0519 10.1131C13.5978 10.7373 12.8837 11.1279 11.9358 11.0417C11.0747 10.9634 10.3483 10.4916 9.91224 9.82339C9.31264 10.7265 8.30831 11.2862 7.20704 11.1314C5.59742 10.9052 4.60761 9.26893 4.84199 7.60126C5.07637 5.93353 6.47885 4.6335 8.08844 4.85972C8.79864 4.95953 9.38811 5.3338 9.80511 5.86415L9.85364 5.52998C9.89331 5.25671 10.147 5.06735 10.4203 5.10704C10.6936 5.14673 10.8829 5.40044 10.8432 5.67371L10.4903 8.10353L10.4902 8.10426C10.3524 9.07166 11.053 9.95733 12.0263 10.0458C12.6081 10.0987 12.9868 9.87726 13.2432 9.52479C13.5184 9.14646 13.6667 8.58919 13.6667 7.99999C13.6667 4.87038 11.1296 2.33333 8.00004 2.33333ZM7.94931 5.84999C7.00664 5.71751 6.00781 6.49127 5.83225 7.7404C5.6567 8.98959 6.40357 10.0087 7.34617 10.1411C8.28884 10.2737 9.28771 9.49986 9.46324 8.25073C9.63877 7.00159 8.89191 5.98247 7.94931 5.84999Z" fill="black"/>
</svg>
