<svg width="16" height="16" viewBox="0 0 16 16" fill="none" xmlns="http://www.w3.org/2000/svg">
<path d="M1.2337 7.99969C1.23388 4.26272 4.26329 1.23309 8.00031 1.23309C8.33153 1.23327 8.59991 1.50242 8.59991 1.83368C8.59974 2.16479 8.33142 2.43311 8.00031 2.43329C4.92603 2.43329 2.4331 4.92546 2.43292 7.99969C2.43292 11.0741 4.92592 13.5671 8.00031 13.5671C11.0745 13.5669 13.5667 11.0739 13.5667 7.99969C13.5669 7.66858 13.8352 7.40026 14.1663 7.40009C14.4976 7.40009 14.7667 7.66847 14.7669 7.99969C14.7669 11.7367 11.7373 14.7661 8.00031 14.7663C4.26318 14.7663 1.2337 11.7368 1.2337 7.99969ZM9.46124 9.46161C9.69556 9.22729 10.0756 9.22729 10.3099 9.46161C10.5441 9.69593 10.5442 10.0759 10.3099 10.3102C9.03427 11.5856 6.9664 11.5855 5.69073 10.3102C5.45642 10.0759 5.45642 9.69592 5.69073 9.46161C5.92503 9.22742 6.3041 9.22742 6.53839 9.46161C7.3454 10.2686 8.65414 10.2684 9.46124 9.46161ZM6.26202 5.40497C6.73268 5.45275 7.09991 5.85042 7.09991 6.33368C7.09974 6.84899 6.68168 7.2663 6.16632 7.2663C5.68311 7.26613 5.28622 6.89909 5.23859 6.42841L5.2337 6.33368L5.23859 6.23798C5.28637 5.76744 5.68322 5.40025 6.16632 5.40009L6.26202 5.40497ZM9.92902 5.40497C10.3995 5.4529 10.7669 5.8505 10.7669 6.33368C10.7667 6.84902 10.3486 7.2663 9.83331 7.2663C9.34998 7.2663 8.95222 6.89926 8.9046 6.42841L8.89972 6.33368L8.9046 6.23798C8.95237 5.76728 9.3501 5.40009 9.83331 5.40009L9.92902 5.40497ZM12.0667 5.49969V3.93329H10.5003C10.169 3.93329 9.89989 3.6649 9.89972 3.33368C9.89972 3.00231 10.1689 2.73309 10.5003 2.73309H12.0667V1.16669C12.0667 0.835425 12.3351 0.567253 12.6663 0.567078C12.9977 0.567078 13.2669 0.835316 13.2669 1.16669V2.73309H14.8333C15.1647 2.73309 15.4329 3.00231 15.4329 3.33368C15.4327 3.6649 15.1646 3.93329 14.8333 3.93329H13.2669V5.49969C13.2669 5.83107 12.9977 6.10028 12.6663 6.10028C12.3351 6.10011 12.0667 5.83096 12.0667 5.49969Z" fill="black"/>
</svg>
