<svg width="16" height="16" viewBox="0 0 16 16" fill="none" xmlns="http://www.w3.org/2000/svg">
<path d="M1.23373 10.8333V3.83331C1.23373 2.76567 2.09875 1.8999 3.16635 1.89972H8.50034C8.83156 1.89989 9.09995 2.16904 9.09995 2.50031C9.09977 2.83142 8.83145 3.09974 8.50034 3.09991H3.16635C2.76149 3.10009 2.43295 3.42841 2.43295 3.83331V10.8333C2.43295 11.2382 2.76149 11.5665 3.16635 11.5667H5.76791C6.06543 11.5667 6.35335 11.6715 6.58139 11.8626L7.95834 13.0169C7.98277 13.0373 8.01844 13.0373 8.0433 13.0169L9.44272 11.8577C9.66988 11.6696 9.9556 11.5668 10.2503 11.5667H12.8333C13.2384 11.5667 13.5667 11.2383 13.5667 10.8333V8.16632C13.5669 7.83521 13.8352 7.56689 14.1664 7.56671C14.4976 7.56671 14.7668 7.8351 14.7669 8.16632V10.8333C14.7669 11.9011 13.9011 12.7669 12.8333 12.7669H10.2503C10.2349 12.767 10.22 12.772 10.2083 12.7816L8.80893 13.9407C8.33814 14.3307 7.65647 14.3287 7.18784 13.9359L5.81088 12.7825C5.79889 12.7725 5.78359 12.7669 5.76791 12.7669H3.16635C2.09876 12.7667 1.23373 11.901 1.23373 10.8333ZM14.2337 4.00031C14.2337 3.13506 13.5316 2.43292 12.6664 2.43292C11.8013 2.4331 11.0999 3.13517 11.0999 4.00031C11.1001 4.86529 11.8014 5.56654 12.6664 5.56671C13.5315 5.56671 14.2336 4.8654 14.2337 4.00031ZM15.433 4.00031C15.4328 5.52815 14.1942 6.76691 12.6664 6.76691C11.1386 6.76673 9.89993 5.52804 9.89975 4.00031C9.89975 2.47242 11.1385 1.23388 12.6664 1.2337C14.1943 1.2337 15.433 2.47231 15.433 4.00031Z" fill="black"/>
</svg>
