<svg width="16" height="16" viewBox="0 0 16 16" fill="none" xmlns="http://www.w3.org/2000/svg">
<path d="M1.23373 10.833V3.83299C1.23391 2.76549 2.09886 1.90055 3.16635 1.90037H8.50034C8.83156 1.90055 9.09995 2.16872 9.09995 2.49998C9.09995 2.83124 8.83156 3.09941 8.50034 3.09959H3.16635C2.7616 3.09976 2.43313 3.42824 2.43295 3.83299V10.833C2.43295 11.2379 2.76149 11.5662 3.16635 11.5664H5.76791C6.06536 11.5664 6.35337 11.6713 6.58139 11.8623L7.95834 13.0166C7.98283 13.0371 8.01839 13.0371 8.0433 13.0166L9.44272 11.8574C9.66986 11.6693 9.95567 11.5664 10.2503 11.5664H12.8333C13.2384 11.5664 13.5667 11.238 13.5667 10.833V8.16697C13.5667 7.83571 13.8351 7.56656 14.1664 7.56639C14.4977 7.56639 14.7669 7.8356 14.7669 8.16697V10.833C14.7669 11.9008 13.9011 12.7666 12.8333 12.7666H10.2503C10.2348 12.7666 10.2201 12.7725 10.2083 12.7822L8.80893 13.9404C8.33825 14.33 7.65635 14.329 7.18784 13.9365L5.81088 12.7822C5.79889 12.7722 5.78359 12.7666 5.76791 12.7666H3.16635C2.09876 12.7664 1.23373 11.9007 1.23373 10.833Z" fill="black"/>
<path d="M13.4937 2.7901L13.0291 1.58221C12.9714 1.43226 12.8273 1.33331 12.6667 1.33331C12.506 1.33331 12.3619 1.43226 12.3043 1.58221L11.8397 2.7901C11.772 2.96616 11.6329 3.10529 11.4568 3.17301L10.2489 3.63759C10.0989 3.69526 10 3.83932 10 3.99998C10 4.16064 10.0989 4.3047 10.2489 4.36237L11.4568 4.82695C11.6329 4.89467 11.772 5.0338 11.8397 5.20986L12.3043 6.41775C12.3619 6.5677 12.506 6.66665 12.6667 6.66665C12.8273 6.66665 12.9714 6.5677 13.0291 6.41775L13.4937 5.20986C13.5613 5.0338 13.7005 4.89467 13.8765 4.82695L15.0845 4.36237C15.2344 4.3047 15.3333 4.16064 15.3333 3.99998C15.3333 3.83932 15.2344 3.69526 15.0845 3.63759L13.8765 3.17301C13.7005 3.10529 13.5613 2.96616 13.4937 2.7901Z" fill="black"/>
</svg>
