<svg width="16" height="16" viewBox="0 0 16 16" fill="none" xmlns="http://www.w3.org/2000/svg">
<path d="M14.1666 8C14.1666 11.4057 11.4057 14.1667 7.99998 14.1667C4.59423 14.1667 1.83331 11.4057 1.83331 8C1.83331 4.59424 4.59423 1.83333 7.99998 1.83333M12.6666 1.16666V5.5M10.5 3.33333H14.8333M9.88578 9.8856C8.84438 10.927 7.15598 10.927 6.11457 9.8856M9.66665 6.33333H9.99998M5.99998 6.33333H6.33331M10.1666 6.33333C10.1666 6.51742 10.0174 6.66666 9.83331 6.66666C9.64925 6.66666 9.49998 6.51742 9.49998 6.33333C9.49998 6.14924 9.64925 6 9.83331 6C10.0174 6 10.1666 6.14924 10.1666 6.33333ZM6.49998 6.33333C6.49998 6.51742 6.35074 6.66666 6.16665 6.66666C5.98255 6.66666 5.83331 6.51742 5.83331 6.33333C5.83331 6.14924 5.98255 6 6.16665 6C6.35074 6 6.49998 6.14924 6.49998 6.33333Z" stroke="black" stroke-width="1.2" stroke-linecap="round" stroke-linejoin="round"/>
</svg>
