<svg width="16" height="16" viewBox="0 0 16 16" fill="none" xmlns="http://www.w3.org/2000/svg">
<path d="M6.83406 13.5H4.4653C3.67962 13.5 3.04986 12.8121 3.3224 12.0753C4.02474 10.1762 5.73998 8.83333 8.00073 8.83333C8.59713 8.83333 9.15553 8.92679 9.6674 9.09926M10.5 4.33333C10.5 5.71404 9.38071 6.83333 8 6.83333C6.61929 6.83333 5.5 5.71404 5.5 4.33333C5.5 2.95262 6.61929 1.83333 8 1.83333C9.38071 1.83333 10.5 2.95262 10.5 4.33333ZM9.16666 14.1667V13.5523C9.16666 13.1987 9.30713 12.8595 9.5572 12.6095L12.25 9.91666C12.5721 9.59453 13.0945 9.59453 13.4167 9.91666C13.7388 10.2389 13.7388 10.7612 13.4167 11.0833L10.7239 13.7761C10.4738 14.0262 10.1347 14.1667 9.78106 14.1667H9.16666Z" stroke="#1E252B" stroke-width="1.2" stroke-linecap="round" stroke-linejoin="round"/>
</svg>
