<svg width="16" height="16" viewBox="0 0 16 16" fill="none" xmlns="http://www.w3.org/2000/svg">
<path d="M8.00001 14.1667C11.4058 14.1667 14.1667 11.4058 14.1667 7.99999C14.1667 4.59424 11.4058 1.83333 8.00001 1.83333C4.59425 1.83333 1.83334 4.59424 1.83334 7.99999C1.83334 11.4058 4.59425 14.1667 8.00001 14.1667Z" stroke="black" stroke-width="1.2"/>
<path d="M10.7415 9.89953C10.7961 9.807 10.8166 9.69666 10.7947 9.59046C10.7728 9.4842 10.711 9.39113 10.622 9.3312C10.5331 9.27126 10.4236 9.24886 10.3169 9.26853C10.2103 9.28806 10.1157 9.34839 10.0505 9.43379C10.0005 9.49793 9.94912 9.5578 9.89432 9.61606C9.40639 10.1389 8.70732 10.4187 8.00232 10.4167C7.29732 10.4177 6.59812 10.137 6.10835 9.6148C6.05334 9.55653 6.00173 9.49673 5.95158 9.43273C5.88606 9.3476 5.79132 9.28753 5.68456 9.26826C5.57785 9.249 5.46844 9.27173 5.37968 9.33193C5.29092 9.39213 5.22936 9.48539 5.20782 9.59166C5.18624 9.69799 5.20702 9.80819 5.26194 9.90059C5.3182 9.99333 5.3779 10.0815 5.44368 10.1684C6.02864 10.9541 7.01946 11.4229 8.00159 11.4167C8.98359 11.4245 9.97666 10.9561 10.5603 10.1681C10.626 10.081 10.6855 9.99253 10.7415 9.89953Z" fill="black"/>
<path d="M7.16666 6.59999C7.16666 7.33639 6.71892 7.83333 6.16666 7.83333C5.61437 7.83333 5.16666 7.33639 5.16666 6.59999C5.16666 5.86361 5.61437 5.33333 6.16666 5.33333C6.71892 5.33333 7.16666 5.86361 7.16666 6.59999Z" fill="black"/>
<path d="M10.8333 6.59999C10.8333 7.33639 10.3856 7.83333 9.83332 7.83333C9.28106 7.83333 8.83332 7.33639 8.83332 6.59999C8.83332 5.86361 9.28106 5.33333 9.83332 5.33333C10.3856 5.33333 10.8333 5.86361 10.8333 6.59999Z" fill="black"/>
</svg>
