<svg width="16" height="16" viewBox="0 0 16 16" fill="none" xmlns="http://www.w3.org/2000/svg">
<path d="M12.0953 12.6105C11.2196 11.3312 9.77865 10.5 7.99998 10.5C6.22133 10.5 4.78035 11.3312 3.90463 12.6105M12.0953 12.6105C13.366 11.4809 14.1666 9.83393 14.1666 7.99999C14.1666 4.59424 11.4057 1.83333 7.99998 1.83333C4.59423 1.83333 1.83331 4.59424 1.83331 7.99999C1.83331 9.83393 2.63389 11.4809 3.90463 12.6105M12.0953 12.6105C11.0062 13.5786 9.57178 14.1667 7.99998 14.1667C6.42818 14.1667 4.99372 13.5786 3.90463 12.6105M10.1666 6.66666C10.1666 7.86326 9.19658 8.83333 7.99998 8.83333C6.80338 8.83333 5.83331 7.86326 5.83331 6.66666C5.83331 5.47004 6.80338 4.49999 7.99998 4.49999C9.19658 4.49999 10.1666 5.47004 10.1666 6.66666Z" stroke="#1E252B" stroke-width="1.2" stroke-linejoin="round"/>
</svg>
