<svg width="16" height="16" viewBox="0 0 16 16" fill="none" xmlns="http://www.w3.org/2000/svg">
<path d="M8 6.16667C9.01252 6.16667 9.83333 5.34586 9.83333 4.33333C9.83333 3.32081 9.01252 2.5 8 2.5C6.98748 2.5 6.16667 3.32081 6.16667 4.33333C6.16667 5.34586 6.98748 6.16667 8 6.16667ZM8 6.16667V10.75M8 10.75C8 12.2688 9.2312 13.5 10.75 13.5C12.2688 13.5 13.5 12.2688 13.5 10.75V8.66667L12 10M8 10.75C8 12.2688 6.7688 13.5 5.25 13.5C3.73122 13.5 2.5 12.2688 2.5 10.75V8.66667L4 10" stroke="#1E252B" stroke-width="1.2" stroke-linecap="square"/>
</svg>
