<svg width="16" height="16" viewBox="0 0 16 16" fill="none" xmlns="http://www.w3.org/2000/svg">
<path fill-rule="evenodd" clip-rule="evenodd" d="M8.00004 14.6666C11.6819 14.6666 14.6667 11.6818 14.6667 7.99998C14.6667 4.31808 11.6819 1.33331 8.00004 1.33331C4.31814 1.33331 1.33337 4.31808 1.33337 7.99998C1.33337 11.6818 4.31814 14.6666 8.00004 14.6666ZM8.50004 5.16665C8.50004 4.89051 8.27617 4.66665 8.00004 4.66665C7.72391 4.66665 7.50004 4.89051 7.50004 5.16665V7.99998C7.50004 8.13258 7.55271 8.25978 7.64651 8.35351L9.47984 10.1868C9.67511 10.3821 9.99164 10.3821 10.1869 10.1868C10.3822 9.99158 10.3822 9.67505 10.1869 9.47978L8.50004 7.79285V5.16665Z" fill="black"/>
</svg>
