<svg width="16" height="16" viewBox="0 0 16 16" fill="none" xmlns="http://www.w3.org/2000/svg">
<path d="M7.90233 8.83419C5.69024 8.87253 4.01451 10.2039 3.3224 12.0753C3.04986 12.8121 3.67962 13.5 4.4653 13.5H8.33406M7.90233 8.83419C7.935 8.83359 7.9678 8.83333 8.00073 8.83333C8.23546 8.83333 8.46433 8.84779 8.68673 8.87586M7.90233 8.83419C7.46893 8.84173 7.0564 8.89886 6.66746 8.99999M8.68673 8.87586C8.9092 8.90393 9.1252 8.94559 9.33433 8.99999M8.68673 8.87586C9.15473 8.93493 9.59433 9.05413 10.0007 9.22533M12.1667 10.1667V12.1667M12.1667 12.1667V14.1667M12.1667 12.1667H10.1667M12.1667 12.1667H14.1667M10.5 4.33333C10.5 5.71404 9.38073 6.83333 8 6.83333C6.61928 6.83333 5.5 5.71404 5.5 4.33333C5.5 2.95261 6.61928 1.83333 8 1.83333C9.38073 1.83333 10.5 2.95261 10.5 4.33333Z" stroke="#1E252B" stroke-width="1.2" stroke-linecap="round" stroke-linejoin="round"/>
</svg>
