<svg width="16" height="16" viewBox="0 0 16 16" fill="none" xmlns="http://www.w3.org/2000/svg">
<path d="M5.58333 10.4167L8.13947 12.9728C8.91173 13.745 10.234 13.3121 10.4001 12.2327L10.8931 9.02834C10.96 8.5934 11.2372 8.21947 11.6339 8.029L13.4703 7.1476C14.2989 6.74987 14.486 5.65268 13.8361 5.00276L10.9973 2.16389C10.3473 1.51396 9.25013 1.7011 8.8524 2.52973L7.97093 4.36606C7.78053 4.76278 7.4066 5.04 6.97167 5.10691L3.76728 5.5999C2.68784 5.76597 2.25495 7.08827 3.02721 7.86054L5.58333 10.4167ZM5.58333 10.4167L5.58823 10.4117M5.58333 10.4167L2.5 13.5" stroke="#1E252B" stroke-width="1.2" stroke-linecap="round" stroke-linejoin="round"/>
</svg>
