<svg width="16" height="16" viewBox="0 0 16 16" fill="none" xmlns="http://www.w3.org/2000/svg">
<path d="M4.66744 4.66666C4.66744 2.82572 6.15982 1.33333 8.00076 1.33333C9.84169 1.33333 11.3341 2.82572 11.3341 4.66666V7.66666C11.3341 9.5076 9.84169 11 8.00076 11C6.15982 11 4.66744 9.5076 4.66744 7.66666V4.66666Z" fill="black"/>
<path d="M3.87492 9.46646C3.76437 9.21339 3.46961 9.09786 3.21656 9.20846C2.96352 9.31899 2.84802 9.61379 2.95858 9.86679C3.74346 11.6632 5.46113 12.9604 7.50069 13.1442V14.1666C7.50069 14.4428 7.72456 14.6666 8.00069 14.6666C8.27682 14.6666 8.50069 14.4428 8.50069 14.1666V13.1442C10.5403 12.9604 12.258 11.6632 13.0428 9.86679C13.1534 9.61379 13.0379 9.31899 12.7848 9.20846C12.5318 9.09786 12.237 9.21339 12.1265 9.46646C11.4316 11.0568 9.84522 12.1666 8.00069 12.1666C6.1562 12.1666 4.56978 11.0568 3.87492 9.46646Z" fill="black"/>
</svg>
