<svg width="16" height="16" viewBox="0 0 16 16" fill="none" xmlns="http://www.w3.org/2000/svg">
<path fill-rule="evenodd" clip-rule="evenodd" d="M8.00004 1.33333C4.31814 1.33333 1.33337 4.31809 1.33337 7.99999C1.33337 11.6819 4.31814 14.6667 8.00004 14.6667C11.6819 14.6667 14.6667 11.6819 14.6667 7.99999C14.6667 4.31809 11.6819 1.33333 8.00004 1.33333ZM7.50004 5.66666C7.22391 5.66666 7.00004 5.89052 7.00004 6.16666C7.00004 6.4428 6.77617 6.66666 6.50004 6.66666C6.2239 6.66666 6.00004 6.4428 6.00004 6.16666C6.00004 5.33823 6.67164 4.66666 7.50004 4.66666H8.30584C9.24151 4.66666 10 5.42519 10 6.36087C10 6.92733 9.71691 7.45633 9.24564 7.77053L8.87111 8.02019C8.63931 8.17473 8.50004 8.43493 8.50004 8.71359V8.83333C8.50004 9.10946 8.27617 9.33333 8.00004 9.33333C7.72391 9.33333 7.50004 9.10946 7.50004 8.83333V8.71359C7.50004 8.10059 7.80637 7.52819 8.31644 7.18813L8.69091 6.93846C8.88404 6.80973 9.00004 6.59298 9.00004 6.36087C9.00004 5.97747 8.68924 5.66666 8.30584 5.66666H7.50004ZM8.00004 9.99999C7.63184 9.99999 7.33337 10.2985 7.33337 10.6667C7.33337 11.0349 7.63184 11.3333 8.00004 11.3333C8.36824 11.3333 8.66671 11.0349 8.66671 10.6667C8.66671 10.2985 8.36824 9.99999 8.00004 9.99999Z" fill="black"/>
</svg>
