<svg width="16" height="16" viewBox="0 0 16 16" fill="none" xmlns="http://www.w3.org/2000/svg">
<path d="M8.00136 12.1667V11.5667C7.90025 11.5667 7.80079 11.5922 7.71221 11.6409L8.00136 12.1667ZM4.66799 14H4.06799C4.06799 14.2121 4.18001 14.4085 4.36261 14.5165C4.54522 14.6244 4.77126 14.628 4.95714 14.5257L4.66799 14ZM4.66799 12.1667H5.26799C5.26799 11.8353 4.99936 11.5667 4.66799 11.5667V12.1667ZM3.16799 2.5V3.1H12.8347V2.5V1.9H3.16799V2.5ZM12.8347 2.5V3.1C13.2397 3.1 13.568 3.42834 13.568 3.83333H14.168H14.768C14.768 2.76557 13.9024 1.9 12.8347 1.9V2.5ZM14.168 3.83333H13.568V10.8333H14.168H14.768V3.83333H14.168ZM14.168 10.8333H13.568C13.568 11.2383 13.2397 11.5667 12.8347 11.5667V12.1667V12.7667C13.9024 12.7667 14.768 11.9011 14.768 10.8333H14.168ZM12.8347 12.1667V11.5667H8.00136V12.1667V12.7667H12.8347V12.1667ZM8.00136 12.1667L7.71221 11.6409L4.37884 13.4743L4.66799 14L4.95714 14.5257L8.2905 12.6924L8.00136 12.1667ZM4.66799 14H5.26799V12.1667H4.66799H4.06799V14H4.66799ZM4.66799 12.1667V11.5667H3.16799V12.1667V12.7667H4.66799V12.1667ZM3.16799 12.1667V11.5667C2.76297 11.5667 2.43466 11.2384 2.43466 10.8333H1.83466H1.23466C1.23466 11.9011 2.10024 12.7667 3.16799 12.7667V12.1667ZM1.83466 10.8333H2.43466V3.83333H1.83466H1.23466V10.8333H1.83466ZM1.83466 3.83333H2.43466C2.43466 3.42832 2.76298 3.1 3.16799 3.1V2.5V1.9C2.10024 1.9 1.23466 2.76558 1.23466 3.83333H1.83466ZM4.50002 7.33333H3.90002C3.90002 7.94083 4.39251 8.43333 5.00002 8.43333V7.83333V7.23333C5.05526 7.23333 5.10002 7.2781 5.10002 7.33333H4.50002ZM5.00002 7.83333V8.43333C5.60754 8.43333 6.10002 7.94083 6.10002 7.33333H5.50002H4.90002C4.90002 7.2781 4.94479 7.23333 5.00002 7.23333V7.83333ZM5.50002 7.33333H6.10002C6.10002 6.72583 5.60754 6.23333 5.00002 6.23333V6.83333V7.43333C4.94479 7.43333 4.90002 7.38857 4.90002 7.33333H5.50002ZM5.00002 6.83333V6.23333C4.39251 6.23333 3.90002 6.72583 3.90002 7.33333H4.50002H5.10002C5.10002 7.38857 5.05526 7.43333 5.00002 7.43333V6.83333ZM7.50002 7.33333H6.90002C6.90002 7.94084 7.39252 8.43333 8.00002 8.43333V7.83333V7.23333C8.05526 7.23333 8.10002 7.2781 8.10002 7.33333H7.50002ZM8.00002 7.83333V8.43333C8.60753 8.43333 9.10002 7.94084 9.10002 7.33333H8.50002H7.90002C7.90002 7.2781 7.94479 7.23333 8.00002 7.23333V7.83333ZM8.50002 7.33333H9.10002C9.10002 6.72583 8.60753 6.23333 8.00002 6.23333V6.83333V7.43333C7.94479 7.43333 7.90002 7.38857 7.90002 7.33333H8.50002ZM8.00002 6.83333V6.23333C7.39252 6.23333 6.90002 6.72583 6.90002 7.33333H7.50002H8.10002C8.10002 7.38857 8.05526 7.43333 8.00002 7.43333V6.83333ZM10.5 7.33333H9.90002C9.90002 7.94084 10.3925 8.43333 11 8.43333V7.83333V7.23333C11.0553 7.23333 11.1 7.2781 11.1 7.33333H10.5ZM11 7.83333V8.43333C11.6075 8.43333 12.1 7.94084 12.1 7.33333H11.5H10.9C10.9 7.2781 10.9448 7.23333 11 7.23333V7.83333ZM11.5 7.33333H12.1C12.1 6.72583 11.6075 6.23333 11 6.23333V6.83333V7.43333C10.9448 7.43333 10.9 7.38857 10.9 7.33333H11.5ZM11 6.83333V6.23333C10.3925 6.23333 9.90002 6.72583 9.90002 7.33333H10.5H11.1C11.1 7.38857 11.0553 7.43333 11 7.43333V6.83333Z" fill="black"/>
</svg>
