<svg width="16" height="16" viewBox="0 0 16 16" fill="none" xmlns="http://www.w3.org/2000/svg">
<path d="M10.5 4.5C10.5 5.88071 9.38074 7 8.00001 7C6.6193 7 5.50001 5.88071 5.50001 4.5C5.50001 3.11929 6.6193 2 8.00001 2C9.38074 2 10.5 3.11929 10.5 4.5Z" stroke="#1E252B" stroke-width="1.2"/>
<path d="M6.83334 10.8333C6.83334 12.2141 5.71406 13.3333 4.33334 13.3333C2.95263 13.3333 1.83334 12.2141 1.83334 10.8333C1.83334 9.4526 2.95263 8.33333 4.33334 8.33333C5.71406 8.33333 6.83334 9.4526 6.83334 10.8333Z" stroke="#1E252B" stroke-width="1.2"/>
<path d="M14.1667 10.8333C14.1667 12.2141 13.0474 13.3333 11.6667 13.3333C10.2859 13.3333 9.16668 12.2141 9.16668 10.8333C9.16668 9.4526 10.2859 8.33333 11.6667 8.33333C13.0474 8.33333 14.1667 9.4526 14.1667 10.8333Z" stroke="#1E252B" stroke-width="1.2"/>
</svg>
