<svg width="16" height="16" viewBox="0 0 16 16" fill="none" xmlns="http://www.w3.org/2000/svg">
<path d="M5.25201 3.47609L4.78317 3.3679C4.3867 3.27641 3.97106 3.39561 3.68334 3.68333C3.39563 3.97104 3.27642 4.38668 3.36792 4.78315L3.47611 5.25199C3.60082 5.79239 3.37798 6.35357 2.91652 6.66121L2.34644 7.04126C2.02588 7.25499 1.83334 7.61473 1.83334 7.99999C1.83334 8.38526 2.02588 8.74499 2.34644 8.95873L2.91652 9.33879C3.37798 9.64639 3.60082 10.2076 3.47611 10.748L3.36792 11.2169C3.27642 11.6133 3.39563 12.0289 3.68334 12.3167C3.97106 12.6044 4.3867 12.7236 4.78317 12.6321L5.25201 12.5239C5.79241 12.3992 6.35358 12.622 6.66122 13.0835L7.04128 13.6536C7.25501 13.9741 7.61474 14.1667 8.00001 14.1667C8.38528 14.1667 8.74501 13.9741 8.95874 13.6536L9.33881 13.0835C9.64641 12.622 10.2076 12.3992 10.748 12.5239L11.2169 12.6321C11.6133 12.7236 12.0289 12.6044 12.3167 12.3167C12.6044 12.0289 12.7236 11.6133 12.6321 11.2169L12.5239 10.748C12.3992 10.2076 12.622 9.64639 13.0835 9.33879L13.6536 8.95873C13.9741 8.74499 14.1667 8.38526 14.1667 7.99999C14.1667 7.61473 13.9741 7.25499 13.6536 7.04126L13.0835 6.66121C12.622 6.35357 12.3992 5.79239 12.5239 5.25199L12.6321 4.78315C12.7236 4.38668 12.6044 3.97104 12.3167 3.68333C12.0289 3.39561 11.6133 3.27641 11.2169 3.3679L10.748 3.47609C10.2076 3.60081 9.64641 3.37797 9.33881 2.91651L8.95874 2.34643C8.74501 2.02587 8.38528 1.83333 8.00001 1.83333C7.61474 1.83333 7.25501 2.02587 7.04128 2.34643L6.66122 2.91651C6.35358 3.37797 5.79241 3.60081 5.25201 3.47609Z" stroke="#1E252B" stroke-width="1.2" stroke-linejoin="round"/>
<path d="M9.83334 7.99999C9.83334 9.01253 9.01254 9.83333 8.00001 9.83333C6.98748 9.83333 6.16668 9.01253 6.16668 7.99999C6.16668 6.98746 6.98748 6.16666 8.00001 6.16666C9.01254 6.16666 9.83334 6.98746 9.83334 7.99999Z" stroke="#1E252B" stroke-width="1.2" stroke-linejoin="round"/>
</svg>
