<svg width="16" height="16" viewBox="0 0 16 16" fill="none" xmlns="http://www.w3.org/2000/svg">
<path d="M8.00001 3.16666C8.36821 3.16666 8.66668 2.86818 8.66668 2.49999C8.66668 2.13181 8.36821 1.83333 8.00001 1.83333C7.63181 1.83333 7.33334 2.13181 7.33334 2.49999C7.33334 2.86818 7.63181 3.16666 8.00001 3.16666Z" fill="#1E252B"/>
<path d="M8.00001 8.66666C8.36821 8.66666 8.66668 8.36819 8.66668 7.99999C8.66668 7.63179 8.36821 7.33333 8.00001 7.33333C7.63181 7.33333 7.33334 7.63179 7.33334 7.99999C7.33334 8.36819 7.63181 8.66666 8.00001 8.66666Z" fill="#1E252B"/>
<path d="M8.00001 14.1667C8.36821 14.1667 8.66668 13.8682 8.66668 13.5C8.66668 13.1318 8.36821 12.8333 8.00001 12.8333C7.63181 12.8333 7.33334 13.1318 7.33334 13.5C7.33334 13.8682 7.63181 14.1667 8.00001 14.1667Z" fill="#1E252B"/>
<path d="M8.00001 3.16666C8.36821 3.16666 8.66668 2.86818 8.66668 2.49999C8.66668 2.13181 8.36821 1.83333 8.00001 1.83333C7.63181 1.83333 7.33334 2.13181 7.33334 2.49999C7.33334 2.86818 7.63181 3.16666 8.00001 3.16666Z" stroke="#1E252B" stroke-width="1.2" stroke-linecap="round"/>
<path d="M8.00001 8.66666C8.36821 8.66666 8.66668 8.36819 8.66668 7.99999C8.66668 7.63179 8.36821 7.33333 8.00001 7.33333C7.63181 7.33333 7.33334 7.63179 7.33334 7.99999C7.33334 8.36819 7.63181 8.66666 8.00001 8.66666Z" stroke="#1E252B" stroke-width="1.2" stroke-linecap="round"/>
<path d="M8.00001 14.1667C8.36821 14.1667 8.66668 13.8682 8.66668 13.5C8.66668 13.1318 8.36821 12.8333 8.00001 12.8333C7.63181 12.8333 7.33334 13.1318 7.33334 13.5C7.33334 13.8682 7.63181 14.1667 8.00001 14.1667Z" stroke="#1E252B" stroke-width="1.2" stroke-linecap="round"/>
<path d="M8.00001 3.16666C8.36821 3.16666 8.66668 2.86818 8.66668 2.49999C8.66668 2.13181 8.36821 1.83333 8.00001 1.83333C7.63181 1.83333 7.33334 2.13181 7.33334 2.49999C7.33334 2.86818 7.63181 3.16666 8.00001 3.16666Z" stroke="#1E252B" stroke-width="1.2" stroke-linecap="round"/>
<path d="M8.00001 8.66666C8.36821 8.66666 8.66668 8.36819 8.66668 7.99999C8.66668 7.63179 8.36821 7.33333 8.00001 7.33333C7.63181 7.33333 7.33334 7.63179 7.33334 7.99999C7.33334 8.36819 7.63181 8.66666 8.00001 8.66666Z" stroke="#1E252B" stroke-width="1.2" stroke-linecap="round"/>
<path d="M8.00001 14.1667C8.36821 14.1667 8.66668 13.8682 8.66668 13.5C8.66668 13.1318 8.36821 12.8333 8.00001 12.8333C7.63181 12.8333 7.33334 13.1318 7.33334 13.5C7.33334 13.8682 7.63181 14.1667 8.00001 14.1667Z" stroke="#1E252B" stroke-width="1.2" stroke-linecap="round"/>
</svg>
