<svg width="16" height="16" viewBox="0 0 16 16" fill="none" xmlns="http://www.w3.org/2000/svg">
<path d="M2.5 8H5.16667M2.5 8V5.25M2.5 8V10.75M5.16667 8H10.8333M5.16667 8V10.75M5.16667 8V5.25M2.5 5.25V3.83333C2.5 3.09695 3.09695 2.5 3.83333 2.5H5.16667M2.5 5.25H5.16667M2.5 10.75V12.1667C2.5 12.9031 3.09695 13.5 3.83333 13.5H5.16667M2.5 10.75H5.16667M10.8333 8H13.5M10.8333 8V11.0555M10.8333 8V5.25M5.16667 10.75V13.5M5.16667 5.25V2.5M13.5 8V5.25M13.5 8V11.0555M10.8333 11.0555V13.5M10.8333 11.0555H13.5M10.8333 5.25V2.5M10.8333 5.25H13.5M13.5 5.25V3.83333C13.5 3.09695 12.9031 2.5 12.1667 2.5H10.8333M13.5 11.0555V12.1667C13.5 12.9031 12.9031 13.5 12.1667 13.5H10.8333M10.8333 13.5H5.16667M10.8333 2.5H5.16667" stroke="black" stroke-width="1.2" stroke-linecap="square" stroke-linejoin="round"/>
</svg>
