<svg width="16" height="16" viewBox="0 0 16 16" fill="none" xmlns="http://www.w3.org/2000/svg">
<path d="M6.27614 8.9428L6.7004 8.51854L6.70039 8.51853L6.27614 8.9428ZM4.39053 8.9428L3.96627 8.51853L3.96626 8.51854L4.39053 8.9428ZM10.8333 13.5L11.2576 13.0757L6.7004 8.51854L6.27614 8.9428L5.85188 9.36706L10.4091 13.9243L10.8333 13.5ZM6.27614 8.9428L6.70039 8.51853C5.94539 7.76356 4.72128 7.76356 3.96627 8.51853L4.39053 8.9428L4.81478 9.36707C5.10116 9.08071 5.56551 9.08071 5.85189 9.36707L6.27614 8.9428ZM4.39053 8.9428L3.96626 8.51854L2.07574 10.4091L2.5 10.8333L2.92426 11.2576L4.81479 9.36706L4.39053 8.9428ZM10.8333 13.5V14.1H12.1667V13.5V12.9H10.8333V13.5ZM12.1667 13.5V14.1C13.2344 14.1 14.1 13.2344 14.1 12.1667H13.5H12.9C12.9 12.5717 12.5717 12.9 12.1667 12.9V13.5ZM13.5 12.1667H14.1V3.83333H13.5H12.9V12.1667H13.5ZM13.5 3.83333H14.1C14.1 2.76559 13.2344 1.9 12.1667 1.9V2.5V3.1C12.5717 3.1 12.9 3.42832 12.9 3.83333H13.5ZM12.1667 2.5V1.9H3.83333V2.5V3.1H12.1667V2.5ZM3.83333 2.5V1.9C2.76558 1.9 1.9 2.76558 1.9 3.83333H2.5H3.1C3.1 3.42832 3.42832 3.1 3.83333 3.1V2.5ZM2.5 3.83333H1.9V10.8333H2.5H3.1V3.83333H2.5ZM10.8333 13.5V12.9H3.83333V13.5V14.1H10.8333V13.5ZM3.83333 13.5V12.9C3.42832 12.9 3.1 12.5717 3.1 12.1667H2.5H1.9C1.9 13.2344 2.76559 14.1 3.83333 14.1V13.5ZM2.5 12.1667H3.1V10.8333H2.5H1.9V12.1667H2.5ZM9.66667 7.66667V8.26667C10.7344 8.26667 11.6 7.4011 11.6 6.33333H11H10.4C10.4 6.73836 10.0717 7.06667 9.66667 7.06667V7.66667ZM11 6.33333H11.6C11.6 5.26559 10.7344 4.4 9.66667 4.4V5V5.6C10.0717 5.6 10.4 5.92832 10.4 6.33333H11ZM9.66667 5V4.4C8.59889 4.4 7.73333 5.26559 7.73333 6.33333H8.33333H8.93333C8.93333 5.92832 9.26164 5.6 9.66667 5.6V5ZM8.33333 6.33333H7.73333C7.73333 7.4011 8.5989 8.26667 9.66667 8.26667V7.66667V7.06667C9.26164 7.06667 8.93333 6.73836 8.93333 6.33333H8.33333Z" fill="#1E252B"/>
</svg>
