<svg width="16" height="16" viewBox="0 0 16 16" fill="none" xmlns="http://www.w3.org/2000/svg">
<path d="M5 3.83333C5 3.189 5.52233 2.66666 6.16667 2.66666C6.811 2.66666 7.33333 3.189 7.33333 3.83333C7.33333 4.47766 6.811 5 6.16667 5C5.52233 5 5 4.47766 5 3.83333Z" fill="black"/>
<path d="M8.66667 3.83333C8.66667 3.189 9.189 2.66666 9.83333 2.66666C10.4777 2.66666 11 3.189 11 3.83333C11 4.47766 10.4777 5 9.83333 5C9.189 5 8.66667 4.47766 8.66667 3.83333Z" fill="black"/>
<path d="M5 12.1667C5 11.5223 5.52233 11 6.16667 11C6.811 11 7.33333 11.5223 7.33333 12.1667C7.33333 12.811 6.811 13.3333 6.16667 13.3333C5.52233 13.3333 5 12.811 5 12.1667Z" fill="black"/>
<path d="M8.66667 12.1667C8.66667 11.5223 9.189 11 9.83333 11C10.4777 11 11 11.5223 11 12.1667C11 12.811 10.4777 13.3333 9.83333 13.3333C9.189 13.3333 8.66667 12.811 8.66667 12.1667Z" fill="black"/>
<path d="M5 7.93333C5 7.289 5.52233 6.76666 6.16667 6.76666C6.811 6.76666 7.33333 7.289 7.33333 7.93333V8C7.33333 8.64433 6.811 9.16666 6.16667 9.16666C5.52233 9.16666 5 8.64433 5 8V7.93333Z" fill="black"/>
<path d="M8.66667 7.93333C8.66667 7.289 9.189 6.76666 9.83333 6.76666C10.4777 6.76666 11 7.289 11 7.93333V8C11 8.64433 10.4777 9.16666 9.83333 9.16666C9.189 9.16666 8.66667 8.64433 8.66667 8V7.93333Z" fill="black"/>
</svg>
