<svg width="16" height="16" viewBox="0 0 16 16" fill="none" xmlns="http://www.w3.org/2000/svg">
<path d="M10.8037 11.4388C10.8037 10.6323 10.1489 9.97691 9.33986 9.97691C8.53082 9.97692 7.87599 10.6323 7.87599 11.4388C7.87618 12.2453 8.53093 12.8998 9.33986 12.8998C10.1488 12.8998 10.8035 12.2453 10.8037 11.4388ZM3.12208 4.09312C3.32342 4.0198 3.54868 4.05999 3.7129 4.19762L7.36427 7.25816C7.52844 7.39592 7.60653 7.61056 7.56935 7.82164C7.53213 8.03284 7.38516 8.20833 7.18361 8.2816L2.70509 9.90953C2.50365 9.98276 2.27843 9.94286 2.11427 9.80504C1.95021 9.66721 1.87194 9.45258 1.90919 9.24156L2.73634 4.55308L2.75587 4.47594C2.81166 4.29998 2.94588 4.15732 3.12208 4.09312ZM3.2715 8.42613L5.79591 7.50816L3.73829 5.78355L3.2715 8.42613ZM8.76173 2.82164C8.94288 2.14617 9.63702 1.74533 10.3125 1.92613L13.0117 2.64879C13.6876 2.82991 14.0884 3.52481 13.9072 4.20055L13.1846 6.89488C13.0034 7.57013 12.3092 7.97101 11.6338 7.79039L8.93458 7.06773C8.25853 6.88677 7.85784 6.19183 8.03907 5.51597L8.76173 2.82164ZM10.002 3.08531C9.9665 3.0759 9.9305 3.09686 9.92091 3.13219L9.19728 5.8275C9.18805 5.86299 9.20976 5.89909 9.24513 5.90855L11.9434 6.63121C11.9788 6.6407 12.0157 6.61977 12.0254 6.58433L12.7481 3.88902C12.7575 3.85349 12.7366 3.81751 12.7012 3.80797L10.002 3.08531ZM12.0039 11.4388C12.0037 12.9093 10.8103 14.1 9.33986 14.1C7.86945 14.0999 6.67599 12.9093 6.67579 11.4388C6.67579 9.96831 7.86932 8.77673 9.33986 8.77672C10.8104 8.77672 12.0039 9.9683 12.0039 11.4388Z" fill="black"/>
</svg>
