<svg width="16" height="16" viewBox="0 0 16 16" fill="none" xmlns="http://www.w3.org/2000/svg">
<path fill-rule="evenodd" clip-rule="evenodd" d="M8.00004 14.6667C11.6819 14.6667 14.6667 11.6819 14.6667 7.99999C14.6667 4.31809 11.6819 1.33333 8.00004 1.33333C4.31814 1.33333 1.33337 4.31809 1.33337 7.99999C1.33337 11.6819 4.31814 14.6667 8.00004 14.6667ZM8.50004 5.16666C8.50004 4.89052 8.27617 4.66666 8.00004 4.66666C7.72391 4.66666 7.50004 4.89052 7.50004 5.16666V7.99999C7.50004 8.13259 7.55271 8.25979 7.64651 8.35353L9.47984 10.1869C9.67511 10.3821 9.99164 10.3821 10.1869 10.1869C10.3822 9.99159 10.3822 9.67506 10.1869 9.47979L8.50004 7.79286V5.16666Z" fill="black"/>
</svg>
