<svg width="16" height="16" viewBox="0 0 16 16" fill="none" xmlns="http://www.w3.org/2000/svg">
<path d="M10.6667 11.5C10.6667 12.9727 9.47273 14.1667 8 14.1667C6.52724 14.1667 5.33333 12.9727 5.33333 11.5M13.5 10.8294C13.5 11.1997 13.1997 11.5 12.8294 11.5H3.17062C2.80025 11.5 2.5 11.1997 2.5 10.8294C2.5 10.7225 2.52557 10.6171 2.57457 10.5221L3.39922 8.92273C3.48623 8.754 3.53621 8.5686 3.54578 8.37893L3.66901 5.93931C3.7844 3.63921 5.68924 1.83333 8 1.83333C10.3107 1.83333 12.2156 3.63921 12.331 5.93931L12.4542 8.37893C12.4638 8.5686 12.5137 8.754 12.6008 8.92273L13.4254 10.5221C13.4744 10.6171 13.5 10.7225 13.5 10.8294Z" stroke="#1E252B" stroke-width="1.2" stroke-linecap="round" stroke-linejoin="round"/>
</svg>
