<svg width="16" height="16" viewBox="0 0 16 16" fill="none" xmlns="http://www.w3.org/2000/svg">
<path d="M8.00001 3.16665C8.36821 3.16665 8.66668 2.86817 8.66668 2.49998C8.66668 2.13179 8.36821 1.83331 8.00001 1.83331C7.63181 1.83331 7.33334 2.13179 7.33334 2.49998C7.33334 2.86817 7.63181 3.16665 8.00001 3.16665Z" fill="black"/>
<path d="M8.00001 8.66665C8.36821 8.66665 8.66668 8.36818 8.66668 7.99998C8.66668 7.63178 8.36821 7.33331 8.00001 7.33331C7.63181 7.33331 7.33334 7.63178 7.33334 7.99998C7.33334 8.36818 7.63181 8.66665 8.00001 8.66665Z" fill="black"/>
<path d="M8.00001 14.1666C8.36821 14.1666 8.66668 13.8682 8.66668 13.5C8.66668 13.1318 8.36821 12.8333 8.00001 12.8333C7.63181 12.8333 7.33334 13.1318 7.33334 13.5C7.33334 13.8682 7.63181 14.1666 8.00001 14.1666Z" fill="black"/>
<path d="M8.06674 13.5003C8.06674 13.4636 8.03702 13.4331 8.00034 13.4329C7.96351 13.4329 7.93295 13.4635 7.93295 13.5003C7.93313 13.537 7.96361 13.5667 8.00034 13.5667C8.03691 13.5665 8.06657 13.5369 8.06674 13.5003ZM8.06674 8.00031C8.06674 7.96358 8.03702 7.9331 8.00034 7.93292C7.96351 7.93292 7.93295 7.96348 7.93295 8.00031C7.93313 8.03699 7.96361 8.06671 8.00034 8.06671C8.03691 8.06654 8.06657 8.03688 8.06674 8.00031ZM8.06674 2.50031C8.06674 2.46359 8.03701 2.4331 8.00034 2.43292C7.96351 2.43292 7.93295 2.46348 7.93295 2.50031C7.93313 2.53698 7.96362 2.56671 8.00034 2.56671C8.0369 2.56654 8.06657 2.53687 8.06674 2.50031ZM9.26694 13.5003C9.26676 14.1996 8.69965 14.7667 8.00034 14.7669C7.30087 14.7669 6.73391 14.1997 6.73373 13.5003C6.73373 12.8007 7.30076 12.2337 8.00034 12.2337C8.69976 12.2339 9.26694 12.8008 9.26694 13.5003ZM9.26694 8.00031C9.26676 8.69962 8.69965 9.26673 8.00034 9.26691C7.30087 9.26691 6.73391 8.69973 6.73373 8.00031C6.73373 7.30073 7.30076 6.7337 8.00034 6.7337C8.69976 6.73388 9.26694 7.30084 9.26694 8.00031ZM9.26694 2.50031C9.26676 3.1996 8.69966 3.76673 8.00034 3.76691C7.30087 3.76691 6.73391 3.19971 6.73373 2.50031C6.73373 1.80076 7.30076 1.2337 8.00034 1.2337C8.69976 1.23388 9.26694 1.80086 9.26694 2.50031Z" fill="black"/>
</svg>
