<svg width="16" height="16" viewBox="0 0 16 16" fill="none" xmlns="http://www.w3.org/2000/svg">
<path fill-rule="evenodd" clip-rule="evenodd" d="M8.00004 1.33333C11.6819 1.33333 14.6667 4.31809 14.6667 7.99999C14.6667 11.6819 11.6819 14.6667 8.00004 14.6667C4.31814 14.6667 1.33337 11.6819 1.33337 7.99999C1.33337 4.31809 4.31814 1.33333 8.00004 1.33333ZM8.00004 9.66666C7.63184 9.66666 7.33337 9.96513 7.33337 10.3333C7.33345 10.7014 7.63189 11 8.00004 11C8.3682 11 8.66663 10.7014 8.66671 10.3333C8.66671 9.96513 8.36824 9.66666 8.00004 9.66666ZM8.00004 5.33333C7.72391 5.33333 7.50004 5.55718 7.50004 5.83333V8.49999C7.50011 8.77607 7.72395 8.99999 8.00004 8.99999C8.27613 8.99999 8.49997 8.77607 8.50004 8.49999V5.83333C8.50004 5.55718 8.27617 5.33333 8.00004 5.33333Z" fill="black"/>
</svg>
