<svg width="16" height="16" viewBox="0 0 16 16" fill="none" xmlns="http://www.w3.org/2000/svg">
<path d="M8.00002 5.16667C8.00002 4.0621 8.89542 3.16667 10 3.16667H13.8334C14.3856 3.16667 14.8334 3.61438 14.8334 4.16667V11.8333C14.8334 12.3856 14.3856 12.8333 13.8334 12.8333H10.1847C9.73109 12.8333 9.28642 12.9428 8.90055 13.1813C8.51469 13.4197 8.20289 13.7609 8.00002 14.1667M8.00002 5.16667C8.00002 4.0621 7.10462 3.16667 6.00002 3.16667H2.16669C1.6144 3.16667 1.16669 3.61438 1.16669 4.16667V11.8333C1.16669 12.3856 1.6144 12.8333 2.16669 12.8333H5.81535C6.26896 12.8333 6.71362 12.9428 7.09949 13.1813C7.48535 13.4197 7.79715 13.7609 8.00002 14.1667M8.00002 5.16667V14.1667" stroke="#1E252B" stroke-width="1.2" stroke-linecap="round" stroke-linejoin="round"/>
</svg>
