<svg width="16" height="16" viewBox="0 0 16 16" fill="none" xmlns="http://www.w3.org/2000/svg">
<path d="M8.50001 2.5H3.16668C2.4303 2.5 1.83334 3.09695 1.83334 3.83333V10.8333C1.83334 11.5697 2.4303 12.1667 3.16668 12.1667H5.76789C5.92451 12.1667 6.07613 12.2218 6.19616 12.3224L7.57288 13.4765C7.81948 13.6832 8.17861 13.6842 8.42648 13.4789L9.82534 12.3199C9.94488 12.2209 10.0953 12.1667 10.2506 12.1667H12.8333C13.5697 12.1667 14.1667 11.5697 14.1667 10.8333V8.16667M14.8333 4C14.8333 5.19662 13.8633 6.16667 12.6667 6.16667C11.4701 6.16667 10.5 5.19662 10.5 4C10.5 2.80338 11.4701 1.83333 12.6667 1.83333C13.8633 1.83333 14.8333 2.80338 14.8333 4Z" stroke="#1E252B" stroke-width="1.2" stroke-linecap="round"/>
</svg>
