<svg width="71" height="42" viewBox="0 0 71 42" fill="none" xmlns="http://www.w3.org/2000/svg">
<g clip-path="url(#clip0_2721_21)">
<path fill-rule="evenodd" clip-rule="evenodd" d="M0.288923 17.356L8.78493 29.1059C8.9176 29.2897 9.08964 29.4389 9.28741 29.5417C9.48519 29.6445 9.70328 29.698 9.9244 29.698C10.1455 29.698 10.3636 29.6445 10.5614 29.5417C10.7592 29.4389 10.9312 29.2897 11.0639 29.1059L18.5303 18.7796C19.2026 17.8491 18.6284 16.5153 17.5129 16.4155L1.55048 14.9923C0.322701 14.8828 -0.450921 16.3334 0.288923 17.356Z" fill="#005FFF"/>
<path fill-rule="evenodd" clip-rule="evenodd" d="M0.288923 17.356L8.78493 29.1059C8.9176 29.2897 9.08964 29.4389 9.28741 29.5417C9.48519 29.6445 9.70328 29.698 9.9244 29.698C10.1455 29.698 10.3636 29.6445 10.5614 29.5417C10.7592 29.4389 10.9312 29.2897 11.0639 29.1059L18.5303 18.7796C19.2026 17.8491 18.6284 16.5153 17.5129 16.4155L1.55048 14.9923C0.322701 14.8828 -0.450921 16.3334 0.288923 17.356Z" fill="url(#paint0_linear_2721_21)"/>
<path fill-rule="evenodd" clip-rule="evenodd" d="M53.476 17.3114L38.0271 38.6771C37.3219 39.6528 37.9917 41.0455 39.1666 41.0455H52.6437C52.928 41.0455 53.2084 40.9767 53.4627 40.8446C53.717 40.7124 53.9382 40.5206 54.1088 40.2842L70.6539 17.4045C71.3995 16.3738 70.6084 14.9144 69.3737 15.0425L54.7599 16.5608C54.5075 16.5867 54.2631 16.6668 54.0421 16.796C53.8211 16.9252 53.6283 17.1007 53.476 17.3114Z" fill="#005FFF"/>
<path fill-rule="evenodd" clip-rule="evenodd" d="M53.476 17.3114L38.0271 38.6771C37.3219 39.6528 37.9917 41.0455 39.1666 41.0455H52.6437C52.928 41.0455 53.2084 40.9767 53.4627 40.8446C53.717 40.7124 53.9382 40.5206 54.1088 40.2842L70.6539 17.4045C71.3995 16.3738 70.6084 14.9144 69.3737 15.0425L54.7599 16.5608C54.5075 16.5867 54.2631 16.6668 54.0421 16.796C53.8211 16.9252 53.6283 17.1007 53.476 17.3114Z" fill="url(#paint1_linear_2721_21)"/>
<path fill-rule="evenodd" clip-rule="evenodd" d="M49.2139 17.488L32.6667 40.3745C32.4951 40.6123 32.2723 40.805 32.0161 40.9372C31.7599 41.0694 31.4775 41.1374 31.1915 41.1358L18.324 41.0512C18.0422 41.0495 17.7647 40.9802 17.5129 40.8489C17.2612 40.7175 17.0419 40.5275 16.8723 40.2937L12.8105 34.6994C12.5711 34.3697 12.4413 33.9681 12.4409 33.555C12.4405 33.142 12.5693 32.74 12.8081 32.4097L35.6944 0.757889C35.8644 0.522778 36.0846 0.331807 36.3375 0.199965C36.5905 0.0681237 36.8694 -0.00100102 37.1524 -0.00198444C37.4353 -0.00296787 37.7147 0.0642162 37.9685 0.194297C38.2223 0.324377 38.4437 0.513815 38.6152 0.74774L49.2058 15.1899C49.448 15.5197 49.5798 15.9227 49.5813 16.3375C49.5828 16.7524 49.4538 17.1564 49.2139 17.488Z" fill="#005FFF"/>
<path fill-rule="evenodd" clip-rule="evenodd" d="M49.2139 17.488L32.6667 40.3745C32.4951 40.6123 32.2723 40.805 32.0161 40.9372C31.7599 41.0694 31.4775 41.1374 31.1915 41.1358L18.324 41.0512C18.0422 41.0495 17.7647 40.9802 17.5129 40.8489C17.2612 40.7175 17.0419 40.5275 16.8723 40.2937L12.8105 34.6994C12.5711 34.3697 12.4413 33.9681 12.4409 33.555C12.4405 33.142 12.5693 32.74 12.8081 32.4097L35.6944 0.757889C35.8644 0.522778 36.0846 0.331807 36.3375 0.199965C36.5905 0.0681237 36.8694 -0.00100102 37.1524 -0.00198444C37.4353 -0.00296787 37.7147 0.0642162 37.9685 0.194297C38.2223 0.324377 38.4437 0.513815 38.6152 0.74774L49.2058 15.1899C49.448 15.5197 49.5798 15.9227 49.5813 16.3375C49.5828 16.7524 49.4538 17.1564 49.2139 17.488Z" fill="url(#paint2_linear_2721_21)"/>
</g>
<defs>
<linearGradient id="paint0_linear_2721_21" x1="-72.1127" y1="-54.2092" x2="-93.4209" y2="-13.1566" gradientUnits="userSpaceOnUse">
<stop offset="0.177786" stop-color="#B38AF8"/>
<stop offset="0.563822" stop-color="#005FFF"/>
<stop offset="1" stop-color="#00ECBB"/>
</linearGradient>
<linearGradient id="paint1_linear_2721_21" x1="-89.502" y1="-107.308" x2="-130.257" y2="-29.1474" gradientUnits="userSpaceOnUse">
<stop offset="0.177786" stop-color="#B38AF8"/>
<stop offset="0.563822" stop-color="#005FFF"/>
<stop offset="1" stop-color="#00ECBB"/>
</linearGradient>
<linearGradient id="paint2_linear_2721_21" x1="-129.884" y1="-193.494" x2="-204.068" y2="-96.5124" gradientUnits="userSpaceOnUse">
<stop offset="0.177786" stop-color="#B38AF8"/>
<stop offset="0.563822" stop-color="#005FFF"/>
<stop offset="1" stop-color="#00ECBB"/>
</linearGradient>
<clipPath id="clip0_2721_21">
<rect width="70.9437" height="41.1345" fill="white"/>
</clipPath>
</defs>
</svg>
