<svg width="12" height="12" viewBox="0 0 12 12" fill="none" xmlns="http://www.w3.org/2000/svg">
<path d="M1.27539 6.75C1.27539 6.41863 1.54363 6.15039 1.875 6.15039C2.20637 6.15039 2.47461 6.41863 2.47461 6.75V9.15039H9.52539V6.75C9.52539 6.41863 9.79363 6.15039 10.125 6.15039C10.4564 6.15039 10.7246 6.41863 10.7246 6.75V9.75C10.7246 10.0814 10.4564 10.3496 10.125 10.3496H1.875C1.54363 10.3496 1.27539 10.0814 1.27539 9.75V6.75ZM5.40039 1.5C5.40039 1.16863 5.66863 0.900391 6 0.900391C6.33137 0.900391 6.59961 1.16863 6.59961 1.5V5.30273L7.45117 4.45117C7.68549 4.21686 8.06451 4.21686 8.29883 4.45117C8.53314 4.68549 8.53314 5.06451 8.29883 5.29883L6.42383 7.17383C6.18951 7.40814 5.81049 7.40814 5.57617 7.17383L3.70117 5.29883C3.46686 5.06451 3.46686 4.68549 3.70117 4.45117C3.93549 4.21686 4.31451 4.21686 4.54883 4.45117L5.40039 5.30273V1.5Z" fill="black"/>
</svg>
