<svg width="12" height="12" viewBox="0 0 12 12" fill="none" xmlns="http://www.w3.org/2000/svg">
<path d="M11.5927 5.84813C11.5762 5.81109 11.1792 4.93031 10.2966 4.04766C9.12046 2.87156 7.635 2.25 6 2.25C4.365 2.25 2.87953 2.87156 1.70343 4.04766C0.820777 4.93031 0.421871 5.8125 0.407339 5.84813C0.386017 5.89608 0.375 5.94798 0.375 6.00047C0.375 6.05295 0.386017 6.10485 0.407339 6.15281C0.423746 6.18984 0.820777 7.07016 1.70343 7.95281C2.87953 9.12844 4.365 9.75 6 9.75C7.635 9.75 9.12046 9.12844 10.2966 7.95281C11.1792 7.07016 11.5762 6.18984 11.5927 6.15281C11.614 6.10485 11.625 6.05295 11.625 6.00047C11.625 5.94798 11.614 5.89608 11.5927 5.84813ZM6 7.875C5.62916 7.875 5.26664 7.76503 4.9583 7.55901C4.64996 7.35298 4.40964 7.06014 4.26772 6.71753C4.12581 6.37492 4.08868 5.99792 4.16102 5.63421C4.23337 5.27049 4.41195 4.9364 4.67417 4.67417C4.93639 4.41195 5.27049 4.23337 5.6342 4.16103C5.99791 4.08868 6.37492 4.12581 6.71753 4.26773C7.06014 4.40964 7.35297 4.64996 7.559 4.95831C7.76503 5.26665 7.875 5.62916 7.875 6C7.875 6.49728 7.67745 6.97419 7.32582 7.32583C6.97419 7.67746 6.49728 7.875 6 7.875Z" fill="black"/>
</svg>
