<svg width="12" height="12" viewBox="0 0 12 12" fill="none" xmlns="http://www.w3.org/2000/svg">
<path d="M9.90039 5.8125C9.90039 5.32497 9.80376 4.84202 9.61719 4.3916C9.43062 3.94127 9.15718 3.53218 8.8125 3.1875C8.46782 2.84282 8.05873 2.56938 7.6084 2.38281C7.15798 2.19624 6.67503 2.09961 6.1875 2.09961C5.20288 2.09961 4.25873 2.49127 3.5625 3.1875C2.86627 3.88373 2.47461 4.82788 2.47461 5.8125V9.52539H6.1875C6.67503 9.52539 7.15798 9.42876 7.6084 9.24219C8.05873 9.05562 8.46782 8.78218 8.8125 8.4375C9.15718 8.09282 9.43062 7.68373 9.61719 7.2334C9.80376 6.78298 9.90039 6.30003 9.90039 5.8125ZM7.6875 6.15039C8.01887 6.15039 8.28711 6.41863 8.28711 6.75C8.28711 7.08137 8.01887 7.34961 7.6875 7.34961H4.5C4.16863 7.34961 3.90039 7.08137 3.90039 6.75C3.90039 6.41863 4.16863 6.15039 4.5 6.15039H7.6875ZM7.6875 4.65039C8.01887 4.65039 8.28711 4.91863 8.28711 5.25C8.28711 5.58137 8.01887 5.84961 7.6875 5.84961H4.5C4.16863 5.84961 3.90039 5.58137 3.90039 5.25C3.90039 4.91863 4.16863 4.65039 4.5 4.65039H7.6875ZM11.0996 5.8125C11.0996 6.45762 10.9725 7.09637 10.7256 7.69238C10.4787 8.28835 10.1173 8.83 9.66113 9.28613C9.205 9.74227 8.66335 10.1037 8.06738 10.3506C7.47137 10.5975 6.83262 10.7246 6.1875 10.7246H2.25C1.99141 10.7246 1.7434 10.6223 1.56055 10.4395C1.3777 10.2566 1.27539 10.0086 1.27539 9.75V5.8125C1.27539 4.50962 1.79259 3.26014 2.71387 2.33887C3.63514 1.41759 4.88462 0.900391 6.1875 0.900391C6.83262 0.900391 7.47137 1.02754 8.06738 1.27441C8.66335 1.52129 9.205 1.88273 9.66113 2.33887C10.1173 2.795 10.4787 3.33665 10.7256 3.93262C10.9725 4.52863 11.0996 5.16738 11.0996 5.8125Z" fill="black"/>
</svg>
