<svg width="16" height="16" viewBox="0 0 16 16" fill="none" xmlns="http://www.w3.org/2000/svg">
<path d="M1.75 9C1.75 8.58579 2.08579 8.25 2.5 8.25C2.91421 8.25 3.25 8.58579 3.25 9V12.25H12.75V9C12.75 8.58579 13.0858 8.25 13.5 8.25C13.9142 8.25 14.25 8.58579 14.25 9V13C14.25 13.4142 13.9142 13.75 13.5 13.75H2.5C2.08579 13.75 1.75 13.4142 1.75 13V9ZM7.25 2C7.25 1.58579 7.58579 1.25 8 1.25C8.41421 1.25 8.75 1.58579 8.75 2V7.18945L9.96973 5.96973C10.2626 5.67683 10.7374 5.67683 11.0303 5.96973C11.3232 6.26262 11.3232 6.73738 11.0303 7.03027L8.53027 9.53027C8.23738 9.82317 7.76262 9.82317 7.46973 9.53027L4.96973 7.03027C4.67683 6.73738 4.67683 6.26262 4.96973 5.96973C5.26262 5.67683 5.73738 5.67683 6.03027 5.96973L7.25 7.18945V2Z" fill="black"/>
</svg>
