<svg width="16" height="16" viewBox="0 0 16 16" fill="none" xmlns="http://www.w3.org/2000/svg">
<path d="M13.25 7.75C13.25 7.09346 13.1204 6.44349 12.8691 5.83691C12.6179 5.23029 12.2494 4.67914 11.7852 4.21484C11.3209 3.75055 10.7697 3.38213 10.1631 3.13086C9.55651 2.87964 8.90654 2.75 8.25 2.75C6.92392 2.75 5.65253 3.27716 4.71484 4.21484C3.77716 5.15253 3.25 6.42392 3.25 7.75V12.75H8.25C8.90654 12.75 9.55651 12.6204 10.1631 12.3691C10.7697 12.1179 11.3209 11.7494 11.7852 11.2852C12.2494 10.8209 12.6179 10.2697 12.8691 9.66309C13.1204 9.05651 13.25 8.40654 13.25 7.75ZM10.25 8.25C10.6642 8.25 11 8.58579 11 9C11 9.41421 10.6642 9.75 10.25 9.75H6C5.58579 9.75 5.25 9.41421 5.25 9C5.25 8.58579 5.58579 8.25 6 8.25H10.25ZM10.25 6.25C10.6642 6.25 11 6.58579 11 7C11 7.41421 10.6642 7.75 10.25 7.75H6C5.58579 7.75 5.25 7.41421 5.25 7C5.25 6.58579 5.58579 6.25 6 6.25H10.25ZM14.75 7.75C14.75 8.60359 14.5815 9.44869 14.2549 10.2373C13.9282 11.0259 13.4503 11.7431 12.8467 12.3467C12.2431 12.9503 11.5259 13.4282 10.7373 13.7549C9.94869 14.0815 9.10359 14.25 8.25 14.25H3C2.66848 14.25 2.35063 14.1182 2.11621 13.8838C1.88179 13.6494 1.75 13.3315 1.75 13V7.75C1.75 6.02609 2.43433 4.37231 3.65332 3.15332C4.87231 1.93433 6.52609 1.25 8.25 1.25C9.10359 1.25 9.94869 1.41846 10.7373 1.74512C11.5259 2.07177 12.2431 2.54974 12.8467 3.15332C13.4503 3.7569 13.9282 4.47408 14.2549 5.2627C14.5815 6.05131 14.75 6.89641 14.75 7.75Z" fill="black"/>
</svg>
