<svg width="16" height="16" viewBox="0 0 16 16" fill="none" xmlns="http://www.w3.org/2000/svg">
<path d="M10.2695 4.66962C10.5623 4.37679 11.0371 4.37692 11.33 4.66962C11.6229 4.96251 11.6229 5.43727 11.33 5.73017L9.06049 7.9997L11.33 10.2692C11.6229 10.5621 11.6229 11.0369 11.33 11.3298C11.0371 11.6227 10.5624 11.6227 10.2695 11.3298L7.99994 9.06025L5.73041 11.3298C5.43752 11.6227 4.96276 11.6227 4.66987 11.3298C4.37717 11.0369 4.37704 10.5621 4.66987 10.2692L6.9394 7.9997L4.66987 5.73017C4.37697 5.43727 4.37697 4.96251 4.66987 4.66962C4.96276 4.37673 5.43752 4.37673 5.73041 4.66962L7.99994 6.93915L10.2695 4.66962Z" fill="black"/>
</svg>
