<svg width="32" height="32" viewBox="0 0 32 32" fill="none" xmlns="http://www.w3.org/2000/svg">
<path d="M4.25 18C4.25 17.5858 4.58579 17.25 5 17.25C5.41421 17.25 5.75 17.5858 5.75 18V25.25H26.25V18C26.25 17.5858 26.5858 17.25 27 17.25C27.4142 17.25 27.75 17.5858 27.75 18V26C27.75 26.4142 27.4142 26.75 27 26.75H5C4.58579 26.75 4.25 26.4142 4.25 26V18ZM15.25 4C15.25 3.58579 15.5858 3.25 16 3.25C16.4142 3.25 16.75 3.58579 16.75 4V16.1895L20.4697 12.4697C20.7626 12.1768 21.2374 12.1768 21.5303 12.4697C21.8232 12.7626 21.8232 13.2374 21.5303 13.5303L16.5303 18.5303C16.2374 18.8232 15.7626 18.8232 15.4697 18.5303L10.4697 13.5303C10.1768 13.2374 10.1768 12.7626 10.4697 12.4697C10.7626 12.1768 11.2374 12.1768 11.5303 12.4697L15.25 16.1895V4Z" fill="black"/>
</svg>
