<svg width="32" height="32" viewBox="0 0 32 32" fill="none" xmlns="http://www.w3.org/2000/svg">
<path d="M27 15.5C27 14.1211 26.7288 12.7554 26.2012 11.4814C25.6735 10.2076 24.8998 9.05017 23.9248 8.0752C22.9498 7.10022 21.7924 6.3265 20.5186 5.79883C19.2446 5.27115 17.8789 5 16.5 5C13.7152 5 11.0443 6.10606 9.0752 8.0752C7.10606 10.0443 6 12.7152 6 15.5V26H16.5C17.8789 26 19.2446 25.7288 20.5186 25.2012C21.7924 24.6735 22.9498 23.8998 23.9248 22.9248C24.8998 21.9498 25.6735 20.7924 26.2012 19.5186C26.7288 18.2446 27 16.8789 27 15.5ZM20.5 17C21.0523 17 21.5 17.4477 21.5 18C21.5 18.5523 21.0523 19 20.5 19H12C11.4477 19 11 18.5523 11 18C11 17.4477 11.4477 17 12 17H20.5ZM20.5 13C21.0523 13 21.5 13.4477 21.5 14C21.5 14.5523 21.0523 15 20.5 15H12C11.4477 15 11 14.5523 11 14C11 13.4477 11.4477 13 12 13H20.5ZM29 15.5C29 17.1414 28.6769 18.7668 28.0488 20.2832C27.4206 21.7998 26.4996 23.1781 25.3389 24.3389C24.1781 25.4996 22.7998 26.4206 21.2832 27.0488C19.7668 27.6769 18.1414 28 16.5 28H6C5.46957 28 4.96101 27.7891 4.58594 27.4141C4.21087 27.039 4 26.5304 4 26V15.5C4 12.1848 5.31693 9.00534 7.66113 6.66113C10.0053 4.31693 13.1848 3 16.5 3C18.1414 3 19.7668 3.3231 21.2832 3.95117C22.7998 4.57936 24.1781 5.5004 25.3389 6.66113C26.4996 7.82186 27.4206 9.20023 28.0488 10.7168C28.6769 12.2332 29 13.8586 29 15.5Z" fill="black"/>
</svg>
