<svg width="16" height="16" viewBox="0 0 16 16" fill="none" xmlns="http://www.w3.org/2000/svg">
<path d="M12.9004 13.5003V12.5003C12.9004 11.3589 11.9744 10.4329 10.833 10.4329H5.16699C4.02561 10.4329 3.09961 11.3589 3.09961 12.5003V13.5003C3.09943 13.8315 2.83126 14.0999 2.5 14.0999C2.16874 14.0999 1.90057 13.8315 1.90039 13.5003V12.5003C1.90039 10.6962 3.36286 9.2337 5.16699 9.2337H10.833C12.6371 9.2337 14.0996 10.6962 14.0996 12.5003V13.5003C14.0994 13.8315 13.8313 14.0999 13.5 14.0999C13.1687 14.0999 12.9006 13.8315 12.9004 13.5003ZM10.5664 5.00031C10.5664 3.58277 9.41756 2.43292 8 2.43292C6.58247 2.43292 5.43359 3.58278 5.43359 5.00031C5.43377 6.41771 6.58258 7.56671 8 7.56671C9.41745 7.56671 10.5662 6.41772 10.5664 5.00031ZM11.7666 5.00031C11.7664 7.08046 10.0802 8.76691 8 8.76691C5.91984 8.76691 4.23357 7.08046 4.2334 5.00031C4.2334 2.92003 5.91973 1.2337 8 1.2337C10.0803 1.2337 11.7666 2.92004 11.7666 5.00031Z" fill="black"/>
</svg>
