<svg width="16" height="16" viewBox="0 0 16 16" fill="none" xmlns="http://www.w3.org/2000/svg">
<path d="M7.40105 14.1663V13.2337C5.36412 13.0169 3.6543 11.7088 2.86687 9.90656C2.73439 9.60296 2.87287 9.24915 3.17644 9.11652C3.47997 8.98397 3.83373 9.12267 3.96648 9.42609C4.64599 10.9814 6.19733 12.0667 8.00066 12.0667C9.804 12.0667 11.3553 10.9814 12.0348 9.42609C12.1676 9.12267 12.5213 8.98395 12.8249 9.11652C13.1284 9.24915 13.2669 9.60297 13.1344 9.90656C12.347 11.7088 10.6372 13.0168 8.60027 13.2337V14.1663C8.60027 14.4977 8.33201 14.7669 8.00066 14.7669C7.66929 14.7669 7.40105 14.4977 7.40105 14.1663ZM10.2341 4.66632C10.2339 3.43305 9.23396 2.43295 8.00066 2.43292C6.76735 2.43292 5.76743 3.43303 5.76726 4.66632V7.66632C5.76726 8.89975 6.76725 9.89972 8.00066 9.89972C9.23406 9.89969 10.2341 8.89973 10.2341 7.66632V4.66632ZM11.4343 7.66632C11.4343 9.56247 9.89681 11.0999 8.00066 11.0999C6.1045 11.0999 4.56706 9.56249 4.56706 7.66632V4.66632C4.56724 2.7703 6.10461 1.2337 8.00066 1.2337C9.8967 1.23373 11.4341 2.77031 11.4343 4.66632V7.66632Z" fill="black"/>
</svg>
