<svg width="16" height="16" viewBox="0 0 16 16" fill="none" xmlns="http://www.w3.org/2000/svg">
<path d="M12.9004 6.5C12.9004 6.46318 12.8698 6.43359 12.833 6.43359H10.4336V12.9004H12.9004V6.5ZM3.09961 12.833C3.09961 12.8698 3.13017 12.9004 3.16699 12.9004H5.56641V9.7666H3.16699C3.13028 9.7666 3.09978 9.79634 3.09961 9.83301V12.833ZM9.2334 3.16699C9.2334 3.13028 9.20366 3.09978 9.16699 3.09961H6.83301C6.79634 3.09978 6.7666 3.13028 6.7666 3.16699V12.9004H9.2334V3.16699ZM10.4336 5.2334H12.833C13.5326 5.2334 14.0996 5.80045 14.0996 6.5V13.167C14.0994 13.6822 13.6822 14.0994 13.167 14.0996H3.16699C2.46744 14.0996 1.90039 13.5326 1.90039 12.833V9.83301C1.90057 9.13358 2.46755 8.56641 3.16699 8.56641H5.56641V3.16699C5.56641 2.46754 6.1336 1.90057 6.83301 1.90039H9.16699C9.86642 1.90057 10.4336 2.46755 10.4336 3.16699V5.2334Z" fill="black"/>
</svg>
