<svg width="16" height="16" viewBox="0 0 16 16" fill="none" xmlns="http://www.w3.org/2000/svg">
<path fill-rule="evenodd" clip-rule="evenodd" d="M6.42408 2.17175C7.13469 0.976606 8.86509 0.9766 9.57569 2.17175L14.565 10.5629C15.2917 11.7849 14.411 13.3332 12.9892 13.3332H3.01058C1.5888 13.3332 0.708127 11.7849 1.43477 10.5629L6.42408 2.17175ZM7.99996 5.33317C8.27609 5.33317 8.49996 5.55703 8.49996 5.83317V8.49987C8.49996 8.776 8.27609 8.99987 7.99996 8.99987C7.72383 8.99987 7.49996 8.776 7.49996 8.49987V5.83317C7.49996 5.55703 7.72383 5.33317 7.99996 5.33317ZM8.66663 10.3332C8.66663 10.7013 8.36816 10.9999 7.99996 10.9999C7.63176 10.9999 7.33329 10.7013 7.33329 10.3332C7.33329 9.965 7.63176 9.66653 7.99996 9.66653C8.36816 9.66653 8.66663 9.965 8.66663 10.3332Z" fill="black"/>
</svg>
