<svg width="16" height="16" viewBox="0 0 16 16" fill="none" xmlns="http://www.w3.org/2000/svg">
<path d="M2.56705 14.1667V2.93228C2.56717 2.46081 2.83548 1.98575 3.32486 1.79166L3.64029 1.67837C5.20552 1.1677 6.61969 1.51299 7.87564 1.86099C9.25808 2.24404 10.4175 2.6108 11.6862 2.30337C12.4482 2.11893 13.4333 2.61579 13.4333 3.59146V9.64126C13.4332 10.1126 13.1649 10.5877 12.6754 10.7819C10.7993 11.526 9.11881 10.991 7.67056 10.5866C6.29835 10.2034 5.09484 9.91827 3.76627 10.446V14.1667C3.76619 14.498 3.49798 14.7663 3.16666 14.7663C2.83533 14.7663 2.56712 14.498 2.56705 14.1667ZM3.76627 9.17837C5.32719 8.71179 6.73553 9.07924 7.99283 9.43033C9.51365 9.855 10.789 10.236 12.2262 9.66861C12.2289 9.66402 12.233 9.65482 12.2331 9.64126V3.59146C12.2331 3.57451 12.2282 3.54301 12.1754 3.50748C12.1174 3.46851 12.0376 3.45361 11.9684 3.47037C10.335 3.86611 8.84307 3.37406 7.55533 3.01724C6.22696 2.64917 5.05865 2.39643 3.7731 2.90396C3.77044 2.90828 3.76633 2.91826 3.76627 2.93228V9.17837Z" fill="black"/>
</svg>
