<svg width="16" height="16" viewBox="0 0 16 16" fill="none" xmlns="http://www.w3.org/2000/svg">
<path d="M12.2328 6.66736C12.2328 4.32904 10.3378 2.43302 7.99945 2.43298C5.66113 2.43298 3.76508 4.32901 3.76508 6.66736C3.76509 8.03465 4.4128 9.25078 5.42035 10.0258C5.44202 10.0425 5.46556 10.0594 5.48871 10.0765C6.00058 10.4543 6.43207 11.0657 6.43207 11.8119V12.6664C6.43232 13.5319 7.13392 14.2338 7.99945 14.2338C8.86496 14.2337 9.56658 13.5318 9.56683 12.6664V11.8119C9.56683 11.0657 9.99831 10.4543 10.5102 10.0765C10.5335 10.0593 10.556 10.0424 10.5776 10.0258L10.7631 9.87537C11.6644 9.09822 12.2328 7.94919 12.2328 6.66736ZM13.433 6.66736C13.433 8.42299 12.6002 9.98457 11.31 10.9769C11.2807 10.9995 11.2513 11.0205 11.2231 11.0414C10.9238 11.2623 10.767 11.55 10.767 11.8119V12.6664C10.7668 14.1946 9.5277 15.4329 7.99945 15.433C6.47116 15.433 5.23213 14.1946 5.23187 12.6664V11.8119C5.23187 11.5827 5.11171 11.3346 4.88129 11.1283L4.77582 11.0424L4.6889 10.9769C3.39867 9.98457 2.56587 8.42301 2.56586 6.66736C2.56586 3.66628 4.99838 1.23376 7.99945 1.23376C11.0005 1.2338 13.433 3.6663 13.433 6.66736Z" fill="black"/>
<path d="M10.1669 11.2338C10.4982 11.2338 10.7665 11.502 10.7665 11.8334C10.7665 12.1647 10.4982 12.433 10.1669 12.433H5.83193C5.50056 12.433 5.23232 12.1647 5.23232 11.8334C5.23232 11.502 5.50056 11.2338 5.83193 11.2338H10.1669Z" fill="black"/>
</svg>
