<svg width="16" height="16" viewBox="0 0 16 16" fill="none" xmlns="http://www.w3.org/2000/svg">
<path d="M6.33838 2.1211C7.08775 0.860752 8.91225 0.860759 9.66162 2.1211L14.6509 10.5117C15.4171 11.8003 14.4889 13.4333 12.9897 13.4336H3.01026C1.51115 13.4333 0.582944 11.8003 1.34912 10.5117L6.33838 2.1211ZM8.63037 2.73438C8.34614 2.25634 7.65386 2.25634 7.36963 2.73438L2.38037 11.125C2.08977 11.6138 2.44181 12.2331 3.01026 12.2334H12.9897C13.5582 12.2331 13.9102 11.6138 13.6196 11.125L8.63037 2.73438ZM7.3999 8.50001V5.83302C7.40008 5.5018 7.66923 5.23341 8.00049 5.23341C8.33153 5.23367 8.59993 5.50196 8.6001 5.83302V8.50001C8.6001 8.83122 8.33164 9.09936 8.00049 9.09962C7.66912 9.09962 7.39991 8.83138 7.3999 8.50001ZM8.76709 10.333C8.76709 10.7563 8.4237 11.0994 8.00049 11.0996C7.57705 11.0996 7.23291 10.7565 7.23291 10.333C7.23309 9.90973 7.57716 9.56642 8.00049 9.56642L8.07862 9.57032C8.46503 9.60966 8.76693 9.93626 8.76709 10.333Z" fill="black"/>
</svg>
