<svg width="16" height="16" viewBox="0 0 16 16" fill="none" xmlns="http://www.w3.org/2000/svg">
<path d="M7 2.5V2H6V2.5H7ZM6 13.5V14H7V13.5H6ZM2.5 6H2V7H2.5V6ZM13.5 7H14V6H13.5V7ZM13 4.63333V11.3667H14V4.63333H13ZM11.3667 13H4.63333V14H11.3667V13ZM3 11.3667V4.63333H2V11.3667H3ZM4.63333 3H11.3667V2H4.63333V3ZM4.63333 13C4.25171 13 3.99557 12.9996 3.79832 12.9835C3.6069 12.9679 3.51538 12.9399 3.45501 12.9092L3.00102 13.8002C3.22586 13.9147 3.46363 13.9595 3.71689 13.9802C3.96431 14.0004 4.26821 14 4.63333 14V13ZM2 11.3667C2 11.7318 1.99961 12.0357 2.01983 12.2831C2.04052 12.5364 2.08526 12.7741 2.19982 12.999L3.09083 12.545C3.06007 12.4846 3.03215 12.3931 3.01651 12.2017C3.00039 12.0044 3 11.7483 3 11.3667H2ZM3.45501 12.9092C3.29821 12.8293 3.17072 12.7018 3.09083 12.545L2.19982 12.999C2.37559 13.3439 2.65605 13.6244 3.00102 13.8002L3.45501 12.9092ZM13 11.3667C13 11.7483 12.9996 12.0044 12.9835 12.2017C12.9679 12.3931 12.9399 12.4846 12.9092 12.545L13.8002 12.999C13.9147 12.7741 13.9595 12.5364 13.9802 12.2831C14.0004 12.0357 14 11.7318 14 11.3667H13ZM11.3667 14C11.7318 14 12.0357 14.0004 12.2831 13.9802C12.5364 13.9595 12.7741 13.9147 12.999 13.8002L12.545 12.9092C12.4846 12.9399 12.3931 12.9679 12.2017 12.9835C12.0044 12.9996 11.7483 13 11.3667 13V14ZM12.9092 12.545C12.8293 12.7018 12.7018 12.8293 12.545 12.9092L12.999 13.8002C13.3439 13.6244 13.6244 13.3439 13.8002 12.999L12.9092 12.545ZM14 4.63333C14 4.26821 14.0004 3.96431 13.9802 3.71689C13.9595 3.46363 13.9147 3.22586 13.8002 3.00102L12.9092 3.45501C12.9399 3.51538 12.9679 3.6069 12.9835 3.79832C12.9996 3.99557 13 4.25171 13 4.63333H14ZM11.3667 3C11.7483 3 12.0044 3.00039 12.2017 3.01651C12.3931 3.03215 12.4846 3.06007 12.545 3.09083L12.999 2.19982C12.7741 2.08526 12.5364 2.04052 12.2831 2.01983C12.0357 1.99961 11.7318 2 11.3667 2V3ZM13.8002 3.00102C13.6244 2.65605 13.3439 2.37559 12.999 2.19982L12.545 3.09083C12.7018 3.17072 12.8293 3.29821 12.9092 3.45501L13.8002 3.00102ZM3 4.63333C3 4.25171 3.00039 3.99557 3.01651 3.79832C3.03215 3.6069 3.06007 3.51538 3.09083 3.45501L2.19982 3.00102C2.08526 3.22586 2.04052 3.46363 2.01983 3.71689C1.99961 3.96431 2 4.26821 2 4.63333H3ZM4.63333 2C4.26821 2 3.96431 1.99961 3.71689 2.01983C3.46363 2.04052 3.22586 2.08526 3.00102 2.19982L3.45501 3.09083C3.51538 3.06007 3.6069 3.03215 3.79832 3.01651C3.99557 3.00039 4.25171 3 4.63333 3V2ZM3.09083 3.45501C3.17072 3.29821 3.29821 3.17072 3.45501 3.09083L3.00102 2.19982C2.65605 2.37559 2.37559 2.65605 2.19982 3.00102L3.09083 3.45501ZM6 2.5V6.5H7V2.5H6ZM6 6.5V13.5H7V6.5H6ZM2.5 7H6.5V6H2.5V7ZM6.5 7H13.5V6H6.5V7Z" fill="black"/>
</svg>
