<svg width="16" height="16" viewBox="0 0 16 16" fill="none" xmlns="http://www.w3.org/2000/svg">
<path d="M13.5667 8.00031C13.5667 4.92603 11.0746 2.4331 8.00032 2.43292C4.92594 2.43292 2.43294 4.92592 2.43294 8.00031C2.43311 11.0745 4.92604 13.5667 8.00032 13.5667C11.0744 13.5665 13.5666 11.0744 13.5667 8.00031ZM14.7669 8.00031C14.7667 11.7372 11.7372 14.7667 8.00032 14.7669C4.2633 14.7669 1.23389 11.7373 1.23372 8.00031C1.23372 4.26318 4.26319 1.2337 8.00032 1.2337C11.7373 1.23388 14.7669 4.26329 14.7669 8.00031Z" fill="black"/>
<path d="M7.40039 8.16665V5.16665C7.40039 4.83528 7.66862 4.56704 7.99999 4.56704C8.33137 4.56704 8.5996 4.83528 8.5996 5.16665V8.16665C8.5996 8.49802 8.33137 8.76626 7.99999 8.76626C7.66862 8.76626 7.40039 8.49802 7.40039 8.16665Z" fill="black"/>
<path d="M8 11.3333C8.36819 11.3333 8.66666 11.0348 8.66666 10.6666C8.66666 10.2985 8.36819 9.99998 8 9.99998C7.63181 9.99998 7.33333 10.2985 7.33333 10.6666C7.33333 11.0348 7.63181 11.3333 8 11.3333Z" fill="black"/>
</svg>
