<svg width="16" height="16" viewBox="0 0 16 16" fill="none" xmlns="http://www.w3.org/2000/svg">
<path d="M8.90918 3.4095C9.14349 3.17519 9.5235 3.17519 9.75781 3.4095L13.9238 7.57552C14.0363 7.68804 14.0996 7.84119 14.0996 8.00032C14.0995 8.15933 14.0363 8.3117 13.9238 8.42415L9.75781 12.5911C9.52355 12.8254 9.14351 12.8253 8.90918 12.5911C8.67487 12.3568 8.67487 11.9768 8.90918 11.7425L12.0518 8.59993H2.5C2.16874 8.59993 1.90057 8.33154 1.90039 8.00032C1.90039 7.66895 2.16863 7.39973 2.5 7.39973H12.0518L8.90918 4.25716C8.67508 4.02288 8.67508 3.64377 8.90918 3.4095Z" fill="black"/>
</svg>
