<svg width="16" height="16" viewBox="0 0 16 16" fill="none" xmlns="http://www.w3.org/2000/svg">
<g clip-path="url(#clip0_792_508)">
<path d="M-0.0996094 8.49969C-0.0994333 8.16847 0.168738 7.90009 0.5 7.90009C0.831262 7.90009 1.09943 8.16847 1.09961 8.49969C1.09961 10.584 2.71914 12.2331 4.66699 12.2331C6.61472 12.2329 8.2334 10.5839 8.2334 8.49969C8.23357 8.16858 8.5019 7.90026 8.83301 7.90009C9.16427 7.90009 9.43342 8.16847 9.43359 8.49969C9.43359 11.2018 7.32137 13.4331 4.66699 13.4333C2.01248 13.4333 -0.0996094 11.2019 -0.0996094 8.49969ZM14.9004 6.4079C14.9004 6.35849 14.848 6.32551 14.8037 6.34735L13.4336 7.02606V8.97333L14.8037 9.65204L14.8379 9.65887C14.871 9.65654 14.9004 9.6294 14.9004 9.59247V6.4079ZM6.2334 5.33368C6.2334 4.46854 5.53209 3.76647 4.66699 3.7663C3.80174 3.7663 3.09961 4.46843 3.09961 5.33368V8.66669C3.09961 9.53192 3.80175 10.2331 4.66699 10.2331C5.53209 10.2329 6.2334 9.53181 6.2334 8.66669V5.33368ZM16.0996 9.59247C16.0996 10.5319 15.1133 11.1446 14.2715 10.7282L13.4336 10.3122V10.8337C13.4334 11.9013 12.5677 12.7663 11.5 12.7663H10.5C10.1686 12.7663 9.90039 12.4981 9.90039 12.1667C9.90039 11.8353 10.1686 11.5671 10.5 11.5671H11.5C11.9049 11.5671 12.2332 11.2386 12.2334 10.8337V5.16669C12.2334 4.76167 11.905 4.43329 11.5 4.43329H9.16699C8.83573 4.43329 8.56658 4.1649 8.56641 3.83368C8.56641 3.50231 8.83562 3.23309 9.16699 3.23309H11.5C12.5678 3.23309 13.4336 4.09894 13.4336 5.16669V5.68622L14.2715 5.27216C15.1133 4.85552 16.0996 5.4685 16.0996 6.4079V9.59247ZM7.43359 8.66669C7.43359 10.1945 6.19484 11.4331 4.66699 11.4333C3.139 11.4333 1.90039 10.1947 1.90039 8.66669V5.33368C1.90039 3.80569 3.139 2.56708 4.66699 2.56708C6.19483 2.56725 7.43359 3.8058 7.43359 5.33368V8.66669Z" fill="black"/>
</g>
<defs>
<clipPath id="clip0_792_508">
<rect width="16" height="16" fill="white"/>
</clipPath>
</defs>
</svg>
