<svg width="16" height="16" viewBox="0 0 16 16" fill="none" xmlns="http://www.w3.org/2000/svg">
<path d="M6.23373 10.833C6.23356 9.7838 5.38258 8.93359 4.33334 8.93359C3.28411 8.93359 2.43313 9.7838 2.43295 10.833C2.43295 11.8824 3.284 12.7334 4.33334 12.7334C5.38269 12.7334 6.23373 11.8824 6.23373 10.833ZM13.5667 10.833C13.5666 9.78379 12.7156 8.93359 11.6664 8.93359C10.6172 8.93377 9.76711 9.7839 9.76694 10.833C9.76694 11.8823 10.6171 12.7332 11.6664 12.7334C12.7157 12.7334 13.5667 11.8824 13.5667 10.833ZM9.89975 4.5C9.89975 3.45076 9.04955 2.59979 8.00034 2.59961C6.95099 2.59961 6.09995 3.45066 6.09995 4.5C6.09995 5.54934 6.95099 6.40039 8.00034 6.40039C9.04955 6.40021 9.89975 5.54924 9.89975 4.5ZM7.43295 10.833C7.43295 12.5451 6.04542 13.9336 4.33334 13.9336C2.62126 13.9336 1.23373 12.5451 1.23373 10.833C1.23391 9.12105 2.62137 7.7334 4.33334 7.7334C6.04532 7.7334 7.43278 9.12105 7.43295 10.833ZM14.7669 10.833C14.7669 12.5451 13.3785 13.9336 11.6664 13.9336C9.9544 13.9334 8.56674 12.545 8.56674 10.833C8.56692 9.12116 9.9545 7.73357 11.6664 7.7334C13.3783 7.7334 14.7668 9.12105 14.7669 10.833ZM11.0999 4.5C11.0999 6.21197 9.71229 7.59943 8.00034 7.59961C6.28825 7.59961 4.89975 6.21208 4.89975 4.5C4.89975 2.78792 6.28825 1.40039 8.00034 1.40039C9.71229 1.40057 11.0999 2.78803 11.0999 4.5Z" fill="black"/>
</svg>
