<svg width="16" height="16" viewBox="0 0 16 16" fill="none" xmlns="http://www.w3.org/2000/svg">
<path d="M7.40039 13.5V8.59961H2.5C2.16863 8.59961 1.90039 8.33137 1.90039 8C1.90039 7.66863 2.16863 7.40039 2.5 7.40039H7.40039V2.5C7.40039 2.16863 7.66863 1.90039 8 1.90039C8.33137 1.90039 8.59961 2.16863 8.59961 2.5V7.40039H13.5C13.8314 7.40039 14.0996 7.66863 14.0996 8C14.0996 8.33137 13.8314 8.59961 13.5 8.59961H8.59961V13.5C8.59961 13.8314 8.33137 14.0996 8 14.0996C7.66863 14.0996 7.40039 13.8314 7.40039 13.5Z" fill="black"/>
</svg>
