<svg width="16" height="16" viewBox="0 0 16 16" fill="none" xmlns="http://www.w3.org/2000/svg">
<path d="M1.9004 11.3662V4.6338C1.9004 4.27046 1.89933 3.96138 1.91993 3.70899C1.94111 3.44973 1.98761 3.1972 2.11036 2.95606C2.29571 2.59227 2.59227 2.29571 2.95606 2.11036C3.1972 1.98761 3.44973 1.94111 3.70899 1.91993C3.96138 1.89933 4.27046 1.9004 4.6338 1.9004H6.167C6.49822 1.90058 6.76661 2.16875 6.76661 2.50001C6.76661 2.83127 6.49822 3.09944 6.167 3.09962H4.6338C4.25065 3.09962 3.99886 3.10053 3.80665 3.11622C3.62142 3.13135 3.54393 3.15732 3.50001 3.1797C3.3622 3.24997 3.24997 3.3622 3.1797 3.50001C3.15732 3.54393 3.13135 3.62142 3.11622 3.80665C3.10053 3.99886 3.09962 4.25065 3.09962 4.6338V11.3662C3.09962 11.7494 3.10053 12.0012 3.11622 12.1934C3.13136 12.3786 3.15732 12.4561 3.1797 12.5C3.24999 12.6379 3.36224 12.7501 3.50001 12.8203C3.54393 12.8427 3.62142 12.8687 3.80665 12.8838C3.99886 12.8995 4.25064 12.9004 4.6338 12.9004H11.3662C11.7494 12.9004 12.0012 12.8995 12.1934 12.8838C12.3786 12.8687 12.4561 12.8427 12.5 12.8203C12.6378 12.7501 12.7501 12.6378 12.8203 12.5C12.8427 12.4561 12.8687 12.3786 12.8838 12.1934C12.8995 12.0012 12.9004 11.7494 12.9004 11.3662V9.83302C12.9006 9.5018 13.1687 9.23341 13.5 9.23341C13.8313 9.23341 14.0994 9.5018 14.0996 9.83302V11.3662C14.0996 11.7296 14.1007 12.0386 14.0801 12.291C14.0589 12.5503 14.0124 12.8028 13.8897 13.044C13.7043 13.4077 13.4077 13.7043 13.044 13.8897C12.8028 14.0124 12.5503 14.0589 12.291 14.0801C12.0386 14.1007 11.7296 14.0996 11.3662 14.0996H4.6338C4.27046 14.0996 3.96138 14.1007 3.70899 14.0801C3.44973 14.0589 3.1972 14.0124 2.95606 13.8897C2.59221 13.7043 2.2957 13.4077 2.11036 13.044C1.98761 12.8028 1.94111 12.5503 1.91993 12.291C1.89933 12.0386 1.9004 11.7296 1.9004 11.3662ZM14.0996 6.83302C14.0996 7.16439 13.8314 7.4336 13.5 7.4336C13.1686 7.4336 12.9004 7.16439 12.9004 6.83302V3.94728L7.75782 9.09083C7.52351 9.32514 7.1435 9.32514 6.90919 9.09083C6.67487 8.85652 6.67487 8.47651 6.90919 8.2422L12.0527 3.09962H9.167C8.83563 3.09962 8.56642 2.83138 8.56642 2.50001C8.56642 2.16864 8.83563 1.9004 9.167 1.9004H13.5C13.8314 1.9004 14.0996 2.16864 14.0996 2.50001V6.83302Z" fill="black"/>
</svg>
