<svg width="16" height="16" viewBox="0 0 16 16" fill="none" xmlns="http://www.w3.org/2000/svg">
<path d="M11.2422 9.74251C11.4765 9.50819 11.8565 9.50819 12.0908 9.74251L13.7373 11.389C14.1669 11.8186 14.1669 12.5151 13.7373 12.9447L12.0908 14.5911C11.8565 14.8253 11.4764 14.8254 11.2422 14.5911C11.0079 14.3569 11.008 13.9768 11.2422 13.7425L12.2178 12.7669H3.83301C2.76541 12.7667 1.90039 11.901 1.90039 10.8333V9.16634C1.90057 8.83512 2.16874 8.56673 2.5 8.56673C2.83126 8.56673 3.09943 8.83512 3.09961 9.16634V10.8333C3.09961 11.2382 3.42814 11.5666 3.83301 11.5667H12.2178L11.2422 10.5911C11.0079 10.3569 11.008 9.97684 11.2422 9.74251ZM12.9004 7.16634V5.16634C12.9002 4.76158 12.5718 4.43311 12.167 4.43294H3.78125L4.75781 5.4095C4.99169 5.64373 4.99169 6.02292 4.75781 6.25716C4.5235 6.49147 4.14349 6.49147 3.90918 6.25716L2.2627 4.61067C1.83339 4.18115 1.83339 3.48551 2.2627 3.05598L3.90918 1.4095C4.14349 1.17519 4.5235 1.17519 4.75781 1.4095C4.99169 1.64373 4.99169 2.02292 4.75781 2.25716L3.78125 3.23372H12.167C13.2345 3.2339 14.0994 4.09885 14.0996 5.16634V7.16634C14.0996 7.49771 13.8314 7.76692 13.5 7.76692C13.1686 7.76692 12.9004 7.49771 12.9004 7.16634Z" fill="black"/>
</svg>
