<svg width="16" height="16" viewBox="0 0 16 16" fill="none" xmlns="http://www.w3.org/2000/svg">
<path d="M13.5667 8.08331C13.5665 8.03847 13.5226 8.00631 13.4798 8.01984L8.59604 9.60382C8.20849 9.72947 7.79119 9.72953 7.40366 9.60382L2.52084 8.01984C2.47788 8.0059 2.43321 8.03829 2.43295 8.08331V12.1663C2.43295 12.5712 2.76149 12.8995 3.16635 12.8997H12.8333C13.2384 12.8997 13.5667 12.5713 13.5667 12.1663V8.08331ZM9.50034 4.56671C9.83145 4.56689 10.0998 4.83521 10.0999 5.16632C10.0999 5.49758 9.83156 5.76673 9.50034 5.76691H6.50034C6.16896 5.76691 5.89975 5.49769 5.89975 5.16632C5.89993 4.8351 6.16907 4.56671 6.50034 4.56671H9.50034ZM12.2337 3.16632C12.2336 2.76156 11.9051 2.4331 11.5003 2.43292H4.50034C4.09544 2.43292 3.76711 2.76146 3.76694 3.16632V7.16241L7.77377 8.46222C7.92071 8.50989 8.07898 8.50986 8.22592 8.46222L12.2337 7.16241V3.16632ZM13.433 6.81769C14.1346 6.77884 14.7667 7.33703 14.7669 8.08331V12.1663C14.7669 13.2341 13.9011 14.0999 12.8333 14.0999H3.16635C2.09876 14.0997 1.23373 13.234 1.23373 12.1663V8.08331C1.23396 7.33715 1.8652 6.77902 2.56674 6.81769V3.16632C2.56692 2.09872 3.43269 1.2337 4.50034 1.2337H11.5003C12.5679 1.23388 13.4328 2.09883 13.433 3.16632V6.81769Z" fill="black"/>
</svg>
