<svg width="16" height="16" viewBox="0 0 16 16" fill="none" xmlns="http://www.w3.org/2000/svg">
<path d="M13.5667 8.00031C13.5667 4.92675 11.0708 2.43292 7.99057 2.43292C5.92099 2.43306 4.11671 3.56084 3.15463 5.2337H4.50034C4.83156 5.23388 5.09995 5.50205 5.09995 5.83331C5.09994 6.16458 4.83156 6.43275 4.50034 6.43292H1.83334C1.50197 6.43292 1.23373 6.16468 1.23373 5.83331V3.16632C1.23391 2.8351 1.50208 2.56671 1.83334 2.56671C2.16461 2.56671 2.43278 2.8351 2.43295 3.16632V4.12921C3.65734 2.379 5.68967 1.23383 7.99057 1.2337C11.7319 1.2337 14.7669 4.26235 14.7669 8.00031C14.7668 11.7381 11.7318 14.7669 7.99057 14.7669C5.04032 14.7667 2.53108 12.8835 1.60092 10.2562C1.49037 9.94384 1.65389 9.6002 1.96616 9.48956C2.27854 9.37899 2.62219 9.54339 2.73276 9.85577C3.49836 12.018 5.56366 13.5666 7.99057 13.5667C11.0707 13.5667 13.5666 11.0737 13.5667 8.00031ZM7.39975 5.16632C7.39993 4.8351 7.66907 4.56671 8.00034 4.56671C8.33145 4.56689 8.59977 4.83521 8.59995 5.16632V7.75128L10.7572 9.90948C10.9915 10.1438 10.9915 10.5228 10.7572 10.7571C10.5229 10.9915 10.1438 10.9915 9.90952 10.7571L7.57553 8.42413C7.46319 8.3117 7.39984 8.15924 7.39975 8.00031V5.16632Z" fill="black"/>
</svg>
