<svg width="16" height="16" viewBox="0 0 16 16" fill="none" xmlns="http://www.w3.org/2000/svg">
<path d="M8.00096 8.2337C10.5261 8.2338 12.4575 9.74575 13.2422 11.8675C13.4598 12.4565 13.3106 13.0363 12.9638 13.4495C12.6253 13.853 12.1016 14.0999 11.5361 14.0999H4.46483C3.89952 14.0998 3.37558 13.8529 3.03709 13.4495C2.69041 13.0362 2.54205 12.4564 2.75975 11.8675C3.54447 9.74568 5.47576 8.2337 8.00096 8.2337ZM8.00096 9.43292C6.00465 9.43292 4.50471 10.6072 3.88475 12.2835C3.83022 12.4312 3.86075 12.5633 3.95701 12.678C4.06154 12.8026 4.24487 12.8996 4.46483 12.8997H11.5361C11.7563 12.8997 11.9403 12.8027 12.0449 12.678C12.1411 12.5633 12.1708 12.4311 12.1162 12.2835C11.4963 10.6073 9.99719 9.43302 8.00096 9.43292ZM9.90037 4.33331C9.90037 3.28397 9.04934 2.43292 7.99998 2.43292C6.95064 2.43292 6.09959 3.28397 6.09959 4.33331C6.09959 5.38266 6.95064 6.2337 7.99998 6.2337C9.04934 6.2337 9.90037 5.38266 9.90037 4.33331ZM11.0996 4.33331C11.0996 6.04539 9.71209 7.43292 7.99998 7.43292C6.2879 7.43292 4.90037 6.0454 4.90037 4.33331C4.90037 2.62123 6.2879 1.2337 7.99998 1.2337C9.71209 1.23371 11.0996 2.62123 11.0996 4.33331Z" fill="black"/>
</svg>
