<svg width="16" height="16" viewBox="0 0 16 16" fill="none" xmlns="http://www.w3.org/2000/svg">
<path d="M12.9004 4.62815C12.9004 4.31251 12.6979 4.03168 12.3984 3.93186L8.23145 2.54319C8.08106 2.49325 7.91792 2.49211 7.76758 2.54221L7.76855 2.54319L3.60156 3.93186C3.30211 4.03168 3.09961 4.3125 3.09961 4.62815V7.94163C3.09961 9.39817 3.71162 10.4724 4.66309 11.3752C5.56793 12.2338 6.75689 12.9127 8 13.5871C9.24311 12.9127 10.4321 12.2338 11.3369 11.3752C12.2884 10.4724 12.9004 9.39817 12.9004 7.94163V4.62815ZM14.0996 7.94163C14.0996 9.79989 13.2948 11.1714 12.1631 12.2453C11.0538 13.2978 9.60591 14.0875 8.28516 14.8C8.10735 14.8959 7.89265 14.8959 7.71484 14.8C6.39409 14.0875 4.94615 13.2978 3.83691 12.2453C2.70516 11.1714 1.90039 9.79989 1.90039 7.94163V4.62815C1.90039 3.79603 2.43229 3.05638 3.22168 2.79319L7.38867 1.40452L7.53906 1.36155C7.84189 1.2872 8.15811 1.2872 8.46094 1.36155L8.61133 1.40452L12.7783 2.79319C13.5677 3.05637 14.0996 3.79601 14.0996 4.62815V7.94163Z" fill="black"/>
</svg>
