<svg width="16" height="16" viewBox="0 0 16 16" fill="none" xmlns="http://www.w3.org/2000/svg">
<path d="M6.2334 6C6.2334 5.1344 5.53255 4.43377 4.66699 4.43359C3.80128 4.43359 3.09961 5.13429 3.09961 6C3.09961 6.8657 3.80129 7.56641 4.66699 7.56641C5.53255 7.56623 6.2334 6.86559 6.2334 6ZM12.9004 11.333C12.9002 10.4675 12.1986 9.7666 11.333 9.7666C10.4676 9.76678 9.76678 10.4676 9.7666 11.333C9.7666 12.1986 10.4675 12.9002 11.333 12.9004C12.1987 12.9004 12.9004 12.1987 12.9004 11.333ZM14.0996 11.333C14.0996 12.8614 12.8614 14.0996 11.333 14.0996C9.80472 14.0994 8.56641 12.8613 8.56641 11.333C8.56656 10.0109 9.49389 8.90783 10.7334 8.63379V2.5C10.7334 2.16874 11.0018 1.90057 11.333 1.90039C11.6644 1.90039 11.9336 2.16863 11.9336 2.5V8.63379C13.1729 8.90795 14.0995 10.011 14.0996 11.333ZM7.43359 6C7.43359 7.32224 6.50619 8.42513 5.2666 8.69922V13.5C5.2666 13.8313 4.99821 14.0994 4.66699 14.0996C4.33562 14.0996 4.06641 13.8314 4.06641 13.5V8.69922C2.82698 8.42501 1.90039 7.32213 1.90039 6C1.90039 4.67778 2.82687 3.57393 4.06641 3.2998V2.5C4.06641 2.16863 4.33562 1.90039 4.66699 1.90039C4.99821 1.90057 5.2666 2.16874 5.2666 2.5V3.2998C6.50629 3.57382 7.43359 4.67767 7.43359 6Z" fill="black"/>
</svg>
