<svg width="16" height="16" viewBox="0 0 16 16" fill="none" xmlns="http://www.w3.org/2000/svg">
<path fill-rule="evenodd" clip-rule="evenodd" d="M8.00004 1.33331C4.31814 1.33331 1.33337 4.31808 1.33337 7.99998C1.33337 11.6818 4.31814 14.6666 8.00004 14.6666C11.6819 14.6666 14.6667 11.6818 14.6667 7.99998C14.6667 4.31808 11.6819 1.33331 8.00004 1.33331ZM7.50004 5.66665C7.22391 5.66665 7.00004 5.89051 7.00004 6.16665C7.00004 6.44279 6.77617 6.66665 6.50004 6.66665C6.2239 6.66665 6.00004 6.44279 6.00004 6.16665C6.00004 5.33822 6.67164 4.66665 7.50004 4.66665H8.30584C9.24151 4.66665 10 5.42517 10 6.36086C10 6.92731 9.71691 7.45631 9.24564 7.77051L8.87111 8.02018C8.63931 8.17471 8.50004 8.43491 8.50004 8.71358V8.83331C8.50004 9.10945 8.27617 9.33331 8.00004 9.33331C7.72391 9.33331 7.50004 9.10945 7.50004 8.83331V8.71358C7.50004 8.10058 7.80637 7.52818 8.31644 7.18811L8.69091 6.93845C8.88404 6.80971 9.00004 6.59297 9.00004 6.36086C9.00004 5.97745 8.68924 5.66665 8.30584 5.66665H7.50004ZM8.00004 9.99998C7.63184 9.99998 7.33337 10.2984 7.33337 10.6666C7.33337 11.0348 7.63184 11.3333 8.00004 11.3333C8.36824 11.3333 8.66671 11.0348 8.66671 10.6666C8.66671 10.2984 8.36824 9.99998 8.00004 9.99998Z" fill="black"/>
</svg>
