<svg width="16" height="16" viewBox="0 0 16 16" fill="none" xmlns="http://www.w3.org/2000/svg">
<path d="M12.2331 7.83301C12.2329 7.42813 11.9046 7.09961 11.4997 7.09961H4.49966C4.09491 7.09979 3.76644 7.42824 3.76627 7.83301V12.833C3.76627 13.2379 4.0948 13.5662 4.49966 13.5664H11.4997C11.9047 13.5664 12.2331 13.238 12.2331 12.833V7.83301ZM7.40005 11.333V9.33301C7.40023 9.0019 7.66855 8.73357 7.99966 8.7334C8.33093 8.7334 8.60007 9.00179 8.60025 9.33301V11.333C8.60025 11.6644 8.33104 11.9336 7.99966 11.9336C7.66844 11.9334 7.40005 11.6643 7.40005 11.333ZM10.2331 4.83301C10.2329 3.59972 9.23299 2.59961 7.99966 2.59961C6.76649 2.59979 5.76644 3.59983 5.76627 4.83301V5.90039H10.2331V4.83301ZM11.4333 5.90039H11.4997C12.5673 5.90039 13.4331 6.76539 13.4333 7.83301V12.833C13.4333 13.9008 12.5674 14.7666 11.4997 14.7666H4.49966C3.43207 14.7664 2.56705 13.9007 2.56705 12.833V7.83301C2.56722 6.76549 3.43218 5.90057 4.49966 5.90039H4.56705V4.83301C4.56722 2.93709 6.10374 1.40057 7.99966 1.40039C9.89573 1.40039 11.4331 2.93698 11.4333 4.83301V5.90039Z" fill="black"/>
</svg>
