<svg width="16" height="16" viewBox="0 0 16 16" fill="none" xmlns="http://www.w3.org/2000/svg">
<path d="M13.5667 8.00031C13.5667 4.92603 11.0745 2.4331 8.00031 2.43292C4.92592 2.43292 2.43292 4.92592 2.43292 8.00031C2.43297 8.84133 2.61967 9.63756 2.95245 10.3509C3.07245 10.6082 3.11534 10.9117 3.0423 11.2122L2.50323 13.4319C2.49184 13.4799 2.53435 13.5227 2.58234 13.512L4.89679 12.9925C5.18423 12.9279 5.4722 12.9685 5.71906 13.0794C6.4143 13.3921 7.18646 13.5667 8.00031 13.5667C11.0744 13.5665 13.5665 11.0744 13.5667 8.00031ZM14.7669 8.00031C14.7667 11.7372 11.7372 14.7667 8.00031 14.7669C7.01349 14.7669 6.07389 14.5551 5.22687 14.1741C5.19459 14.1597 5.17067 14.1609 5.15948 14.1634L2.84601 14.6829C1.92949 14.889 1.11544 14.0605 1.33722 13.1478L1.87628 10.928C1.87907 10.9163 1.88025 10.8913 1.86456 10.8577C1.45928 9.9889 1.23375 9.02014 1.2337 8.00031C1.2337 4.26318 4.26318 1.2337 8.00031 1.2337C11.7373 1.23388 14.7669 4.26329 14.7669 8.00031Z" fill="black"/>
</svg>
