<svg width="16" height="16" viewBox="0 0 16 16" fill="none" xmlns="http://www.w3.org/2000/svg">
<path d="M10.2425 9.57539C10.4768 9.34139 10.8569 9.34128 11.0911 9.57539C11.3254 9.80961 11.3252 10.1897 11.0911 10.424L8.89584 12.6193C8.40122 13.1139 7.59948 13.1139 7.10482 12.6193L4.90951 10.424C4.67519 10.1897 4.67519 9.8097 4.90951 9.57539C5.14371 9.34166 5.52296 9.34166 5.75716 9.57539L7.95248 11.7707C7.9785 11.7967 8.02118 11.7967 8.0472 11.7707L10.2425 9.57539ZM7.10482 3.38007C7.59945 2.88595 8.40036 2.88671 8.89486 3.38105L8.89584 3.38007L11.0911 5.57539C11.3254 5.80961 11.3252 6.18968 11.0911 6.42402C10.8568 6.65833 10.4768 6.65833 10.2425 6.42402L8.0472 4.22871C8.02118 4.20284 7.97844 4.20274 7.95248 4.22871L5.75716 6.42402C5.52286 6.65826 5.14381 6.65826 4.90951 6.42402C4.67519 6.1897 4.67519 5.8097 4.90951 5.57539L7.10482 3.38007Z" fill="black"/>
</svg>
