<svg width="16" height="16" viewBox="0 0 16 16" fill="none" xmlns="http://www.w3.org/2000/svg">
<path fill-rule="evenodd" clip-rule="evenodd" d="M8.00004 1.33331C11.6819 1.33331 14.6667 4.31808 14.6667 7.99998C14.6667 11.6818 11.6819 14.6666 8.00004 14.6666C4.31814 14.6666 1.33337 11.6818 1.33337 7.99998C1.33337 4.31808 4.31814 1.33331 8.00004 1.33331ZM8.00004 9.66665C7.63184 9.66665 7.33337 9.96511 7.33337 10.3333C7.33345 10.7014 7.63189 11 8.00004 11C8.3682 11 8.66663 10.7014 8.66671 10.3333C8.66671 9.96511 8.36824 9.66665 8.00004 9.66665ZM8.00004 5.33331C7.72391 5.33331 7.50004 5.55717 7.50004 5.83331V8.49998C7.50012 8.77605 7.72395 8.99998 8.00004 8.99998C8.27613 8.99998 8.49997 8.77605 8.50004 8.49998V5.83331C8.50004 5.55717 8.27617 5.33331 8.00004 5.33331Z" fill="black"/>
</svg>
