<svg width="16" height="16" viewBox="0 0 16 16" fill="none" xmlns="http://www.w3.org/2000/svg">
<path d="M9.56671 6.66632C9.56654 6.53759 9.46209 6.43292 9.33331 6.43292H2.66632C2.53771 6.4331 2.4331 6.53771 2.43292 6.66632V13.3333C2.43292 13.4621 2.53759 13.5665 2.66632 13.5667H9.33331C9.46221 13.5667 9.56671 13.4622 9.56671 13.3333V6.66632ZM10.7669 9.56671H13.3333C13.4622 9.56671 13.5667 9.46221 13.5667 9.33331V2.66632C13.5665 2.53759 13.4621 2.43292 13.3333 2.43292H6.66632C6.53771 2.4331 6.4331 2.53771 6.43292 2.66632V5.2337H9.33331C10.1249 5.2337 10.7667 5.87487 10.7669 6.66632V9.56671ZM14.7669 9.33331C14.7669 10.125 14.125 10.7669 13.3333 10.7669H10.7669V13.3333C10.7669 14.125 10.125 14.7669 9.33331 14.7669H2.66632C1.87487 14.7667 1.2337 14.1249 1.2337 13.3333V6.66632C1.23388 5.87497 1.87497 5.23388 2.66632 5.2337H5.2337V2.66632C5.23388 1.87497 5.87497 1.23388 6.66632 1.2337H13.3333C14.1249 1.2337 14.7667 1.87487 14.7669 2.66632V9.33331Z" fill="black"/>
</svg>
