<svg width="16" height="16" viewBox="0 0 16 16" fill="none" xmlns="http://www.w3.org/2000/svg">
<path d="M9.93443 2.16641C9.93443 2.49778 9.66576 2.76641 9.33443 2.76641C9.00303 2.76641 8.73443 2.49778 8.73443 2.16641C8.73443 1.83503 9.00303 1.56641 9.33443 1.56641C9.66576 1.56641 9.93443 1.83503 9.93443 2.16641Z" fill="black"/>
<path d="M9.33443 4.93307C9.6658 4.93307 9.93443 4.66445 9.93443 4.33307C9.93443 4.0017 9.6658 3.73307 9.33443 3.73307C9.00306 3.73307 8.73443 4.0017 8.73443 4.33307C8.73443 4.66445 9.00306 4.93307 9.33443 4.93307Z" fill="black"/>
<path d="M11.3334 3.83333C11.6095 3.83333 11.8334 3.60948 11.8334 3.33333C11.8334 3.05719 11.6095 2.83333 11.3334 2.83333C11.0572 2.83333 10.8334 3.05719 10.8334 3.33333C10.8334 3.60948 11.0572 3.83333 11.3334 3.83333Z" fill="black"/>
<path d="M11.3334 5.83333C11.6095 5.83333 11.8334 5.60948 11.8334 5.33333C11.8334 5.05719 11.6095 4.83333 11.3334 4.83333C11.0572 4.83333 10.8334 5.05719 10.8334 5.33333C10.8334 5.60948 11.0572 5.83333 11.3334 5.83333Z" fill="black"/>
<path d="M9.33443 7.09974C9.6658 7.09974 9.93443 6.83111 9.93443 6.49974C9.93443 6.16837 9.6658 5.89974 9.33443 5.89974C9.00306 5.89974 8.73443 6.16837 8.73443 6.49974C8.73443 6.83111 9.00306 7.09974 9.33443 7.09974Z" fill="black"/>
<path d="M9.33443 9.2664C9.6658 9.2664 9.93443 8.99777 9.93443 8.6664C9.93443 8.33503 9.6658 8.0664 9.33443 8.0664C9.00306 8.0664 8.73443 8.33503 8.73443 8.6664C8.73443 8.99777 9.00306 9.2664 9.33443 9.2664Z" fill="black"/>
<path d="M11.3334 9.16667C11.6095 9.16667 11.8334 8.94281 11.8334 8.66667C11.8334 8.39053 11.6095 8.16667 11.3334 8.16667C11.0572 8.16667 10.8334 8.39053 10.8334 8.66667C10.8334 8.94281 11.0572 9.16667 11.3334 9.16667Z" fill="black"/>
<path d="M13.3334 11.5C13.6095 11.5 13.8334 11.2761 13.8334 11C13.8334 10.7239 13.6095 10.5 13.3334 10.5C13.0572 10.5 12.8334 10.7239 12.8334 11C12.8334 11.2761 13.0572 11.5 13.3334 11.5Z" fill="black"/>
<path d="M13.3334 13.8333C13.6095 13.8333 13.8334 13.6095 13.8334 13.3333C13.8334 13.0572 13.6095 12.8333 13.3334 12.8333C13.0572 12.8333 12.8334 13.0572 12.8334 13.3333C12.8334 13.6095 13.0572 13.8333 13.3334 13.8333Z" fill="black"/>
<path d="M9.33443 11.5997C9.6658 11.5997 9.93443 11.3311 9.93443 10.9997C9.93443 10.6684 9.6658 10.3997 9.33443 10.3997C9.00306 10.3997 8.73443 10.6684 8.73443 10.9997C8.73443 11.3311 9.00306 11.5997 9.33443 11.5997Z" fill="black"/>
<path d="M11.3344 11.5997C11.6658 11.5997 11.9344 11.3311 11.9344 10.9997C11.9344 10.6684 11.6658 10.3997 11.3344 10.3997C11.0031 10.3997 10.7344 10.6684 10.7344 10.9997C10.7344 11.3311 11.0031 11.5997 11.3344 11.5997Z" fill="black"/>
<path d="M9.33443 13.9331C9.6658 13.9331 9.93443 13.6644 9.93443 13.3331C9.93443 13.0017 9.6658 12.7331 9.33443 12.7331C9.00306 12.7331 8.73443 13.0017 8.73443 13.3331C8.73443 13.6644 9.00306 13.9331 9.33443 13.9331Z" fill="black"/>
<path d="M11.3344 13.9331C11.6658 13.9331 11.9344 13.6644 11.9344 13.3331C11.9344 13.0017 11.6658 12.7331 11.3344 12.7331C11.0031 12.7331 10.7344 13.0017 10.7344 13.3331C10.7344 13.6644 11.0031 13.9331 11.3344 13.9331Z" fill="black"/>
<path d="M4.90042 4.33366C4.90042 2.83321 5.96565 1.58285 7.38089 1.29558C7.70557 1.22978 8.02201 1.43964 8.08792 1.76433C8.15372 2.08901 7.94386 2.40545 7.61917 2.47136C6.75227 2.64741 6.09964 3.41522 6.09964 4.33366C6.09974 5.25197 6.75239 6.01888 7.61917 6.19499C7.94392 6.26092 8.15385 6.57825 8.08792 6.903C8.02193 7.22755 7.70548 7.43749 7.38089 7.37175C5.96573 7.08446 4.90052 5.83403 4.90042 4.33366Z" fill="black"/>
<path d="M7.44267 8.25848C7.77261 8.22839 8.06483 8.47153 8.09501 8.80145C8.12509 9.13132 7.88185 9.42351 7.55204 9.45379C5.78535 9.61489 4.45824 10.7315 3.88407 12.2839C3.82966 12.4314 3.86011 12.5637 3.95634 12.6784C4.06089 12.8029 4.24428 12.9 4.46415 12.9001H7.49735C7.82849 12.9002 8.09672 13.1686 8.09696 13.4997C8.09696 13.831 7.82864 14.1002 7.49735 14.1003H4.46415C3.89881 14.1001 3.37489 13.8533 3.03642 13.4499C2.6896 13.0365 2.54118 12.456 2.75907 11.8669C3.48357 9.90836 5.18699 8.46417 7.44267 8.25848Z" fill="black"/>
</svg>
