<svg width="16" height="16" viewBox="0 0 16 16" fill="none" xmlns="http://www.w3.org/2000/svg">
<path d="M7.40005 13.3336V10.6149L6.75748 11.2574C6.52316 11.4918 6.14316 11.4918 5.90884 11.2574C5.67469 11.0231 5.67458 10.6431 5.90884 10.4088L7.57584 8.7428L7.66959 8.66565C7.9025 8.51169 8.21937 8.5377 8.42447 8.7428L10.0905 10.4088C10.3248 10.6431 10.3248 11.0231 10.0905 11.2574C9.85621 11.4915 9.4771 11.4915 9.24283 11.2574L8.60025 10.6149V13.3336C8.60007 13.6648 8.33093 13.9332 7.99966 13.9332C7.66855 13.9331 7.40023 13.6647 7.40005 13.3336ZM0.567047 7.99963C0.567221 5.00498 2.97103 2.56709 5.94986 2.56702C7.99246 2.56702 9.76251 3.71546 10.6745 5.40002C10.9154 5.35454 11.1633 5.32874 11.4167 5.32874C13.6408 5.32874 15.433 7.14854 15.4333 9.38049C15.4333 11.2385 14.1932 12.8092 12.4958 13.2858C12.1767 13.3753 11.8451 13.1888 11.7555 12.8698C11.666 12.5507 11.8525 12.2191 12.1715 12.1295C13.3574 11.7964 14.2331 10.694 14.2331 9.38049C14.2328 7.79948 12.9663 6.52893 11.4167 6.52893C11.1092 6.52893 10.8143 6.57813 10.5387 6.66956C10.2421 6.768 9.91962 6.62225 9.79752 6.33459C9.15661 4.821 7.67199 3.76624 5.94986 3.76624C3.6455 3.76631 1.76644 5.65593 1.76627 7.99963C1.76627 9.60817 2.65249 11.0056 3.95572 11.7223C4.24601 11.8819 4.35156 12.2464 4.19205 12.5367C4.03239 12.8271 3.66793 12.9336 3.37759 12.774C1.70232 11.8528 0.567047 10.0588 0.567047 7.99963Z" fill="black"/>
</svg>
