<svg width="16" height="16" viewBox="0 0 16 16" fill="none" xmlns="http://www.w3.org/2000/svg">
<path d="M1.23373 11.4997V3.16669C1.23373 2.83532 1.50197 2.56708 1.83334 2.56708C2.16471 2.56708 2.43295 2.83532 2.43295 3.16669V11.4997C2.43295 11.9046 2.76149 12.2329 3.16635 12.2331H14.1664C14.4977 12.2331 14.7669 12.5023 14.7669 12.8337C14.7668 13.1649 14.4976 13.4333 14.1664 13.4333H3.16635C2.09876 13.4331 1.23373 12.5674 1.23373 11.4997ZM12.2337 7.49969V5.94794L9.75717 8.4245C9.15463 9.02669 8.17794 9.02691 7.57553 8.4245C7.44165 8.29061 7.22504 8.29061 7.09116 8.4245L4.92416 10.5905C4.68985 10.8248 4.30985 10.8248 4.07553 10.5905C3.84165 10.3563 3.84165 9.97709 4.07553 9.74286L6.24252 7.57587C6.84504 6.97335 7.82165 6.97335 8.42416 7.57587C8.55805 7.70975 8.77563 7.70975 8.90952 7.57587L11.3841 5.10028H9.83334C9.50197 5.10028 9.23373 4.83107 9.23373 4.49969C9.23391 4.16847 9.50208 3.90009 9.83334 3.90009H12.8333C13.1646 3.90009 13.4328 4.16847 13.433 4.49969V7.49969C13.433 7.83107 13.1647 8.10028 12.8333 8.10028C12.502 8.10028 12.2337 7.83107 12.2337 7.49969Z" fill="black"/>
</svg>
