<svg width="16" height="16" viewBox="0 0 16 16" fill="none" xmlns="http://www.w3.org/2000/svg">
<path d="M14.2331 4.16669C14.2331 3.94589 14.0544 3.76647 13.8337 3.7663H9.99969C9.27508 3.76646 8.67898 4.31747 8.60712 5.02313L8.60028 5.16669V12.6608C9.08938 12.3629 9.64068 12.2332 10.1843 12.2331H13.8337C14.0543 12.2329 14.2329 12.0543 14.2331 11.8337V4.16669ZM1.7663 11.8337C1.76647 12.0544 1.94589 12.2331 2.16669 12.2331H5.81512C6.3591 12.2331 6.9107 12.3635 7.40009 12.6618V5.16669C7.40009 4.39348 6.77292 3.7663 5.99969 3.7663H2.16669C1.94577 3.7663 1.7663 3.94577 1.7663 4.16669V11.8337ZM15.4333 11.8337C15.4331 12.7171 14.7171 13.4331 13.8337 13.4333H10.1843C9.82669 13.4334 9.49408 13.5199 9.21552 13.6921C8.92469 13.8719 8.68976 14.1293 8.5368 14.4352C8.43515 14.6384 8.22691 14.7663 7.99969 14.7663C7.77266 14.7662 7.5652 14.6383 7.46356 14.4352C7.31053 14.1292 7.07491 13.872 6.78387 13.6921C6.5052 13.5199 6.17286 13.4333 5.81512 13.4333H2.16669C1.28313 13.4333 0.567253 12.7172 0.567078 11.8337V4.16669C0.567078 3.28303 1.28303 2.56708 2.16669 2.56708H5.99969C6.80362 2.56708 7.52278 2.93143 7.99969 3.50458C8.47655 2.93132 9.19575 2.56718 9.99969 2.56708H13.8337C14.7172 2.56725 15.4333 3.28313 15.4333 4.16669V11.8337Z" fill="black"/>
</svg>
