<svg width="16" height="16" viewBox="0 0 16 16" fill="none" xmlns="http://www.w3.org/2000/svg">
<path d="M4.49996 2C3.48744 2 2.66663 2.82081 2.66663 3.83333V12.1667C2.66663 13.1792 3.48744 14 4.49996 14H4.83329C5.84581 14 6.66663 13.1792 6.66663 12.1667V3.83333C6.66663 2.82081 5.84581 2 4.83329 2H4.49996Z" fill="black"/>
<path d="M11.1666 2C10.1541 2 9.33329 2.82081 9.33329 3.83333V12.1667C9.33329 13.1792 10.1541 14 11.1666 14H11.5C12.5125 14 13.3333 13.1792 13.3333 12.1667V3.83333C13.3333 2.82081 12.5125 2 11.5 2H11.1666Z" fill="black"/>
</svg>
