<svg width="16" height="16" viewBox="0 0 16 16" fill="none" xmlns="http://www.w3.org/2000/svg">
<path d="M11.5664 7.33301C11.5662 4.99515 9.67093 3.09961 7.33301 3.09961C4.99526 3.09979 3.09979 4.99526 3.09961 7.33301C3.09961 9.67093 4.99515 11.5662 7.33301 11.5664C8.50215 11.5664 9.5604 11.0939 10.3271 10.3271C11.0939 9.5604 11.5664 8.50215 11.5664 7.33301ZM12.7666 7.33301C12.7666 8.6171 12.3189 9.79684 11.5742 10.7266L13.9238 13.0762C14.1581 13.3105 14.1581 13.6895 13.9238 13.9238C13.6895 14.1581 13.3105 14.1581 13.0762 13.9238L10.7266 11.5742C9.79684 12.3189 8.6171 12.7666 7.33301 12.7666C4.33242 12.7664 1.90039 10.3337 1.90039 7.33301C1.90057 4.33252 4.33252 1.90057 7.33301 1.90039C10.3337 1.90039 12.7664 4.33242 12.7666 7.33301Z" fill="black"/>
</svg>
