<svg width="16" height="16" viewBox="0 0 16 16" fill="none" xmlns="http://www.w3.org/2000/svg">
<path d="M11.6652 9.5H13C13.7364 9.5 14.3334 8.90307 14.3334 8.16667V3.83333C14.3334 3.09695 13.7364 2.5 13 2.5H6.16667C5.43029 2.5 4.83333 3.09695 4.83333 3.83333V5.16667M3.33333 5.16667H10.3334C11.0697 5.16667 11.6667 5.76362 11.6667 6.5V10.8333C11.6667 11.5697 11.0697 12.1667 10.3334 12.1667H7.1667L4.16667 13.8333V12.1667H3.33333C2.59695 12.1667 2 11.5697 2 10.8333V6.5C2 5.76362 2.59695 5.16667 3.33333 5.16667Z" stroke="black" stroke-width="1.2" stroke-linecap="round" stroke-linejoin="round"/>
</svg>
