<svg width="16" height="16" viewBox="0 0 16 16" fill="none" xmlns="http://www.w3.org/2000/svg">
<path d="M10.1484 6.77246C10.561 5.68042 12.106 5.68042 12.5186 6.77246L14.7275 12.6211C14.8446 12.931 14.6888 13.2774 14.3789 13.3945C14.0689 13.5116 13.7226 13.3549 13.6055 13.0449L13.2129 12.0059C13.1777 12.0123 13.1416 12.0166 13.1045 12.0166H9.5625C9.5251 12.0166 9.48863 12.0124 9.45312 12.0059L9.06152 13.0449C8.94443 13.3549 8.59805 13.5116 8.28809 13.3945C7.9781 13.2774 7.82137 12.9311 7.93848 12.6211L10.1484 6.77246ZM11.293 7.16309C11.2884 7.16605 11.2792 7.17319 11.2705 7.19629L9.90332 10.8164H12.7637L11.3955 7.19629C11.3867 7.17289 11.3775 7.166 11.373 7.16309C11.3653 7.15815 11.3513 7.15332 11.333 7.15332C11.3147 7.15338 11.3006 7.15813 11.293 7.16309ZM4.7334 2.5C4.7334 2.16874 5.00179 1.90057 5.33301 1.90039C5.66438 1.90039 5.93359 2.16863 5.93359 2.5V3.27734H8.16699C8.49821 3.27752 8.7666 3.54667 8.7666 3.87793C8.76643 4.20904 8.49811 4.47736 8.16699 4.47754H7.69824C7.46456 5.86314 7.00243 7.0125 6.24219 7.91602C6.21244 7.95137 6.18093 7.98506 6.15039 8.01953C6.68815 8.41193 7.3467 8.71102 8.15039 8.91895C8.47116 9.00197 8.66405 9.3296 8.58105 9.65039C8.49803 9.97116 8.1704 10.164 7.84961 10.0811C6.83005 9.81727 5.96075 9.41009 5.24414 8.83691C4.56135 9.32633 3.74996 9.67968 2.8125 9.91504C2.4912 9.99559 2.16568 9.80076 2.08496 9.47949C2.00427 9.1581 2.19911 8.83167 2.52051 8.75098C3.2572 8.56602 3.87102 8.3065 4.38184 7.97266C3.6447 7.04934 3.19501 5.88218 2.9668 4.47754H2.5C2.16874 4.47754 1.90057 4.20915 1.90039 3.87793C1.90039 3.54656 2.16863 3.27734 2.5 3.27734H4.7334V2.5ZM4.18164 4.47754C4.39029 5.62382 4.76022 6.50743 5.28809 7.18457C5.3 7.17078 5.31249 7.1575 5.32422 7.14355C5.87846 6.48486 6.26468 5.61598 6.48145 4.47754H4.18164Z" fill="black"/>
</svg>
