<svg width="16" height="16" viewBox="0 0 16 16" fill="none" xmlns="http://www.w3.org/2000/svg">
<path d="M11.5723 1.90432C11.9012 1.94422 12.1356 2.24335 12.0957 2.57229L11.8545 4.56643H13.5C13.8314 4.56643 14.0996 4.83565 14.0996 5.16702C14.0994 5.49824 13.8313 5.76663 13.5 5.76663H11.709L11.167 10.2334H13.5C13.8313 10.2334 14.0994 10.5018 14.0996 10.833C14.0996 11.1644 13.8314 11.4336 13.5 11.4336H11.0215L10.7627 13.5723C10.7228 13.9012 10.4236 14.1354 10.0947 14.0957C9.76576 14.0559 9.53141 13.7567 9.57129 13.4278L9.8125 11.4336H5.35449L5.0957 13.5723C5.0558 13.9012 4.75668 14.1356 4.42773 14.0957C4.0988 14.0558 3.86442 13.7567 3.9043 13.4278L4.14551 11.4336H2.5C2.16863 11.4336 1.90039 11.1644 1.90039 10.833C1.90057 10.5018 2.16874 10.2334 2.5 10.2334H4.29102L4.83301 5.76663H2.5C2.16874 5.76663 1.90057 5.49824 1.90039 5.16702C1.90039 4.83565 2.16863 4.56643 2.5 4.56643H4.97852L5.2373 2.42776C5.27718 2.09889 5.57642 1.8646 5.90527 1.90432C6.23424 1.9442 6.46859 2.24333 6.42871 2.57229L6.1875 4.56643H10.6455L10.9043 2.42776C10.9442 2.09883 11.2433 1.86445 11.5723 1.90432ZM5.5 10.2334H9.95801L10.5 5.76663H6.04199L5.5 10.2334Z" fill="black"/>
</svg>
