<svg width="16" height="16" viewBox="0 0 16 16" fill="none" xmlns="http://www.w3.org/2000/svg">
<path d="M7.10449 9.71392C7.59921 9.21929 8.40081 9.21923 8.8955 9.71392L10.4531 11.2706C10.9478 11.7653 10.9477 12.5678 10.4531 13.0626L8.8955 14.6192C8.40079 15.1139 7.5992 15.1139 7.10449 14.6192L5.54687 13.0626C5.05225 12.5678 5.05225 11.7653 5.54687 11.2706L7.10449 9.71392ZM8.04687 10.5626C8.02081 10.5365 7.97921 10.5365 7.95312 10.5626L6.3955 12.1192C6.36941 12.1453 6.36942 12.1878 6.3955 12.2139L7.95312 13.7706C7.97921 13.7966 8.02079 13.7966 8.04687 13.7706L9.60449 12.2139C9.63049 12.1878 9.63053 12.1453 9.60449 12.1192L8.04687 10.5626ZM2.93749 5.54693C3.43207 5.05241 4.23384 5.05256 4.72851 5.54693L6.28613 7.10455C6.78061 7.59925 6.78067 8.4009 6.28613 8.89556L4.72851 10.4532C4.23387 10.9474 3.43204 10.9476 2.93749 10.4532L1.38085 8.89556C0.886607 8.40095 0.885697 7.5992 1.37988 7.10455L2.93749 5.54693ZM11.2705 5.54693C11.7652 5.05231 12.5678 5.05231 13.0625 5.54693L14.6191 7.10455C15.1138 7.59926 15.1138 8.40085 14.6191 8.89556L13.0625 10.4532C12.5678 10.9478 11.7652 10.9479 11.2705 10.4532L9.71386 8.89556C9.21917 8.40087 9.21923 7.59927 9.71386 7.10455L11.2705 5.54693ZM3.88085 6.39556C3.85483 6.36954 3.81217 6.36958 3.78613 6.39556L2.22851 7.95318C2.20296 7.97919 2.20289 8.02095 2.22851 8.04693L3.78613 9.60455C3.81205 9.63034 3.85386 9.63019 3.87988 9.60455L5.43749 8.04693C5.46341 8.0209 5.46334 7.97925 5.43749 7.95318L3.88085 6.39556ZM12.2139 6.39556C12.1878 6.36948 12.1452 6.36947 12.1191 6.39556L10.5625 7.95318C10.5365 7.97927 10.5364 8.02087 10.5625 8.04693L12.1191 9.60455C12.1452 9.63059 12.1878 9.63055 12.2139 9.60455L13.7705 8.04693C13.7966 8.02085 13.7966 7.97927 13.7705 7.95318L12.2139 6.39556ZM7.10449 1.37994C7.59914 0.885758 8.40089 0.885691 8.8955 1.37994L10.4531 2.93755C10.9475 3.4321 10.9474 4.23393 10.4531 4.72857L8.8955 6.28619C8.40084 6.78073 7.59919 6.78067 7.10449 6.28619L5.54687 4.72857C5.0525 4.2339 5.05235 3.43213 5.54687 2.93755L7.10449 1.37994ZM8.04687 2.22857C8.02089 2.20295 7.97913 2.20302 7.95312 2.22857L6.3955 3.78619C6.36952 3.81223 6.36948 3.85489 6.3955 3.88091L7.95312 5.43755C7.97919 5.4634 8.02084 5.46347 8.04687 5.43755L9.60449 3.88091C9.63012 3.8549 9.63027 3.81211 9.60449 3.78619L8.04687 2.22857Z" fill="black"/>
</svg>
