<svg width="16" height="16" viewBox="0 0 16 16" fill="none" xmlns="http://www.w3.org/2000/svg">
<path d="M13.5667 8.00031C13.5667 4.92603 11.0745 2.4331 8.00034 2.43292C4.92595 2.43292 2.43295 4.92592 2.43295 8.00031C2.43313 11.0745 4.92606 13.5667 8.00034 13.5667C11.0744 13.5665 13.5666 11.0744 13.5667 8.00031ZM9.74252 5.21515C10.386 5.13145 10.937 5.73392 10.7591 6.38702L10.0121 9.12335C9.89401 9.556 9.55603 9.89398 9.12338 10.012L6.38705 10.7591C5.69038 10.9488 5.05159 10.3092 5.24155 9.61261L5.98764 6.87628C6.10565 6.44361 6.44365 6.10562 6.87631 5.98761L9.61264 5.24152L9.74252 5.21515ZM7.19174 7.14484C7.16914 7.15108 7.15111 7.16911 7.14487 7.19171L6.52084 9.47784L8.80795 8.8548C8.83073 8.84856 8.8486 8.8307 8.85483 8.80792L9.47787 6.52081L7.19174 7.14484ZM14.7669 8.00031C14.7668 11.7372 11.7372 14.7667 8.00034 14.7669C4.26332 14.7669 1.23391 11.7373 1.23373 8.00031C1.23373 4.26318 4.26321 1.2337 8.00034 1.2337C11.7373 1.23388 14.7669 4.26329 14.7669 8.00031Z" fill="black"/>
</svg>
