<svg width="16" height="16" viewBox="0 0 16 16" fill="none" xmlns="http://www.w3.org/2000/svg">
<path fill-rule="evenodd" clip-rule="evenodd" d="M8.00004 1.33331C4.31814 1.33331 1.33337 4.31808 1.33337 7.99998C1.33337 11.6818 4.31814 14.6666 8.00004 14.6666C11.6819 14.6666 14.6667 11.6818 14.6667 7.99998C14.6667 4.31808 11.6819 1.33331 8.00004 1.33331ZM6.66671 7.33331C6.66671 7.05718 6.89057 6.83331 7.16671 6.83331H8.00004C8.27617 6.83331 8.50004 7.05718 8.50004 7.33331V10.8333C8.50004 11.1094 8.27617 11.3333 8.00004 11.3333C7.72391 11.3333 7.50004 11.1094 7.50004 10.8333V7.83331H7.16671C6.89057 7.83331 6.66671 7.60945 6.66671 7.33331ZM8.00004 4.83331C7.72391 4.83331 7.50004 5.05717 7.50004 5.33331C7.50004 5.60945 7.72391 5.83331 8.00004 5.83331C8.27617 5.83331 8.50004 5.60945 8.50004 5.33331C8.50004 5.05717 8.27617 4.83331 8.00004 4.83331Z" fill="black"/>
</svg>
