<svg width="16" height="16" viewBox="0 0 16 16" fill="none" xmlns="http://www.w3.org/2000/svg">
<path d="M6.92056 11.5033C7.57321 11.0641 8.42712 11.0641 9.07974 11.5033L12.1295 13.556C12.145 13.5664 12.1554 13.5685 12.1628 13.5687C12.1722 13.569 12.1849 13.5668 12.1979 13.5599C12.2109 13.553 12.2202 13.5436 12.2253 13.5355C12.2291 13.5293 12.233 13.5196 12.2331 13.5013V3.16638C12.2329 2.76152 11.9046 2.43298 11.4997 2.43298H4.49966C4.09491 2.43316 3.76644 2.76163 3.76627 3.16638V13.5013C3.76631 13.5198 3.77121 13.5293 3.77505 13.5355C3.7801 13.5436 3.7894 13.553 3.8024 13.5599C3.81508 13.5666 3.82721 13.569 3.83658 13.5687C3.84393 13.5685 3.85513 13.5666 3.87076 13.556L6.92056 11.5033ZM13.4333 13.5013C13.433 14.5152 12.3009 15.1181 11.4596 14.5521L8.40982 12.4994C8.19302 12.3535 7.91754 12.3351 7.68619 12.4447L7.59048 12.4994L4.54068 14.5521C3.69947 15.1182 2.56727 14.5154 2.56705 13.5013V3.16638C2.56722 2.09889 3.43217 1.23394 4.49966 1.23376H11.4997C12.5673 1.23376 13.4331 2.09879 13.4333 3.16638V13.5013Z" fill="black"/>
</svg>
