<svg width="16" height="16" viewBox="0 0 16 16" fill="none" xmlns="http://www.w3.org/2000/svg">
<path d="M4.56641 13.5V2.5C4.56641 2.16863 4.83562 1.90039 5.16699 1.90039C5.49821 1.90057 5.7666 2.16874 5.7666 2.5V13.5C5.7666 13.8313 5.49821 14.0994 5.16699 14.0996C4.83562 14.0996 4.56641 13.8314 4.56641 13.5ZM10.2334 12.167V3.83301C10.2336 3.5019 10.5019 3.23357 10.833 3.2334C11.1643 3.2334 11.4334 3.50179 11.4336 3.83301V12.167C11.4334 12.4982 11.1643 12.7666 10.833 12.7666C10.5019 12.7664 10.2336 12.4981 10.2334 12.167ZM7.40039 10.833V5.16699C7.40039 4.83562 7.66863 4.56641 8 4.56641C8.33137 4.56641 8.59961 4.83562 8.59961 5.16699V10.833C8.59961 11.1644 8.33137 11.4336 8 11.4336C7.66863 11.4336 7.40039 11.1644 7.40039 10.833ZM1.90039 9.5V6.5C1.90039 6.16863 2.16863 5.90039 2.5 5.90039C2.83137 5.90039 3.09961 6.16863 3.09961 6.5V9.5C3.09961 9.83137 2.83137 10.0996 2.5 10.0996C2.16863 10.0996 1.90039 9.83137 1.90039 9.5ZM12.9004 9.5V6.5C12.9004 6.16863 13.1686 5.90039 13.5 5.90039C13.8314 5.90039 14.0996 6.16863 14.0996 6.5V9.5C14.0996 9.83137 13.8314 10.0996 13.5 10.0996C13.1686 10.0996 12.9004 9.83137 12.9004 9.5Z" fill="black"/>
</svg>
