<svg width="16" height="16" viewBox="0 0 16 16" fill="none" xmlns="http://www.w3.org/2000/svg">
<path d="M6.23373 4.49866C6.23353 4.09447 5.90561 3.76641 5.50034 3.76624H3.16635C2.7616 3.76641 2.43313 4.09488 2.43295 4.49963V7.35706C2.43295 7.76197 2.76149 8.09028 3.16635 8.09045H4.16635C4.4976 8.09045 4.76674 8.35886 4.76694 8.69006V11.7701C4.86926 11.6891 4.97667 11.5993 5.08237 11.4967C5.65722 10.9385 6.23373 10.05 6.23373 8.69006V4.49866ZM13.5667 4.49866C13.5665 4.09436 13.2388 3.76624 12.8333 3.76624H10.5003C10.0954 3.76624 9.76711 4.09477 9.76694 4.49963V7.35706C9.76694 7.76208 10.0953 8.09045 10.5003 8.09045H11.5003C11.8314 8.09063 12.0997 8.35897 12.0999 8.69006V11.7701C12.2023 11.6891 12.3096 11.5994 12.4154 11.4967C12.9903 10.9385 13.5667 10.0501 13.5667 8.69006V4.49866ZM7.43295 8.69006C7.43295 10.4369 6.67662 11.6206 5.9183 12.3571C5.54274 12.7217 5.16736 12.9768 4.8851 13.1412C4.7436 13.2237 4.62428 13.2848 4.53745 13.3258C4.49396 13.3463 4.45794 13.3616 4.43198 13.3727C4.41914 13.3782 4.40878 13.3831 4.40073 13.3864C4.39668 13.388 4.39276 13.3892 4.38998 13.3903C4.38893 13.3907 4.38791 13.3909 4.38705 13.3912L4.3851 13.3922C4.20051 13.4639 3.99091 13.4406 3.82748 13.3287C3.6642 13.2169 3.56685 13.0315 3.56674 12.8336V9.29065H3.16635C2.09876 9.29047 1.23373 8.42472 1.23373 7.35706V4.49963C1.23391 3.43214 2.09886 2.56719 3.16635 2.56702H5.50034C6.56727 2.56719 7.43275 3.43065 7.43295 4.49866V8.69006ZM14.7669 8.69006C14.7669 10.437 14.0097 11.6206 13.2513 12.3571C12.8759 12.7216 12.5013 12.9768 12.2191 13.1412C12.0775 13.2237 11.9573 13.2848 11.8705 13.3258C11.8272 13.3462 11.7919 13.3616 11.766 13.3727C11.753 13.3782 11.7419 13.383 11.7337 13.3864C11.7299 13.3879 11.7266 13.3892 11.724 13.3903C11.7227 13.3908 11.7211 13.3908 11.7201 13.3912L11.7181 13.3922C11.5337 13.4639 11.3248 13.4404 11.1615 13.3287C10.9981 13.217 10.8999 13.0315 10.8997 12.8336V9.29065H10.5003C9.43257 9.29065 8.56674 8.42483 8.56674 7.35706V4.49963C8.56692 3.43204 9.43267 2.56702 10.5003 2.56702H12.8333C13.9005 2.56702 14.7667 3.43055 14.7669 4.49866V8.69006Z" fill="black"/>
</svg>
