<svg width="16" height="16" viewBox="0 0 16 16" fill="none" xmlns="http://www.w3.org/2000/svg">
<path d="M12.9004 3.83301C12.9002 3.42825 12.5718 3.09978 12.167 3.09961H3.83301C3.42826 3.09979 3.09979 3.42826 3.09961 3.83301V12.167C3.09978 12.5718 3.42825 12.9002 3.83301 12.9004H12.167C12.5718 12.9002 12.9002 12.5718 12.9004 12.167V3.83301ZM6.40918 5.57617C6.64349 5.34186 7.0235 5.34186 7.25781 5.57617C7.49169 5.8104 7.49169 6.1896 7.25781 6.42383L5.72949 7.95312C5.70395 7.97905 5.70297 8.02095 5.72852 8.04688L7.25781 9.57617C7.49169 9.8104 7.49169 10.1896 7.25781 10.4238C7.0235 10.6581 6.64349 10.6581 6.40918 10.4238L4.88086 8.89551C4.38617 8.40086 4.38617 7.59914 4.88086 7.10449L6.40918 5.57617ZM8.74219 5.57617C8.9765 5.34186 9.35651 5.34186 9.59082 5.57617L11.1191 7.10449C11.6138 7.59914 11.6138 8.40086 11.1191 8.89551L9.59082 10.4238C9.35651 10.6581 8.9765 10.6581 8.74219 10.4238C8.50831 10.1896 8.50831 9.8104 8.74219 9.57617L10.2715 8.04688C10.297 8.02095 10.297 7.97905 10.2715 7.95312L8.74219 6.42383C8.50831 6.1896 8.50831 5.8104 8.74219 5.57617ZM14.0996 12.167C14.0994 13.2345 13.2345 14.0994 12.167 14.0996H3.83301C2.76552 14.0994 1.90057 13.2345 1.90039 12.167V3.83301C1.90057 2.76552 2.76552 1.90057 3.83301 1.90039H12.167C13.2345 1.90057 14.0994 2.76552 14.0996 3.83301V12.167Z" fill="black"/>
</svg>
