<svg width="16" height="16" viewBox="0 0 16 16" fill="none" xmlns="http://www.w3.org/2000/svg">
<path d="M11.4089 3.74281C11.6432 3.5085 12.0232 3.5085 12.2575 3.74281C12.4916 3.97709 12.4916 4.3562 12.2575 4.59047L8.84733 7.99965L12.2575 11.4088C12.4918 11.6431 12.4918 12.0231 12.2575 12.2575C12.0232 12.4918 11.6432 12.4918 11.4089 12.2575L7.99967 8.84731L4.59049 12.2575C4.35622 12.4916 3.97711 12.4916 3.74284 12.2575C3.50852 12.0231 3.50852 11.6431 3.74284 11.4088L7.15104 7.99965L3.74284 4.59047C3.50852 4.35616 3.50852 3.97713 3.74284 3.74281C3.97715 3.5085 4.35618 3.5085 4.59049 3.74281L7.99967 7.15102L11.4089 3.74281Z" fill="black"/>
</svg>
