<svg width="16" height="16" viewBox="0 0 16 16" fill="none" xmlns="http://www.w3.org/2000/svg">
<path d="M13.5667 5.74579C13.5667 5.69623 13.5144 5.66406 13.4701 5.68622L10.7669 7.03778V8.96259L13.4701 10.3141C13.5144 10.3363 13.5667 10.304 13.5667 10.2546V5.74579ZM9.56674 4.49969C9.56657 4.09483 9.23826 3.7663 8.83334 3.7663H3.16635C2.7616 3.76647 2.43313 4.09494 2.43295 4.49969V11.4997C2.43295 11.9046 2.76149 12.2329 3.16635 12.2331H8.83334C9.23837 12.2331 9.56674 11.9047 9.56674 11.4997V4.49969ZM10.7669 5.69501L12.9339 4.612C13.776 4.19137 14.7669 4.80435 14.7669 5.74579V10.2546C14.7669 11.1961 13.7761 11.8082 12.9339 11.3874L10.7669 10.3034V11.4997C10.7669 12.5675 9.90111 13.4333 8.83334 13.4333H3.16635C2.09876 13.4331 1.23373 12.5674 1.23373 11.4997V4.49969C1.23391 3.4322 2.09886 2.56725 3.16635 2.56708H8.83334C9.90101 2.56708 10.7668 3.4321 10.7669 4.49969V5.69501Z" fill="black"/>
</svg>
