<svg width="16" height="16" viewBox="0 0 16 16" fill="none" xmlns="http://www.w3.org/2000/svg">
<path d="M2.56705 12.1666V7.83362C2.56705 6.76595 3.43207 5.9002 4.49966 5.90002H5.16666C5.49792 5.90002 5.76609 6.16841 5.76627 6.49963C5.76627 6.831 5.49803 7.10022 5.16666 7.10022H4.49966C4.0948 7.1004 3.76627 7.4287 3.76627 7.83362V12.1666C3.76627 12.5715 4.0948 12.8998 4.49966 12.9H11.4997C11.9047 12.9 12.2331 12.5717 12.2331 12.1666V7.83362C12.2331 7.42859 11.9047 7.10022 11.4997 7.10022H10.8336C10.5023 7.10022 10.2331 6.831 10.2331 6.49963C10.2332 6.16841 10.5024 5.90002 10.8336 5.90002H11.4997C12.5674 5.90002 13.4333 6.76585 13.4333 7.83362V12.1666C13.4333 13.2344 12.5674 14.1002 11.4997 14.1002H4.49966C3.43207 14.1 2.56705 13.2343 2.56705 12.1666ZM7.40005 8.83362V2.67542L5.60318 4.57874C5.37568 4.81962 4.99546 4.83059 4.75455 4.60315C4.51366 4.37565 4.50269 3.99543 4.73013 3.75452L7.56412 0.754517L7.65689 0.674438C7.75667 0.604886 7.87611 0.567084 7.99966 0.567017C8.16471 0.567017 8.32285 0.634551 8.43619 0.754517L11.2692 3.75452C11.4967 3.9954 11.4866 4.37561 11.2458 4.60315C11.0049 4.83065 10.6247 4.81957 10.3971 4.57874L8.60025 2.67542V8.83362C8.60007 9.16484 8.33093 9.43323 7.99966 9.43323C7.66855 9.43305 7.40023 9.16473 7.40005 8.83362Z" fill="black"/>
</svg>
