<svg width="16" height="16" viewBox="0 0 16 16" fill="none" xmlns="http://www.w3.org/2000/svg">
<path d="M13.5667 8.00031C13.5667 4.92603 11.0745 2.4331 8.00031 2.43292C4.92592 2.43292 2.43292 4.92592 2.43292 8.00031C2.433 9.42546 2.96946 10.7242 3.85089 11.7093C4.84826 10.5938 6.29224 9.89972 8.00031 9.89972C9.70793 9.89981 11.1505 10.5942 12.1478 11.7093C13.0295 10.7241 13.5666 9.42576 13.5667 8.00031ZM8.00031 11.0999C6.63874 11.0999 5.51656 11.6452 4.74249 12.513C5.65856 13.1755 6.78314 13.5667 8.00031 13.5667C9.21697 13.5666 10.3404 13.1751 11.2562 12.513C10.4822 11.6456 9.36141 11.1 8.00031 11.0999ZM9.56671 6.66632C9.56654 5.80133 8.86528 5.10009 8.00031 5.09991C7.13518 5.09991 6.4331 5.80122 6.43292 6.66632C6.43292 7.53155 7.13508 8.2337 8.00031 8.2337C8.86538 8.23353 9.56671 7.53144 9.56671 6.66632ZM14.7669 8.00031C14.7668 10.0126 13.8868 11.8204 12.4935 13.0589C11.2989 14.1207 9.72438 14.7668 8.00031 14.7669C6.27602 14.7669 4.70083 14.1208 3.50616 13.0589C2.11283 11.8204 1.2338 10.0126 1.2337 8.00031C1.2337 4.26318 4.26318 1.2337 8.00031 1.2337C11.7373 1.23388 14.7669 4.26329 14.7669 8.00031ZM10.7669 6.66632C10.7669 8.19418 9.52813 9.43275 8.00031 9.43292C6.47233 9.43292 5.2337 8.19429 5.2337 6.66632C5.23388 5.13848 6.47245 3.89972 8.00031 3.89972C9.52801 3.8999 10.7667 5.13858 10.7669 6.66632Z" fill="black"/>
</svg>
