<svg width="16" height="16" viewBox="0 0 16 16" fill="none" xmlns="http://www.w3.org/2000/svg">
<path fill-rule="evenodd" clip-rule="evenodd" d="M1.33337 5.83333C1.33337 3.71624 3.04961 2 5.16671 2H10.8334C12.9504 2 14.6667 3.71624 14.6667 5.83333V10.1667C14.6667 12.2837 12.9504 14 10.8334 14H1.83337C1.55723 14 1.33337 13.7761 1.33337 13.5V5.83333ZM5.83337 6C5.55723 6 5.33337 6.22386 5.33337 6.5C5.33337 6.77613 5.55723 7 5.83337 7H10.1667C10.4428 7 10.6667 6.77613 10.6667 6.5C10.6667 6.22386 10.4428 6 10.1667 6H5.83337ZM5.83337 9C5.55723 9 5.33337 9.22387 5.33337 9.5C5.33337 9.77613 5.55723 10 5.83337 10H8.16671C8.44284 10 8.66671 9.77613 8.66671 9.5C8.66671 9.22387 8.44284 9 8.16671 9H5.83337Z" fill="black"/>
</svg>
