<svg width="16" height="16" viewBox="0 0 16 16" fill="none" xmlns="http://www.w3.org/2000/svg">
<path d="M13.5667 8.00037C13.5667 4.92609 11.0746 2.43316 8.00034 2.43298C4.92595 2.43298 2.43295 4.92598 2.43295 8.00037C2.43313 11.0746 4.92606 13.5668 8.00034 13.5668C11.0745 13.5666 13.5666 11.0745 13.5667 8.00037ZM14.7669 8.00037C14.7668 11.7372 11.7372 14.7668 8.00034 14.767C4.26332 14.767 1.23391 11.7373 1.23373 8.00037C1.23373 4.26324 4.26321 1.23376 8.00034 1.23376C11.7373 1.23394 14.7669 4.26335 14.7669 8.00037Z" fill="black"/>
<path d="M7.16668 6.60004C7.16668 7.33644 6.71894 7.83337 6.16668 7.83337C5.61439 7.83337 5.16668 7.33644 5.16668 6.60004C5.16668 5.86366 5.61439 5.33337 6.16668 5.33337C6.71894 5.33337 7.16668 5.86366 7.16668 6.60004Z" fill="black"/>
<path d="M10.8333 6.60004C10.8333 7.33644 10.3856 7.83337 9.83334 7.83337C9.28108 7.83337 8.83334 7.33644 8.83334 6.60004C8.83334 5.86366 9.28108 5.33337 9.83334 5.33337C10.3856 5.33337 10.8333 5.86366 10.8333 6.60004Z" fill="black"/>
<path d="M5.3218 10.3755C5.2518 10.4568 5.21202 10.5616 5.21452 10.6698C5.21698 10.7782 5.26102 10.8806 5.33759 10.9555C5.41417 11.0303 5.51767 11.072 5.62598 11.072C5.73434 11.072 5.83812 11.0298 5.9178 10.9579C5.97631 10.906 6.0356 10.8572 6.09709 10.8102C6.64742 10.388 7.32381 10.1664 8.00221 10.1667C8.68054 10.1654 9.35668 10.3862 9.90541 10.809C9.96668 10.8562 10.0258 10.905 10.0841 10.957C10.1635 11.0291 10.2672 11.0716 10.3755 11.0719C10.4839 11.0723 10.5875 11.031 10.6643 10.9564C10.7411 10.8818 10.7854 10.7794 10.7882 10.6711C10.7911 10.5628 10.7516 10.4579 10.6818 10.3764C10.616 10.3007 10.5479 10.2286 10.4756 10.1586C9.83001 9.52671 8.91534 9.16217 8.00148 9.16671C7.08748 9.16371 6.17469 9.52891 5.52834 10.1585C5.45602 10.2282 5.38776 10.3 5.3218 10.3755Z" fill="black"/>
</svg>
