<svg width="16" height="16" viewBox="0 0 16 16" fill="none" xmlns="http://www.w3.org/2000/svg">
<path d="M5.35936 1.22261C5.5124 0.928746 5.87505 0.814759 6.16893 0.967724C6.86901 1.33228 7.41152 1.79724 7.79979 2.39058C8.05777 2.78489 8.2355 3.22089 8.35351 3.69429C10.175 3.12338 11.6157 3.45475 12.5889 4.45698C13.6247 5.52376 13.9765 7.20377 13.8662 8.79194C13.7551 10.3904 13.1669 12.0556 12.126 13.1611C11.5997 13.7199 10.9469 14.1461 10.1758 14.3261C9.46806 14.4913 8.69973 14.438 7.89159 14.1416C7.08409 14.4376 6.31659 14.4912 5.60936 14.3261C4.83829 14.1461 4.18535 13.72 3.65917 13.1611C2.6184 12.0555 2.03091 10.3895 1.91991 8.79097C1.80974 7.20308 2.16093 5.52367 3.19628 4.45698C4.10373 3.52225 5.4181 3.17188 7.06835 3.59175C6.993 3.39223 6.90307 3.21163 6.79589 3.0478C6.53807 2.65375 6.16404 2.31803 5.61522 2.03218C5.32132 1.87913 5.20631 1.51652 5.35936 1.22261ZM11.7275 5.29292C11.081 4.6273 9.97307 4.28289 8.12304 5.05366C7.97535 5.11517 7.8088 5.1152 7.66112 5.05366C5.81162 4.28307 4.70384 4.62726 4.05761 5.29292C3.35403 6.01776 3.01826 7.29634 3.1162 8.70796C3.21351 10.1094 3.73047 11.4861 4.53319 12.3388C4.9286 12.7588 5.38223 13.0413 5.8828 13.1582C6.37981 13.2741 6.96904 13.2378 7.65917 12.9472L7.7744 12.9121C7.89133 12.8886 8.01341 12.9002 8.12499 12.9472C8.81546 13.2379 9.40505 13.2741 9.90233 13.1582C10.4032 13.0413 10.8573 12.7589 11.2529 12.3388C12.0559 11.4861 12.5716 10.1093 12.6689 8.70796C12.7669 7.29627 12.4314 6.01775 11.7275 5.29292Z" fill="black"/>
</svg>
