<svg width="16" height="16" viewBox="0 0 16 16" fill="none" xmlns="http://www.w3.org/2000/svg">
<path d="M10.8224 3H5.17754C4.88079 2.99999 4.63309 2.99999 4.43074 3.01652C4.21969 3.03377 4.02155 3.07105 3.83418 3.16652C3.54671 3.31299 3.31299 3.54671 3.16652 3.83418C3.07105 4.02155 3.03377 4.21969 3.01652 4.43074C2.99999 4.63309 2.99999 4.88078 3 5.17753V10.8224C2.99999 11.1192 2.99999 11.3669 3.01652 11.5693C3.03377 11.7803 3.07105 11.9784 3.16652 12.1658C3.31299 12.4533 3.54671 12.687 3.83418 12.8335C4.02155 12.9289 4.21969 12.9662 4.43074 12.9835C4.63309 13 4.88078 13 5.17753 13H10.8225C11.1192 13 11.3669 13 11.5693 12.9835C11.7803 12.9662 11.9784 12.9289 12.1658 12.8335C12.4533 12.687 12.687 12.4533 12.8335 12.1658C12.9289 11.9784 12.9662 11.7803 12.9835 11.5693C13 11.3669 13 11.1192 13 10.8225V5.17753C13 4.88078 13 4.63309 12.9835 4.43074C12.9662 4.21969 12.9289 4.02155 12.8335 3.83418C12.687 3.54671 12.4533 3.31299 12.1658 3.16652C11.9784 3.07105 11.7803 3.03377 11.5693 3.01652C11.3669 2.99999 11.1192 2.99999 10.8224 3Z" fill="black"/>
</svg>
