<svg width="16" height="16" viewBox="0 0 16 16" fill="none" xmlns="http://www.w3.org/2000/svg">
<path d="M13.6699 1.90039C14.6485 1.90058 15.2576 2.96323 14.7627 3.80762L9.30762 13.1152C8.74225 14.0793 7.29621 13.8918 6.99512 12.8154L5.55957 7.68164C5.55666 7.6713 5.55142 7.66123 5.54395 7.65332L2.12598 4.03613C1.3633 3.22838 1.9358 1.90041 3.04688 1.90039H13.6699ZM6.79883 7.65527L8.15039 12.4922C8.15637 12.5135 8.16417 12.5214 8.16895 12.5254C8.17614 12.5313 8.18906 12.5378 8.20606 12.54C8.22306 12.5422 8.23663 12.539 8.24512 12.5352C8.25069 12.5326 8.26092 12.5275 8.27247 12.5078L13.2041 4.0918L6.79883 7.65527ZM3.00977 3.10938C3.00209 3.11471 2.99208 3.12503 2.98536 3.14062C2.97888 3.15586 2.97819 3.16954 2.9795 3.17871C2.98043 3.18487 2.98256 3.19649 2.99805 3.21289L6.20801 6.61035L12.5215 3.09961H3.04688C3.02433 3.09961 3.01489 3.10583 3.00977 3.10938Z" fill="black"/>
</svg>
