<svg width="16" height="16" viewBox="0 0 16 16" fill="none" xmlns="http://www.w3.org/2000/svg">
<path fill-rule="evenodd" clip-rule="evenodd" d="M1.33334 4.50002C1.33334 3.4875 2.15416 2.66669 3.16668 2.66669H12.8333C13.8459 2.66669 14.6667 3.4875 14.6667 4.50002V5.50002C14.6667 5.77616 14.4428 6.00002 14.1667 6.00002C13.8905 6.00002 13.6667 5.77616 13.6667 5.50002V4.50002C13.6667 4.03978 13.2936 3.66669 12.8333 3.66669H3.16668C2.70644 3.66669 2.33334 4.03978 2.33334 4.50002V11.5C2.33334 11.9603 2.70644 12.3334 3.16668 12.3334H6.83334C7.10948 12.3334 7.33334 12.5572 7.33334 12.8334C7.33334 13.1095 7.10948 13.3334 6.83334 13.3334H3.16668C2.15416 13.3334 1.33334 12.5126 1.33334 11.5V4.50002ZM12 7.33335C12.2761 7.33335 12.5 7.55722 12.5 7.83335C12.5 8.75609 12.7045 9.30642 13.0324 9.63429C13.3603 9.96222 13.9106 10.1667 14.8333 10.1667C15.1095 10.1667 15.3333 10.3906 15.3333 10.6667C15.3333 10.9428 15.1095 11.1667 14.8333 11.1667C13.9106 11.1667 13.3603 11.3712 13.0324 11.6991C12.7045 12.027 12.5 12.5773 12.5 13.5C12.5 13.7762 12.2761 14 12 14C11.7239 14 11.5 13.7762 11.5 13.5C11.5 12.5773 11.2955 12.027 10.9676 11.6991C10.6397 11.3712 10.0894 11.1667 9.16668 11.1667C8.89054 11.1667 8.66668 10.9428 8.66668 10.6667C8.66668 10.3906 8.89054 10.1667 9.16668 10.1667C10.0894 10.1667 10.6397 9.96222 10.9676 9.63429C11.2955 9.30642 11.5 8.75609 11.5 7.83335C11.5 7.55722 11.7239 7.33335 12 7.33335ZM12 9.93575C11.9066 10.0821 11.7986 10.2176 11.6747 10.3414C11.5509 10.4653 11.4154 10.5733 11.2691 10.6667C11.4154 10.7601 11.5509 10.8681 11.6747 10.992C11.7986 11.1158 11.9066 11.2513 12 11.3976C12.0934 11.2513 12.2014 11.1158 12.3253 10.992C12.4491 10.8681 12.5846 10.7601 12.7309 10.6667C12.5846 10.5733 12.4491 10.4653 12.3253 10.3414C12.2014 10.2176 12.0934 10.0821 12 9.93575Z" fill="black"/>
<path d="M4.66668 5.33335C4.66668 5.70154 4.3682 6.00002 4.00001 6.00002C3.63182 6.00002 3.33334 5.70154 3.33334 5.33335C3.33334 4.96517 3.63182 4.66669 4.00001 4.66669C4.3682 4.66669 4.66668 4.96517 4.66668 5.33335Z" fill="black"/>
<path d="M6.66668 5.33335C6.66668 5.70154 6.3682 6.00002 6.00001 6.00002C5.63182 6.00002 5.33334 5.70154 5.33334 5.33335C5.33334 4.96517 5.63182 4.66669 6.00001 4.66669C6.3682 4.66669 6.66668 4.96517 6.66668 5.33335Z" fill="black"/>
<path d="M8.00001 6.00002C8.36821 6.00002 8.66668 5.70154 8.66668 5.33335C8.66668 4.96517 8.36821 4.66669 8.00001 4.66669C7.63181 4.66669 7.33334 4.96517 7.33334 5.33335C7.33334 5.70154 7.63181 6.00002 8.00001 6.00002Z" fill="black"/>
</svg>
