<svg width="16" height="16" viewBox="0 0 16 16" fill="none" xmlns="http://www.w3.org/2000/svg">
<path d="M13.5667 8.00031C13.5667 4.92603 11.0745 2.4331 8.00033 2.43292C4.92595 2.43292 2.43295 4.92592 2.43295 8.00031C2.43312 11.0745 4.92606 13.5667 8.00033 13.5667C11.0744 13.5665 13.5666 11.0744 13.5667 8.00031ZM9.57552 5.5755C9.80978 5.34124 10.1898 5.34135 10.4242 5.5755C10.6585 5.80982 10.6585 6.18982 10.4242 6.42413L8.84798 7.99933L10.4242 9.5755C10.6585 9.80982 10.6585 10.1898 10.4242 10.4241C10.1898 10.6584 9.80984 10.6584 9.57552 10.4241L7.99935 8.84796L6.42416 10.4241C6.18984 10.6584 5.80984 10.6584 5.57552 10.4241C5.34137 10.1898 5.34126 9.80976 5.57552 9.5755L7.15072 7.99933L5.57552 6.42413C5.34137 6.18981 5.34126 5.80976 5.57552 5.5755C5.80978 5.34124 6.18983 5.34135 6.42416 5.5755L7.99935 7.1507L9.57552 5.5755ZM14.7669 8.00031C14.7668 11.7372 11.7372 14.7667 8.00033 14.7669C4.26331 14.7669 1.2339 11.7373 1.23373 8.00031C1.23373 4.26318 4.2632 1.2337 8.00033 1.2337C11.7373 1.23388 14.7669 4.26329 14.7669 8.00031Z" fill="black"/>
</svg>
