<svg width="16" height="16" viewBox="0 0 16 16" fill="none" xmlns="http://www.w3.org/2000/svg">
<path d="M6.92059 11.5033C7.57324 11.0641 8.42714 11.0641 9.07977 11.5033L12.1296 13.556C12.145 13.5664 12.1555 13.5685 12.1628 13.5687C12.1723 13.569 12.185 13.5668 12.1979 13.5599C12.2109 13.553 12.2202 13.5436 12.2253 13.5355C12.2291 13.5293 12.233 13.5196 12.2331 13.5013V8.50037C12.2331 8.169 12.5023 7.89978 12.8337 7.89978C13.1649 7.89996 13.4333 8.1691 13.4333 8.50037V13.5013C13.4331 14.5152 12.301 15.1181 11.4597 14.5521L8.40985 12.4994C8.19305 12.3535 7.91757 12.3351 7.68622 12.4447L7.59051 12.4994L4.54071 14.5521C3.69949 15.1182 2.5673 14.5154 2.56708 13.5013V12.1664C2.56725 11.8352 2.83542 11.5668 3.16669 11.5668C3.49795 11.5668 3.76612 11.8352 3.76629 12.1664V13.5013C3.76634 13.5198 3.77124 13.5293 3.77508 13.5355C3.78013 13.5436 3.78943 13.553 3.80243 13.5599C3.81511 13.5666 3.82724 13.569 3.83661 13.5687C3.84396 13.5685 3.85516 13.5666 3.87079 13.556L6.92059 11.5033ZM12.2331 3.16638C12.2329 2.76152 11.9046 2.43298 11.4997 2.43298H4.49969C4.09494 2.43316 3.76647 2.76163 3.76629 3.16638V8.57556L12.2331 5.47888V3.16638ZM13.4333 5.03943L14.6276 4.60291C14.9387 4.4894 15.2833 4.64935 15.3972 4.96033C15.511 5.27142 15.3507 5.61589 15.0397 5.72986L1.37274 10.7299C1.06154 10.8437 0.717062 10.6836 0.603209 10.3724C0.489619 10.0613 0.649557 9.71671 0.960631 9.60291L2.56708 9.01501V3.16638C2.56725 2.09889 3.4322 1.23394 4.49969 1.23376H11.4997C12.5674 1.23376 13.4331 2.09879 13.4333 3.16638V5.03943Z" fill="black"/>
</svg>
