<svg width="16" height="16" viewBox="0 0 16 16" fill="none" xmlns="http://www.w3.org/2000/svg">
<path d="M7.99934 2.90328C9.10042 2.00261 10.3682 1.73483 11.5238 1.99313C12.8169 2.28219 13.9145 3.21854 14.4378 4.52633C15.5119 7.21109 14.1238 11.0809 8.29426 14.3564C8.11182 14.4589 7.88885 14.4588 7.70637 14.3564C1.87656 11.0808 0.487741 7.21113 1.56184 4.52633C2.08505 3.21859 3.18284 2.28228 4.4759 1.99313C5.63121 1.7349 6.89844 2.00312 7.99934 2.90328ZM7.57258 4.1357C6.65294 3.2006 5.61665 2.96886 4.7386 3.165C3.84542 3.36464 3.05757 4.01909 2.6761 4.97262C1.95399 6.77823 2.63988 10.0279 8.00031 13.1406C13.3604 10.028 14.0457 6.77815 13.3236 4.97262C12.9421 4.01919 12.1551 3.36471 11.262 3.165C10.3839 2.96873 9.34781 3.20048 8.42805 4.1357C8.31533 4.25027 8.16103 4.31433 8.00031 4.31441C7.83963 4.31441 7.68534 4.25015 7.57258 4.1357Z" fill="black"/>
</svg>
