<svg width="16" height="16" viewBox="0 0 16 16" fill="none" xmlns="http://www.w3.org/2000/svg">
<path d="M10.2992 1.85138C11.054 1.09647 12.2785 1.09669 13.0335 1.85138L14.1478 2.96661C14.9027 3.72163 14.9028 4.94501 14.1478 5.70001L5.6478 14.2C5.28523 14.5625 4.79335 14.7664 4.28061 14.7664H1.83334C1.50205 14.7664 1.23386 14.4981 1.23373 14.1668V11.7186C1.23383 11.2059 1.43663 10.7139 1.79916 10.3514L10.2992 1.85138ZM12.1849 2.70001C11.8985 2.41396 11.434 2.41375 11.1478 2.70001L9.681 4.16583L11.8324 6.3172L13.2992 4.85138C13.5855 4.56499 13.5855 4.10066 13.2992 3.81427L12.1849 2.70001ZM2.43295 13.5662H4.28061C4.4751 13.5662 4.66163 13.4889 4.79916 13.3514L10.9847 7.16583L8.83334 5.01447L2.6478 11.2C2.5104 11.3374 2.43304 11.5241 2.43295 11.7186V13.5662Z" fill="black"/>
</svg>
