<svg width="16" height="16" viewBox="0 0 16 16" fill="none" xmlns="http://www.w3.org/2000/svg">
<g clip-path="url(#clip0_792_552)">
<path d="M10.8997 11.667C10.8997 10.0655 9.60181 8.76678 8.00033 8.7666C6.3987 8.7666 5.09994 10.0654 5.09994 11.667C5.10012 11.9797 5.35364 12.2332 5.66635 12.2334H10.3333C10.6462 12.2334 10.8996 11.9798 10.8997 11.667ZM2.9017 8.61621C3.2284 8.56144 3.53817 8.78175 3.59311 9.1084C3.64794 9.4352 3.42674 9.74497 3.09994 9.7998C2.29875 9.93432 1.55989 10.4634 1.18783 11.167C1.15757 11.2243 1.1588 11.2592 1.16147 11.2783C1.1647 11.3014 1.1767 11.3378 1.2142 11.3818C1.295 11.4764 1.46133 11.5664 1.66732 11.5664H2.50131C2.8325 11.5666 3.10092 11.8358 3.10092 12.167C3.10067 12.498 2.83235 12.7664 2.50131 12.7666H1.66732C1.13742 12.7666 0.627159 12.5425 0.301114 12.1602C-0.0431868 11.7562 -0.172281 11.1732 0.127286 10.6064C0.677707 9.56557 1.7393 8.81124 2.9017 8.61621ZM13.099 8.61621C14.2614 8.81124 15.323 9.56562 15.8734 10.6064C16.1729 11.1732 16.0439 11.7562 15.6996 12.1602C15.3735 12.5425 14.8633 12.7666 14.3333 12.7666H13.5003C13.1691 12.7666 12.9 12.4982 12.8997 12.167C12.8997 11.8356 13.169 11.5664 13.5003 11.5664H14.3333C14.5394 11.5664 14.7056 11.4764 14.7865 11.3818C14.824 11.3378 14.837 11.3015 14.8402 11.2783C14.8415 11.2688 14.8415 11.2554 14.8382 11.2373L14.8128 11.167C14.4408 10.4634 13.702 9.93425 12.9007 9.7998C12.5739 9.74498 12.3537 9.4352 12.4085 9.1084C12.4635 8.7819 12.7724 8.5616 13.099 8.61621ZM3.73373 6C3.73373 5.5951 3.40519 5.26678 3.00033 5.2666C2.59532 5.2666 2.26693 5.59499 2.26693 6C2.26693 6.40501 2.59532 6.7334 3.00033 6.7334C3.40519 6.73322 3.73373 6.4049 3.73373 6ZM13.7337 6C13.7337 5.5951 13.4052 5.26678 13.0003 5.2666C12.5953 5.2666 12.2669 5.59499 12.2669 6C12.2669 6.40501 12.5953 6.7334 13.0003 6.7334C13.4052 6.73322 13.7337 6.4049 13.7337 6ZM9.06674 4.66699C9.06674 4.078 8.58929 3.59979 8.00033 3.59961C7.41123 3.59961 6.93295 4.07789 6.93295 4.66699C6.93313 5.25595 7.41134 5.7334 8.00033 5.7334C8.58918 5.73322 9.06656 5.25584 9.06674 4.66699ZM12.0999 11.667C12.0998 12.6425 11.3089 13.4336 10.3333 13.4336H5.66635C4.6909 13.4334 3.89992 12.6424 3.89975 11.667C3.89975 9.40262 5.73596 7.56641 8.00033 7.56641C10.2646 7.56658 12.0999 9.40273 12.0999 11.667ZM4.93295 6C4.93295 7.06764 4.06793 7.93342 3.00033 7.93359C1.93258 7.93359 1.06674 7.06775 1.06674 6C1.06674 4.93225 1.93258 4.06641 3.00033 4.06641C4.06793 4.06658 4.93295 4.93236 4.93295 6ZM14.933 6C14.933 7.06764 14.0679 7.93342 13.0003 7.93359C11.9326 7.93359 11.0667 7.06775 11.0667 6C11.0667 4.93225 11.9326 4.06641 13.0003 4.06641C14.0679 4.06658 14.933 4.93236 14.933 6ZM10.2669 4.66699C10.2668 5.91858 9.25192 6.93342 8.00033 6.93359C6.7486 6.93359 5.73391 5.91869 5.73373 4.66699C5.73373 3.41515 6.74849 2.40039 8.00033 2.40039C9.25203 2.40057 10.2669 3.41526 10.2669 4.66699Z" fill="black"/>
</g>
<defs>
<clipPath id="clip0_792_552">
<rect width="16" height="16" fill="white"/>
</clipPath>
</defs>
</svg>
