<svg width="16" height="16" viewBox="0 0 16 16" fill="none" xmlns="http://www.w3.org/2000/svg">
<path d="M8.33367 6.84L8.2206 7.327C8.3452 7.35593 8.4762 7.336 8.5866 7.27133L8.33367 6.84ZM5.41449 6.16214L5.52758 5.67509C5.3637 5.63704 5.19167 5.68396 5.06979 5.79994C4.94792 5.91593 4.89255 6.08543 4.92245 6.25099L5.41449 6.16214ZM6.01835 9.50613L6.49134 9.66827C6.51899 9.5876 6.52555 9.5012 6.5104 9.41727L6.01835 9.50613ZM11.7433 5.9264L11.74 6.42639C11.8713 6.42727 11.9977 6.37645 12.0918 6.28492L11.7433 5.9264ZM7.02227 13.8358C7.24713 13.9961 7.55933 13.9437 7.71967 13.7189C7.87993 13.494 7.8276 13.1818 7.60273 13.0215L7.02227 13.8358ZM8.5866 7.27133C9.04147 7.0046 9.55227 6.78833 10.1071 6.63964L9.84833 5.67371C9.20767 5.84538 8.61367 6.09622 8.0808 6.40865L8.5866 7.27133ZM5.3014 6.64918L8.2206 7.327L8.4468 6.35293L5.52758 5.67509L5.3014 6.64918ZM6.5104 9.41727L5.90653 6.07328L4.92245 6.25099L5.52631 9.59493L6.5104 9.41727ZM6.41511 11.3717C6.26533 10.8127 6.29791 10.2325 6.49134 9.66827L5.54537 9.344C5.29369 10.0781 5.2432 10.8618 5.44918 11.6305L6.41511 11.3717ZM13.1515 3.86023L11.3948 5.56788L12.0918 6.28492L13.8485 4.57727L13.1515 3.86023ZM10.1071 6.63964C10.6621 6.49095 11.2127 6.42286 11.74 6.42639L11.7467 5.42641C11.1289 5.42227 10.4891 5.50203 9.84833 5.67371L10.1071 6.63964ZM7.60273 13.0215C7.00913 12.5983 6.59289 12.0352 6.41511 11.3717L5.44918 11.6305C5.69442 12.5457 6.2641 13.2953 7.02227 13.8358L7.60273 13.0215ZM3.83333 3H12.1667V2H3.83333V3ZM13 3.83333V12.1667H14V3.83333H13ZM12.1667 13H3.83333V14H12.1667V13ZM3 12.1667V3.83333H2V12.1667H3ZM3.83333 13C3.37309 13 3 12.6269 3 12.1667H2C2 13.1792 2.82081 14 3.83333 14V13ZM13 12.1667C13 12.6269 12.6269 13 12.1667 13V14C13.1792 14 14 13.1792 14 12.1667H13ZM12.1667 3C12.6269 3 13 3.37309 13 3.83333H14C14 2.82081 13.1792 2 12.1667 2V3ZM3.83333 2C2.82081 2 2 2.82081 2 3.83333H3C3 3.37309 3.37309 3 3.83333 3V2Z" fill="black"/>
<path d="M9.3256 9.65993C9.4478 10.1161 9.23873 10.5685 8.8586 10.6703C8.47847 10.7722 8.0712 10.485 7.94893 10.0288C7.82673 9.57267 8.0358 9.12027 8.41593 9.0184C8.79607 8.91653 9.20333 9.2038 9.3256 9.65993Z" fill="black"/>
<path d="M13.4551 8.55333C13.5774 9.00953 13.3683 9.46187 12.9881 9.56373C12.608 9.6656 12.2007 9.3784 12.0785 8.9222C11.9563 8.466 12.1654 8.01367 12.5455 7.9118C12.9257 7.80993 13.3329 8.0972 13.4551 8.55333Z" fill="black"/>
<path d="M12.0447 10.997C12.1262 11.3011 11.8225 11.6467 11.3663 11.7689C10.9101 11.8911 10.4743 11.7437 10.3928 11.4396C10.3113 11.1355 10.615 10.7899 11.0712 10.6677C11.5274 10.5454 11.9632 10.6929 12.0447 10.997Z" fill="black"/>
</svg>
