<svg width="16" height="16" viewBox="0 0 16 16" fill="none" xmlns="http://www.w3.org/2000/svg">
<path d="M14.3896 8.15151C14.3896 7.67878 14.3472 7.22418 14.2684 6.78785H7.98959V9.36965H11.5775C11.4199 10.2 10.9471 10.903 10.2381 11.3757V13.0545H12.4017C13.6623 11.8908 14.3896 10.1818 14.3896 8.15151Z" fill="black"/>
<path d="M7.98799 14.6666C9.78799 14.6666 11.2971 14.0727 12.4001 13.0545L10.2365 11.3757C9.64252 11.7757 8.88492 12.0182 7.98799 12.0182C6.25463 12.0182 4.7819 10.8484 4.25463 9.27271H2.03645V10.9939C3.13341 13.1697 5.38191 14.6666 7.98799 14.6666Z" fill="black"/>
<path d="M4.25624 9.26665C4.12291 8.86665 4.04412 8.44238 4.04412 7.99998C4.04412 7.55751 4.12291 7.13331 4.25624 6.73331V5.01209H2.03805C1.58351 5.90905 1.32291 6.92118 1.32291 7.99998C1.32291 9.07878 1.58351 10.0909 2.03805 10.9878L3.76533 9.64238L4.25624 9.26665Z" fill="black"/>
<path d="M7.98799 3.98786C8.96979 3.98786 9.84252 4.32725 10.5395 4.9818L12.4486 3.07271C11.291 1.99392 9.78799 1.33331 7.98799 1.33331C5.38191 1.33331 3.13341 2.83029 2.03645 5.01211L4.25463 6.73331C4.7819 5.15756 6.25463 3.98786 7.98799 3.98786Z" fill="black"/>
</svg>
