<svg width="16" height="16" viewBox="0 0 16 16" fill="none" xmlns="http://www.w3.org/2000/svg">
<path d="M9.9004 4.33331C9.9004 3.28397 9.04937 2.43292 8.00001 2.43292C6.95067 2.43292 6.09962 3.28397 6.09962 4.33331C6.09962 5.38266 6.95067 6.2337 8.00001 6.2337C9.04937 6.2337 9.9004 5.38266 9.9004 4.33331ZM11.0996 4.33331C11.0996 6.04539 9.71212 7.43292 8.00001 7.43292C6.28793 7.43292 4.9004 6.0454 4.9004 4.33331C4.9004 2.62123 6.28793 1.2337 8.00001 1.2337C9.71212 1.2337 11.0996 2.62123 11.0996 4.33331Z" fill="black"/>
<path d="M12.9089 10.2428C13.1432 10.0085 13.5232 10.0085 13.7575 10.2428C13.9916 10.4771 13.9916 10.8562 13.7575 11.0905L12.8483 11.9997L13.7575 12.9088C13.9918 13.1431 13.9918 13.5232 13.7575 13.7575C13.5232 13.9918 13.1432 13.9918 12.9089 13.7575L11.9997 12.8483L11.0905 13.7575C10.8562 13.9916 10.4771 13.9916 10.2429 13.7575C10.0085 13.5232 10.0085 13.1431 10.2429 12.9088L11.1511 11.9997L10.2429 11.0905C10.0085 10.8562 10.0085 10.4771 10.2429 10.2428C10.4772 10.0085 10.8562 10.0085 11.0905 10.2428L11.9997 11.151L12.9089 10.2428Z" fill="black"/>
<path d="M8.00099 8.2337C8.38422 8.23371 8.75548 8.26786 9.11232 8.33527C9.43782 8.39678 9.65218 8.71094 9.59084 9.03644C9.52934 9.36197 9.21519 9.57631 8.88966 9.51495C8.60782 9.46171 8.3111 9.43293 8.00099 9.43292L7.9131 9.4339C7.76241 9.43651 7.61447 9.44741 7.46974 9.4632C7.4006 9.47073 7.33222 9.47915 7.26466 9.48956C7.22829 9.49517 7.19222 9.50168 7.15627 9.50812C7.07631 9.52242 6.99757 9.5387 6.91994 9.55695C5.46758 9.89838 4.38722 10.925 3.88478 12.2835C3.83027 12.4311 3.86025 12.5635 3.95607 12.678C4.0605 12.8026 4.24471 12.8997 4.46486 12.8997H8.16701C8.49838 12.8997 8.76759 13.1689 8.76759 13.5003C8.76742 13.8315 8.49827 14.0999 8.16701 14.0999H4.46486C3.89938 14.0999 3.37558 13.8531 3.03713 13.4495C2.69048 13.0361 2.54213 12.4563 2.75978 11.8675C3.38132 10.1869 4.72268 8.88904 6.50978 8.42218C6.51212 8.42154 6.51427 8.41986 6.51662 8.41925C6.52173 8.41792 6.52712 8.41764 6.53224 8.41632C6.63313 8.39041 6.73523 8.36654 6.83888 8.34601C6.84602 8.34459 6.85322 8.34349 6.86037 8.3421C6.95656 8.32343 7.05388 8.30719 7.15236 8.29327C7.16925 8.29088 7.18619 8.28869 7.20314 8.28644C7.29881 8.27377 7.39545 8.26327 7.49318 8.25519C7.52337 8.25269 7.55364 8.25041 7.584 8.24835C7.68551 8.2415 7.78801 8.23648 7.89162 8.23468L8.00099 8.2337Z" fill="black"/>
</svg>
