<svg width="16" height="16" viewBox="0 0 16 16" fill="none" xmlns="http://www.w3.org/2000/svg">
<path d="M12.2337 3.83301C12.2335 3.42825 11.9051 3.09979 11.5003 3.09961H4.50031C4.0954 3.09961 3.76708 3.42815 3.76691 3.83301V12.9004H12.2337V3.83301ZM6.83331 9.90039C7.16468 9.90039 7.43292 10.1686 7.43292 10.5C7.43292 10.8314 7.16468 11.0996 6.83331 11.0996H5.83331C5.50194 11.0996 5.2337 10.8314 5.2337 10.5C5.2337 10.1686 5.50194 9.90039 5.83331 9.90039H6.83331ZM10.1663 9.90039C10.4977 9.90039 10.7669 10.1686 10.7669 10.5C10.7669 10.8314 10.4977 11.0996 10.1663 11.0996H9.16632C8.8351 11.0994 8.56671 10.8313 8.56671 10.5C8.56671 10.1687 8.8351 9.90057 9.16632 9.90039H10.1663ZM6.83331 7.2334C7.16458 7.2334 7.43275 7.50179 7.43292 7.83301C7.43292 8.16438 7.16468 8.43359 6.83331 8.43359H5.83331C5.50194 8.43359 5.2337 8.16438 5.2337 7.83301C5.23388 7.50179 5.50205 7.2334 5.83331 7.2334H6.83331ZM10.1663 7.2334C10.4976 7.2334 10.7667 7.50179 10.7669 7.83301C10.7669 8.16438 10.4977 8.43359 10.1663 8.43359H9.16632C8.8351 8.43342 8.56671 8.16427 8.56671 7.83301C8.56689 7.5019 8.83521 7.23357 9.16632 7.2334H10.1663ZM6.83331 4.56641C7.16468 4.56641 7.43292 4.83562 7.43292 5.16699C7.43275 5.49821 7.16458 5.7666 6.83331 5.7666H5.83331C5.50205 5.7666 5.23388 5.49821 5.2337 5.16699C5.2337 4.83562 5.50194 4.56641 5.83331 4.56641H6.83331ZM10.1663 4.56641C10.4977 4.56641 10.7669 4.83562 10.7669 5.16699C10.7667 5.49821 10.4976 5.7666 10.1663 5.7666H9.16632C8.83521 5.76643 8.56689 5.49811 8.56671 5.16699C8.56671 4.83573 8.8351 4.56658 9.16632 4.56641H10.1663ZM13.4329 12.9004H14.1663C14.4977 12.9004 14.7669 13.1686 14.7669 13.5C14.7669 13.8314 14.4977 14.0996 14.1663 14.0996H1.83331C1.50194 14.0996 1.2337 13.8314 1.2337 13.5C1.2337 13.1686 1.50194 12.9004 1.83331 12.9004H2.56671V3.83301C2.56689 2.76541 3.43266 1.90039 4.50031 1.90039H11.5003C12.5678 1.90057 13.4327 2.76552 13.4329 3.83301V12.9004Z" fill="black"/>
</svg>
