<svg width="16" height="16" viewBox="0 0 16 16" fill="none" xmlns="http://www.w3.org/2000/svg">
<path d="M5.56674 8.00037C5.56674 6.49623 4.96954 5.13258 3.99936 4.13025C3.02955 5.13252 2.43295 6.49655 2.43295 8.00037C2.43304 9.50396 3.02972 10.8673 3.99936 11.8695C4.96937 10.8673 5.56666 9.50428 5.56674 8.00037ZM6.76694 8.00037C6.76685 9.79632 6.06519 11.4282 4.92416 12.639C5.8055 13.2247 6.86239 13.5668 8.00034 13.5668C9.13776 13.5667 10.1935 13.2243 11.0746 12.639C9.93388 11.4283 9.23382 9.796 9.23373 8.00037C9.23373 6.20425 9.93342 4.57067 11.0746 3.35974C10.1936 2.77473 9.1375 2.43305 8.00034 2.43298C6.86265 2.43298 5.80538 2.7743 4.92416 3.35974C6.06564 4.57073 6.76694 6.20393 6.76694 8.00037ZM10.433 8.00037C10.433 9.50396 11.0297 10.8673 11.9994 11.8695C12.9694 10.8673 13.5667 9.50429 13.5667 8.00037C13.5667 6.49622 12.9695 5.13258 11.9994 4.13025C11.0295 5.13252 10.433 6.49655 10.433 8.00037ZM14.7669 8.00037C14.7668 10.0626 13.8428 11.9096 12.389 13.1498C11.2078 14.1574 9.67452 14.7669 8.00034 14.767C6.32595 14.767 4.79201 14.1575 3.61069 13.1498C2.15697 11.9096 1.23383 10.0626 1.23373 8.00037C1.23373 5.93794 2.15685 4.09018 3.61069 2.84998C4.792 1.84228 6.32599 1.23376 8.00034 1.23376C9.67445 1.23384 11.2078 1.84243 12.389 2.84998C13.8429 4.09019 14.7669 5.93794 14.7669 8.00037Z" fill="black"/>
</svg>
