<svg width="16" height="16" viewBox="0 0 16 16" fill="none" xmlns="http://www.w3.org/2000/svg">
<path d="M3.91635 8.00037C3.91618 8.78253 3.28247 9.41621 2.50034 9.41638C1.76683 9.41638 1.16271 8.85929 1.09018 8.1449L1.08334 8.00037L1.09018 7.85486C1.16286 7.14062 1.76694 6.58337 2.50034 6.58337L2.64487 6.59021C3.35924 6.66274 3.91635 7.26683 3.91635 8.00037ZM9.41635 8.00037C9.41618 8.78252 8.78249 9.41621 8.00034 9.41638C7.26681 9.41638 6.66271 8.85929 6.59018 8.1449L6.58334 8.00037L6.59018 7.85486C6.66286 7.14062 7.26692 6.58337 8.00034 6.58337L8.14487 6.59021C8.85926 6.66274 9.41635 7.26684 9.41635 8.00037ZM14.9164 8.00037C14.9162 8.78252 14.2825 9.41621 13.5003 9.41638C12.7668 9.41638 12.1627 8.85929 12.0902 8.1449L12.0833 8.00037L12.0902 7.85486C12.1629 7.14062 12.7669 6.58337 13.5003 6.58337L13.6449 6.59021C14.3593 6.66274 14.9164 7.26684 14.9164 8.00037Z" fill="black"/>
</svg>
