<svg width="16" height="16" viewBox="0 0 16 16" fill="none" xmlns="http://www.w3.org/2000/svg">
<path d="M9.90037 4.33331C9.90037 3.28397 9.04934 2.43292 7.99998 2.43292C6.95064 2.43292 6.09959 3.28397 6.09959 4.33331C6.09959 5.38266 6.95064 6.2337 7.99998 6.2337C9.04934 6.2337 9.90037 5.38266 9.90037 4.33331ZM11.0996 4.33331C11.0996 6.04539 9.71209 7.43292 7.99998 7.43292C6.2879 7.43292 4.90037 6.0454 4.90037 4.33331C4.90037 2.62123 6.2879 1.2337 7.99998 1.2337C9.71209 1.2337 11.0996 2.62123 11.0996 4.33331Z" fill="black"/>
<path d="M8.00096 8.2337C8.26024 8.23371 8.51407 8.24933 8.7617 8.28058C8.94766 8.30405 9.12924 8.33993 9.3076 8.38019C9.36698 8.39359 9.42682 8.40403 9.48533 8.41925C9.4887 8.42013 9.49176 8.42223 9.4951 8.42316C9.74991 8.48993 9.99654 8.57243 10.2334 8.67218C10.5388 8.80082 10.6823 9.15293 10.5537 9.45831C10.425 9.76366 10.0729 9.90726 9.76756 9.77863C9.49934 9.66564 9.21353 9.57752 8.91111 9.51886C8.81303 9.49983 8.71287 9.48382 8.61131 9.47101C8.41443 9.44617 8.21082 9.43293 8.00096 9.43292L7.91307 9.4339C7.7624 9.43651 7.61441 9.44741 7.46971 9.4632C7.40057 9.47073 7.33219 9.47915 7.26463 9.48956C7.22825 9.49517 7.19219 9.50168 7.15623 9.50812C7.07628 9.52242 6.99754 9.5387 6.9199 9.55695C5.46753 9.89837 4.38719 10.925 3.88475 12.2835C3.83022 12.4312 3.86075 12.5633 3.95701 12.678C4.06154 12.8026 4.24487 12.8996 4.46483 12.8997H7.66697C7.99834 12.8997 8.26756 13.1689 8.26756 13.5003C8.26738 13.8315 7.99824 14.0999 7.66697 14.0999H4.46483C3.89952 14.0998 3.37558 13.8529 3.03709 13.4495C2.69041 13.0362 2.54205 12.4564 2.75975 11.8675C3.38129 10.1869 4.72264 8.88903 6.50975 8.42218C6.51207 8.42155 6.51425 8.41986 6.51658 8.41925C6.5217 8.41792 6.52709 8.41764 6.53221 8.41632C6.63309 8.39041 6.73519 8.36654 6.83885 8.34601C6.84599 8.34459 6.85319 8.34349 6.86033 8.3421C6.95652 8.32343 7.05384 8.30719 7.15233 8.29327C7.16922 8.29088 7.18615 8.28869 7.20311 8.28644C7.29877 8.27377 7.39542 8.26327 7.49315 8.25519C7.52334 8.25269 7.5536 8.25041 7.58397 8.24835C7.68547 8.2415 7.78798 8.23648 7.89158 8.23468L8.00096 8.2337Z" fill="black"/>
<path d="M12.9857 9.52472C13.1561 9.24057 13.5247 9.14817 13.8089 9.31866C14.0929 9.48912 14.1852 9.85783 14.015 10.1419L11.8148 13.8089C11.7274 13.9545 11.582 14.0565 11.4153 14.0892C11.2487 14.1218 11.0756 14.0817 10.9398 13.9798L9.47296 12.8802C9.20812 12.6815 9.15446 12.3054 9.35284 12.0403C9.55167 11.7752 9.92857 11.7214 10.1937 11.9202L11.1273 12.6204L12.9857 9.52472Z" fill="black"/>
</svg>
