<svg width="16" height="16" viewBox="0 0 16 16" fill="none" xmlns="http://www.w3.org/2000/svg">
<path d="M0.567047 7.41174C0.567047 6.74039 0.915191 6.11713 1.48697 5.76526L2.74869 4.98889C2.84642 4.92874 2.92877 4.84639 2.98892 4.74866L3.76529 3.48694C4.11715 2.91516 4.7404 2.56702 5.41177 2.56702H8.64224C9.27037 2.56702 9.86008 2.87212 10.2223 3.38538L11.5124 5.2135C11.6219 5.36862 11.7878 5.4757 11.9743 5.51135L13.862 5.87073C14.7737 6.0445 15.4333 6.84192 15.4333 7.77014V10.1666C15.4333 11.2344 14.5674 12.1002 13.4997 12.1002H13.3971C13.0412 12.8858 12.2522 13.4331 11.3336 13.4332C10.4151 13.4332 9.6262 12.8858 9.27017 12.1002H6.73013C6.37413 12.8858 5.5853 13.4332 4.66666 13.4332C3.74802 13.4332 2.95918 12.8858 2.60318 12.1002H2.49966C1.43207 12.1 0.567047 11.2343 0.567047 10.1666V7.41174ZM4.66666 10.1002C4.07755 10.1002 3.60025 10.5775 3.60025 11.1666C3.60025 11.7557 4.07755 12.233 4.66666 12.233C5.25576 12.233 5.73306 11.7557 5.73306 11.1666C5.73306 10.5775 5.25576 10.1002 4.66666 10.1002ZM11.3336 10.1002C10.7445 10.1002 10.2663 10.5775 10.2663 11.1666C10.2663 11.7557 10.7445 12.233 11.3336 12.233C11.9226 12.2329 12.4001 11.7556 12.4001 11.1666C12.4001 10.5776 11.9226 10.1004 11.3336 10.1002ZM1.76627 10.1666C1.76627 10.5438 2.05145 10.8532 2.41763 10.8942C2.55229 9.77087 3.50708 8.90002 4.66666 8.90002C5.82826 8.90002 6.78464 9.77388 6.91666 10.9H9.08365C9.21568 9.7739 10.1721 8.90002 11.3336 8.90002C12.4931 8.90019 13.447 9.77101 13.5817 10.8942C13.9482 10.8535 14.2331 10.544 14.2331 10.1666V7.77014C14.2331 7.41809 13.9832 7.11538 13.6374 7.04944L11.7506 6.69006C11.2586 6.59632 10.8218 6.31514 10.5329 5.90588L9.24185 4.07678C9.1045 3.88217 8.88051 3.76624 8.64224 3.76624H5.41177C5.15712 3.76624 4.92024 3.89896 4.78677 4.11584L4.01041 5.37756C3.85185 5.63511 3.63515 5.85182 3.37759 6.01038L2.11588 6.78674C1.899 6.92021 1.76627 7.15709 1.76627 7.41174V10.1666Z" fill="black"/>
</svg>
