<svg width="16" height="16" viewBox="0 0 16 16" fill="none" xmlns="http://www.w3.org/2000/svg">
<path d="M7.39973 2.5C7.39973 2.16863 7.66895 1.90039 8.00032 1.90039C8.33154 1.90057 8.59993 2.16874 8.59993 2.5V12.0518L11.7425 8.90918C11.9768 8.67487 12.3568 8.67487 12.5911 8.90918C12.8253 9.14351 12.8254 9.52355 12.5911 9.75781L8.42415 13.9238C8.3117 14.0363 8.15933 14.0995 8.00032 14.0996C7.84119 14.0996 7.68804 14.0363 7.57552 13.9238L3.4095 9.75781C3.17519 9.5235 3.17519 9.14349 3.4095 8.90918C3.64377 8.67508 4.02288 8.67508 4.25716 8.90918L7.39973 12.0518V2.5Z" fill="black"/>
</svg>
