<svg width="16" height="16" viewBox="0 0 16 16" fill="none" xmlns="http://www.w3.org/2000/svg">
<path d="M12.9004 3.83301C12.9002 3.42825 12.5718 3.09978 12.167 3.09961H3.83301C3.42826 3.09979 3.09979 3.42826 3.09961 3.83301V9.38477L3.96582 8.51855C4.7208 7.76362 5.94518 7.76367 6.7002 8.51855L11.082 12.9004H12.167C12.5718 12.9002 12.9002 12.5718 12.9004 12.167V3.83301ZM10.4004 6.33301C10.4002 5.92825 10.0718 5.59978 9.66699 5.59961C9.26208 5.59961 8.93377 5.92814 8.93359 6.33301C8.93359 6.73804 9.26196 7.06641 9.66699 7.06641C10.0719 7.06623 10.4004 6.73793 10.4004 6.33301ZM3.09961 12.167C3.09978 12.5718 3.42825 12.9002 3.83301 12.9004H9.38574L5.85156 9.36719C5.56517 9.08093 5.1008 9.08086 4.81445 9.36719L3.09961 11.082V12.167ZM11.5996 6.33301C11.5996 7.40067 10.7346 8.26643 9.66699 8.2666C8.59922 8.2666 7.7334 7.40078 7.7334 6.33301C7.73357 5.26541 8.59932 4.40039 9.66699 4.40039C10.7345 4.40057 11.5994 5.26552 11.5996 6.33301ZM14.0996 12.167C14.0994 13.2345 13.2345 14.0994 12.167 14.0996H3.83301C2.76552 14.0994 1.90057 13.2345 1.90039 12.167V3.83301C1.90057 2.76552 2.76552 1.90057 3.83301 1.90039H12.167C13.2345 1.90057 14.0994 2.76552 14.0996 3.83301V12.167Z" fill="black"/>
</svg>
