<svg width="16" height="16" viewBox="0 0 16 16" fill="none" xmlns="http://www.w3.org/2000/svg">
<path d="M6.83334 12.2331C7.16471 12.2331 7.43295 12.5023 7.43295 12.8337C7.43278 13.1649 7.16461 13.4333 6.83334 13.4333H1.83334C1.50208 13.4333 1.23391 13.1649 1.23373 12.8337C1.23373 12.5023 1.50197 12.2331 1.83334 12.2331H6.83334ZM14.1664 12.2331C14.4977 12.2331 14.7669 12.5023 14.7669 12.8337C14.7668 13.1649 14.4976 13.4333 14.1664 13.4333H9.83334C9.50208 13.4333 9.23391 13.1649 9.23373 12.8337C9.23373 12.5023 9.50197 12.2331 9.83334 12.2331H14.1664ZM5.50034 7.40009C5.83145 7.40026 6.09977 7.66858 6.09995 7.99969C6.09995 8.33096 5.83156 8.6001 5.50034 8.60028H1.83334C1.50197 8.60028 1.23373 8.33107 1.23373 7.99969C1.23391 7.66847 1.50208 7.40009 1.83334 7.40009H5.50034ZM14.1664 7.40009C14.4976 7.40009 14.7668 7.66847 14.7669 7.99969C14.7669 8.33107 14.4977 8.60028 14.1664 8.60028H8.50034C8.16896 8.60028 7.89975 8.33107 7.89975 7.99969C7.89993 7.66847 8.16907 7.40009 8.50034 7.40009H14.1664ZM8.80014 2.56708C9.13145 2.56715 9.39975 2.83536 9.39975 3.16669C9.39975 3.49801 9.13145 3.76623 8.80014 3.7663H1.83334C1.50197 3.7663 1.23373 3.49806 1.23373 3.16669C1.23373 2.83532 1.50197 2.56708 1.83334 2.56708H8.80014ZM14.1664 2.56708C14.4977 2.56708 14.7669 2.83532 14.7669 3.16669C14.7669 3.49806 14.4977 3.7663 14.1664 3.7663H11.8333C11.502 3.7663 11.2337 3.49806 11.2337 3.16669C11.2337 2.83532 11.502 2.56708 11.8333 2.56708H14.1664Z" fill="black"/>
</svg>
