<svg width="16" height="16" viewBox="0 0 16 16" fill="none" xmlns="http://www.w3.org/2000/svg">
<path d="M13.5667 8.00031C13.5667 6.67874 13.1057 5.46595 12.3363 4.51105L4.51108 12.3362C5.46598 13.1057 6.67877 13.5667 8.00034 13.5667C11.0744 13.5665 13.5666 11.0744 13.5667 8.00031ZM2.43295 8.00031C2.43303 9.32107 2.89374 10.533 3.66245 11.4876L11.4876 3.66241C10.533 2.89371 9.3211 2.433 8.00034 2.43292C4.92595 2.43292 2.43295 4.92592 2.43295 8.00031ZM14.7669 8.00031C14.7668 11.7372 11.7372 14.7667 8.00034 14.7669C6.13194 14.7669 4.43906 14.0084 3.21518 12.7845C1.99147 11.5607 1.23382 9.86848 1.23373 8.00031C1.23373 4.26318 4.26321 1.2337 8.00034 1.2337C9.86852 1.23379 11.5607 1.99144 12.7845 3.21515C14.0085 4.43903 14.7669 6.13191 14.7669 8.00031Z" fill="black"/>
</svg>
