<svg width="16" height="16" viewBox="0 0 16 16" fill="none" xmlns="http://www.w3.org/2000/svg">
<path d="M5.07617 10.2426C5.31045 10.0085 5.68955 10.0085 5.92383 10.2426L7.92383 12.2426C8.15814 12.4769 8.15814 12.8569 7.92383 13.0912L5.92383 15.0912C5.6896 15.3251 5.3104 15.3251 5.07617 15.0912C4.84186 14.8569 4.84186 14.4769 5.07617 14.2426L6.05176 13.267H2.5C2.16863 13.267 1.90039 12.9978 1.90039 12.6664C1.90057 12.3352 2.16874 12.0668 2.5 12.0668H6.05176L5.07617 11.0912C4.84186 10.8569 4.84186 10.4769 5.07617 10.2426ZM2.56641 8.66638V3.16638C2.56658 2.09878 3.43236 1.23376 4.5 1.23376H7.94727C8.45982 1.23376 8.95191 1.43688 9.31445 1.79919L12.8672 5.35193C13.2297 5.7145 13.4336 6.20642 13.4336 6.71912V12.8334C13.4336 13.9011 12.5678 14.767 11.5 14.767H9.83301C9.50179 14.7668 9.2334 14.4976 9.2334 14.1664C9.23357 13.8353 9.5019 13.5669 9.83301 13.5668H11.5C11.905 13.5668 12.2334 13.2384 12.2334 12.8334V6.76697H9.5C8.61637 6.76697 7.90039 6.05005 7.90039 5.16638V2.43298H4.5C4.0951 2.43298 3.76678 2.76152 3.7666 3.16638V8.66638C3.7666 8.99764 3.49821 9.26679 3.16699 9.26697C2.83562 9.26697 2.56641 8.99775 2.56641 8.66638ZM9.09961 5.16638C9.09961 5.38729 9.2791 5.56677 9.5 5.56677H11.3848L9.09961 3.28162V5.16638Z" fill="black"/>
</svg>
