<svg width="16" height="16" viewBox="0 0 16 16" fill="none" xmlns="http://www.w3.org/2000/svg">
<path fill-rule="evenodd" clip-rule="evenodd" d="M6.66666 7.83331C6.66666 6.82078 7.48746 5.99998 8.49999 5.99998H12.8333C13.8459 5.99998 14.6667 6.82078 14.6667 7.83331V12.1666C14.6667 13.1792 13.8459 14 12.8333 14H8.49999C7.48746 14 6.66666 13.1792 6.66666 12.1666V7.83331ZM9.70712 13H12.8333C13.2295 13 13.5612 12.7234 13.6458 12.3528L12.5893 11.2963C12.2638 10.9709 11.7362 10.9709 11.4107 11.2963L9.70712 13ZM13.6667 10.9595L13.2963 10.5892C12.5804 9.87324 11.4196 9.87324 10.7037 10.5892L8.31379 12.9791C7.94319 12.8945 7.66666 12.5628 7.66666 12.1666V7.83331C7.66666 7.37304 8.03972 6.99998 8.49999 6.99998H12.8333C13.2936 6.99998 13.6667 7.37304 13.6667 7.83331V10.9595Z" fill="black"/>
<path d="M10.3333 8.83331C10.3333 9.29358 9.96026 9.66665 9.49999 9.66665C9.03972 9.66665 8.66666 9.29358 8.66666 8.83331C8.66666 8.37304 9.03972 7.99998 9.49999 7.99998C9.96026 7.99998 10.3333 8.37304 10.3333 8.83331Z" fill="black"/>
<path fill-rule="evenodd" clip-rule="evenodd" d="M1.83332 2.99998C1.74128 2.99998 1.66666 3.0746 1.66666 3.16664C1.66666 3.44278 1.4428 3.66664 1.16666 3.66664C0.890516 3.66664 0.666656 3.44278 0.666656 3.16664C0.666656 2.52231 1.18899 1.99998 1.83332 1.99998H6.16666C6.81099 1.99998 7.33332 2.52231 7.33332 3.16664C7.33332 3.44278 7.10946 3.66664 6.83332 3.66664C6.55718 3.66664 6.33332 3.44278 6.33332 3.16664C6.33332 3.0746 6.2587 2.99998 6.16666 2.99998H4.49999V8.33331H4.83332C5.10946 8.33331 5.33332 8.55718 5.33332 8.83331C5.33332 9.10944 5.10946 9.33331 4.83332 9.33331H3.16666C2.89052 9.33331 2.66666 9.10944 2.66666 8.83331C2.66666 8.55718 2.89052 8.33331 3.16666 8.33331H3.49999V2.99998H1.83332Z" fill="black"/>
<path d="M13.8368 1.43844C13.7667 1.29827 13.5667 1.29827 13.4966 1.43844L13.0611 2.30938C13.0427 2.34618 13.0129 2.37602 12.9761 2.39443L12.1051 2.8299C11.9649 2.89998 11.9649 3.10001 12.1051 3.1701L12.9761 3.60557C13.0129 3.62397 13.0427 3.65381 13.0611 3.69062L13.4966 4.56156C13.5667 4.70173 13.7667 4.70173 13.8368 4.56156L14.2723 3.69062C14.2907 3.65381 14.3205 3.62397 14.3573 3.60557L15.2283 3.1701C15.3684 3.10001 15.3684 2.89998 15.2283 2.8299L14.3573 2.39443C14.3205 2.37602 14.2907 2.34618 14.2723 2.30938L13.8368 1.43844Z" fill="black"/>
<path d="M10.1763 2.77561C10.1037 2.63032 9.89632 2.63032 9.82366 2.77561L9.50372 3.41554C9.48466 3.45369 9.45372 3.48462 9.41552 3.5037L8.77566 3.82366C8.63032 3.89631 8.63032 4.10364 8.77566 4.17629L9.41552 4.49626C9.45372 4.51533 9.48466 4.54626 9.50372 4.58441L9.82366 5.22435C9.89632 5.36963 10.1037 5.36963 10.1763 5.22435L10.4963 4.58441C10.5153 4.54626 10.5463 4.51533 10.5845 4.49626L11.2243 4.17629C11.3697 4.10364 11.3697 3.89631 11.2243 3.82366L10.5845 3.5037C10.5463 3.48462 10.5153 3.45369 10.4963 3.41554L10.1763 2.77561Z" fill="black"/>
<path d="M3.17008 10.7718C3.1 10.6316 2.89998 10.6316 2.8299 10.7718L2.39443 11.6427C2.37602 11.6795 2.34618 11.7094 2.30938 11.7278L1.43845 12.1632C1.29828 12.2333 1.29828 12.4333 1.43845 12.5034L2.30938 12.9388C2.34618 12.9572 2.37602 12.9871 2.39443 13.0239L2.8299 13.8948C2.89998 14.035 3.1 14.035 3.17009 13.8948L3.60555 13.0239C3.62396 12.9871 3.6538 12.9572 3.6906 12.9388L4.56153 12.5034C4.7017 12.4333 4.7017 12.2333 4.56153 12.1632L3.6906 11.7278C3.6538 11.7094 3.62396 11.6795 3.60555 11.6427L3.17008 10.7718Z" fill="black"/>
</svg>
