<svg width="16" height="16" viewBox="0 0 16 16" fill="none" xmlns="http://www.w3.org/2000/svg">
<path d="M13.5667 5.83301C13.5666 5.42814 13.2383 5.09961 12.8333 5.09961H3.16635C2.7616 5.09979 2.43313 5.42826 2.43295 5.83301V11.5C2.43295 11.9049 2.76149 12.2332 3.16635 12.2334H12.8333C13.2384 12.2334 13.5667 11.905 13.5667 11.5V5.83301ZM12.8333 1.90039C13.1647 1.90039 13.433 2.16863 13.433 2.5C13.433 2.83137 13.1647 3.09961 12.8333 3.09961H3.16635C2.83513 3.09943 2.56674 2.83126 2.56674 2.5C2.56674 2.16874 2.83513 1.90057 3.16635 1.90039H12.8333ZM14.7669 11.5C14.7669 12.5678 13.9011 13.4336 12.8333 13.4336H3.16635C2.09876 13.4334 1.23373 12.5677 1.23373 11.5V5.83301C1.23391 4.76552 2.09886 3.90057 3.16635 3.90039H12.8333C13.901 3.90039 14.7668 4.76541 14.7669 5.83301V11.5Z" fill="black"/>
</svg>
