<svg width="16" height="16" viewBox="0 0 16 16" fill="none" xmlns="http://www.w3.org/2000/svg">
<path d="M12.9004 3.83301C12.9002 3.42825 12.5718 3.09978 12.167 3.09961H3.83301C3.42826 3.09979 3.09979 3.42826 3.09961 3.83301V4.78125C3.09966 4.97564 3.17701 5.16233 3.31445 5.2998L6.53418 8.51855C6.8966 8.88111 7.09961 9.37311 7.09961 9.88574V13.377L8.90039 12.877V9.88574C8.90039 9.37312 9.10338 8.88112 9.46582 8.51855L12.6855 5.2998C12.823 5.16234 12.9003 4.97565 12.9004 4.78125V3.83301ZM14.0996 4.78125C14.0996 5.29389 13.8967 5.78591 13.5342 6.14844L10.3145 9.36719C10.1771 9.50471 10.0996 9.69139 10.0996 9.88574V13.333C10.0996 13.6025 9.91985 13.839 9.66016 13.9111L6.66016 14.7451C6.47964 14.7951 6.28586 14.7579 6.13672 14.6445C5.98756 14.5311 5.90049 14.3544 5.90039 14.167V9.88574C5.90039 9.6914 5.82294 9.50472 5.68555 9.36719L2.46582 6.14844C2.10333 5.78592 1.90044 5.2939 1.90039 4.78125V3.83301C1.90057 2.76552 2.76552 1.90057 3.83301 1.90039H12.167C13.2345 1.90057 14.0994 2.76552 14.0996 3.83301V4.78125Z" fill="black"/>
</svg>
