<svg width="16" height="16" viewBox="0 0 16 16" fill="none" xmlns="http://www.w3.org/2000/svg">
<path d="M4.74252 7.58722C4.9828 5.8778 6.42578 4.52575 8.1019 4.76105C8.76218 4.85385 9.31804 5.17518 9.73666 5.63312L9.75424 5.51593C9.80187 5.188 10.107 4.96049 10.4349 5.00812C10.7626 5.05586 10.9892 5.36004 10.9417 5.68781L10.5892 8.11945C10.4602 9.02983 11.1196 9.86334 12.0355 9.94659C12.5806 9.99609 12.9259 9.7913 13.1624 9.46613C13.4216 9.10984 13.5667 8.57529 13.5667 8.00031C13.5667 4.92603 11.0745 2.4331 8.00034 2.43292C4.92595 2.43292 2.43295 4.92592 2.43295 8.00031C2.43313 11.0745 4.92606 13.5667 8.00034 13.5667C9.07602 13.5666 10.0787 13.262 10.929 12.7347C11.2106 12.5601 11.5805 12.6466 11.7552 12.928C11.9299 13.2096 11.8434 13.5795 11.5619 13.7542C10.527 14.396 9.30601 14.7668 8.00034 14.7669C4.26332 14.7669 1.23391 11.7373 1.23373 8.00031C1.23373 4.26318 4.26321 1.2337 8.00034 1.2337C11.7373 1.23388 14.7669 4.26329 14.7669 8.00031C14.7669 8.74491 14.5843 9.55194 14.1331 10.1722C13.6594 10.8235 12.9115 11.2303 11.9271 11.1409C11.0852 11.0644 10.3697 10.6234 9.91147 9.99249C9.28618 10.8552 8.29094 11.3852 7.19272 11.2308C5.51658 10.995 4.50228 9.29665 4.74252 7.58722ZM7.93491 5.94855C7.05912 5.82581 6.10068 6.5472 5.931 7.75421C5.76135 8.9613 6.48392 9.91899 7.35971 10.0423C8.23561 10.1654 9.19489 9.44394 9.36459 8.23663C9.53417 7.02943 8.81074 6.07164 7.93491 5.94855Z" fill="black"/>
</svg>
