<svg width="16" height="16" viewBox="0 0 16 16" fill="none" xmlns="http://www.w3.org/2000/svg">
<path d="M2.56705 12.8333V3.16632C2.56722 2.09883 3.43217 1.23388 4.49966 1.2337H7.94791C8.46055 1.23375 8.95257 1.43665 9.31509 1.79913L12.8669 5.35187C13.2295 5.71445 13.4333 6.20632 13.4333 6.71906V12.8333C13.4333 13.9011 12.5674 14.7669 11.4997 14.7669H4.49966C3.43207 14.7667 2.56705 13.901 2.56705 12.8333ZM9.10025 4.83331C9.10025 5.23833 9.42863 5.56671 9.83365 5.56671H11.3844L9.10025 3.28156V4.83331ZM3.76627 12.8333C3.76627 13.2382 4.0948 13.5665 4.49966 13.5667H11.4997C11.9047 13.5667 12.2331 13.2383 12.2331 12.8333V6.76691H9.83365C8.76587 6.76691 7.90006 5.90106 7.90005 4.83331V2.43292H4.49966C4.09491 2.4331 3.76644 2.76157 3.76627 3.16632V12.8333Z" fill="black"/>
</svg>
