<svg width="16" height="16" viewBox="0 0 16 16" fill="none" xmlns="http://www.w3.org/2000/svg">
<path d="M9.74121 3.43164C9.9169 3.15085 10.2874 3.06564 10.5684 3.24121C10.8492 3.41691 10.9344 3.78745 10.7588 4.06836L5.44629 12.5684C5.34945 12.7231 5.18722 12.8249 5.00586 12.8457C4.82419 12.8664 4.64297 12.8031 4.51367 12.6738L1.32617 9.48633C1.09186 9.25202 1.09186 8.87299 1.32617 8.63868C1.56049 8.40436 1.93951 8.40436 2.17383 8.63868L4.82715 11.292L9.74121 3.43164ZM13.7412 3.43164C13.9169 3.15085 14.2874 3.06564 14.5684 3.24121C14.8492 3.41691 14.9344 3.78745 14.7588 4.06836L9.44629 12.5684C9.2706 12.8492 8.90006 12.9344 8.61914 12.7588C8.33835 12.5831 8.25314 12.2126 8.42871 11.9316L13.7412 3.43164Z" fill="black"/>
</svg>
