<svg width="16" height="16" viewBox="0 0 16 16" fill="none" xmlns="http://www.w3.org/2000/svg">
<path d="M7.39973 13.5V3.94824L4.25716 7.09082C4.02288 7.32492 3.64377 7.32492 3.4095 7.09082C3.17519 6.85651 3.17519 6.4765 3.4095 6.24219L7.57552 2.07617C7.68804 1.96365 7.84119 1.90039 8.00032 1.90039C8.15933 1.90048 8.3117 1.96373 8.42415 2.07617L12.5911 6.24219C12.8254 6.47645 12.8253 6.85649 12.5911 7.09082C12.3568 7.32513 11.9768 7.32513 11.7425 7.09082L8.59993 3.94824V13.5C8.59993 13.8313 8.33154 14.0994 8.00032 14.0996C7.66895 14.0996 7.39973 13.8314 7.39973 13.5Z" fill="black"/>
</svg>
