<svg width="16" height="16" viewBox="0 0 16 16" fill="none" xmlns="http://www.w3.org/2000/svg">
<path d="M4.66744 4.66665C4.66744 2.8257 6.15982 1.33331 8.00076 1.33331C9.84169 1.33331 11.3341 2.8257 11.3341 4.66665V7.66665C11.3341 9.50758 9.84169 11 8.00076 11C6.15982 11 4.66744 9.50758 4.66744 7.66665V4.66665Z" fill="black"/>
<path d="M3.87492 9.46645C3.76437 9.21338 3.46961 9.09785 3.21656 9.20845C2.96352 9.31898 2.84802 9.61378 2.95858 9.86678C3.74346 11.6632 5.46113 12.9604 7.50069 13.1442V14.1666C7.50069 14.4428 7.72456 14.6666 8.00069 14.6666C8.27682 14.6666 8.50069 14.4428 8.50069 14.1666V13.1442C10.5403 12.9604 12.258 11.6632 13.0428 9.86678C13.1534 9.61378 13.0379 9.31898 12.7848 9.20845C12.5318 9.09785 12.237 9.21338 12.1265 9.46645C11.4316 11.0568 9.84522 12.1666 8.00069 12.1666C6.1562 12.1666 4.56978 11.0568 3.87492 9.46645Z" fill="black"/>
</svg>
