<svg width="16" height="16" viewBox="0 0 16 16" fill="none" xmlns="http://www.w3.org/2000/svg">
<path d="M1.71712 7.99934L6.89974 12.7933V10.6663C6.89988 10.1445 7.3292 9.73023 7.84212 9.73469L8.80013 9.75618C10.9234 9.83732 12.2662 10.1345 13.1956 10.6829C13.4961 10.8602 13.7463 11.0614 13.9622 11.2786C13.7981 9.75065 13.4321 8.67031 12.8099 7.91633C11.9463 6.86979 10.465 6.31083 7.8265 6.26887C7.3275 6.26092 6.89976 5.85754 6.89974 5.33332V3.20539L1.71712 7.99934ZM8.09994 13.0228C8.09994 13.9823 6.95762 14.4818 6.25326 13.8304L0.822593 8.80793C0.352229 8.37251 0.352142 7.62807 0.822593 7.1927L6.25326 2.16926L6.38998 2.06086C7.09588 1.58234 8.09993 2.07732 8.09994 2.97688V5.07649C10.7168 5.15155 12.569 5.73891 13.7357 7.15266C14.9144 8.58114 15.2669 10.7108 15.2669 13.5003C15.2668 13.7784 15.0747 14.0204 14.804 14.0843C14.5334 14.1479 14.2546 14.0166 14.1302 13.7679C13.6265 12.7604 13.3246 12.1524 12.5853 11.7161C11.8413 11.2774 10.5816 10.9813 8.09994 10.9407V13.0228Z" fill="black"/>
</svg>
