<svg width="16" height="16" viewBox="0 0 16 16" fill="none" xmlns="http://www.w3.org/2000/svg">
<path d="M13.5667 8.00031C13.5667 6.0306 11.97 4.4331 10.0003 4.43292C8.03048 4.43292 6.43292 6.03049 6.43292 8.00031C6.4331 9.96998 8.03058 11.5667 10.0003 11.5667C11.9699 11.5665 13.5665 9.96988 13.5667 8.00031ZM4.16632 10.8997C4.49769 10.8997 4.76691 11.1689 4.76691 11.5003C4.76673 11.8315 4.49758 12.0999 4.16632 12.0999H1.83331C1.50205 12.0999 1.23388 11.8315 1.2337 11.5003C1.2337 11.1689 1.50194 10.8997 1.83331 10.8997H4.16632ZM3.50031 7.39972C3.83153 7.39989 4.09991 7.66904 4.09991 8.00031C4.09974 8.33142 3.83142 8.59974 3.50031 8.59991H1.83331C1.50205 8.59991 1.23388 8.33153 1.2337 8.00031C1.2337 7.66893 1.50194 7.39972 1.83331 7.39972H3.50031ZM4.16632 3.89972C4.49769 3.89972 4.76691 4.16893 4.76691 4.50031C4.76673 4.83153 4.49758 5.09991 4.16632 5.09991H1.83331C1.50205 5.09991 1.23388 4.83153 1.2337 4.50031C1.2337 4.16893 1.50194 3.89972 1.83331 3.89972H4.16632ZM14.7669 8.00031C14.7668 9.10009 14.3926 10.1118 13.7669 10.9183L15.2571 12.4095C15.4915 12.6438 15.4915 13.0228 15.2571 13.2571C15.0228 13.4915 14.6438 13.4915 14.4095 13.2571L12.9183 11.7669C12.1118 12.3926 11.1001 12.7668 10.0003 12.7669C7.36784 12.7669 5.23388 10.6327 5.2337 8.00031C5.2337 5.36775 7.36773 3.2337 10.0003 3.2337C12.6327 3.23388 14.7669 5.36786 14.7669 8.00031Z" fill="black"/>
</svg>
