<svg width="16" height="16" viewBox="0 0 16 16" fill="none" xmlns="http://www.w3.org/2000/svg">
<path d="M7.63606 2.97687C7.63607 2.0774 8.64013 1.58261 9.34602 2.06085L9.48372 2.16925L14.9134 7.19269C15.384 7.6281 15.384 8.3715 14.9134 8.80695L9.48372 13.8304C8.77936 14.4818 7.63606 13.9823 7.63606 13.0228V10.9407C5.15435 10.9813 3.89462 11.2773 3.15071 11.7161C2.41142 12.1523 2.11044 12.7606 1.60677 13.7679C1.48236 14.0167 1.20271 14.1481 0.931961 14.0843C0.661267 14.0204 0.470226 13.7784 0.470047 13.5003C0.470047 10.7106 0.822472 8.58114 2.0013 7.15265C3.16792 5.73904 5.0194 5.15158 7.63606 5.07648V2.97687ZM8.83626 5.33332C8.83624 5.85755 8.40852 6.26093 7.9095 6.26886C5.27117 6.31086 3.78971 6.86982 2.9261 7.91632C2.30398 8.6703 1.9379 9.75074 1.77376 11.2786C1.98966 11.0614 2.23998 10.8602 2.54036 10.6829C3.60253 10.0562 5.20524 9.75781 7.89485 9.73468L7.98958 9.73859C8.45919 9.78237 8.83612 10.1771 8.83626 10.6663V12.7933L14.0189 7.99933L8.83626 3.20539V5.33332Z" fill="black"/>
</svg>
