<svg width="16" height="16" viewBox="0 0 16 16" fill="none" xmlns="http://www.w3.org/2000/svg">
<path d="M1.2337 11.5V3.83301C1.23388 2.76552 2.09883 1.90057 3.16632 1.90039H5.95343C6.59968 1.90051 7.20334 2.22301 7.56183 2.76074L8.10382 3.57324C8.23973 3.7771 8.46815 3.90026 8.7132 3.90039H12.8333C13.901 3.90039 14.7667 4.76541 14.7669 5.83301V11.5C14.7669 12.5678 13.9011 13.4336 12.8333 13.4336H3.16632C2.09873 13.4334 1.2337 12.5677 1.2337 11.5ZM2.43292 11.5C2.43292 11.9049 2.76146 12.2332 3.16632 12.2334H12.8333C13.2383 12.2334 13.5667 11.905 13.5667 11.5V5.83301C13.5665 5.42814 13.2382 5.09961 12.8333 5.09961H8.7132C8.06697 5.09948 7.46329 4.777 7.1048 4.23926L6.56281 3.42676C6.42689 3.22288 6.19848 3.09973 5.95343 3.09961H3.16632C2.76157 3.09979 2.4331 3.42826 2.43292 3.83301V11.5Z" fill="black"/>
</svg>
