<svg width="16" height="16" viewBox="0 0 16 16" fill="none" xmlns="http://www.w3.org/2000/svg">
<path d="M1.23373 12.8337V11.1667C1.23373 10.8353 1.50197 10.5671 1.83334 10.5671C2.16471 10.5671 2.43295 10.8353 2.43295 11.1667V12.8337C2.43278 13.1649 2.16461 13.4333 1.83334 13.4333C1.50208 13.4333 1.23391 13.1649 1.23373 12.8337ZM5.34409 12.8337V8.49969C5.34426 8.16858 5.61258 7.90026 5.9437 7.90009C6.27496 7.90009 6.54411 8.16847 6.54428 8.49969V12.8337C6.54411 13.1649 6.27496 13.4333 5.9437 13.4333C5.61258 13.4331 5.34426 13.1648 5.34409 12.8337ZM9.45444 12.8337V5.83368C9.45444 5.50231 9.72365 5.23309 10.055 5.23309C10.3862 5.23328 10.6546 5.50242 10.6546 5.83368V12.8337C10.6545 13.1648 10.3861 13.4331 10.055 13.4333C9.72376 13.4333 9.45461 13.1649 9.45444 12.8337ZM13.5658 12.8337V3.16669C13.5658 2.83532 13.834 2.56708 14.1654 2.56708C14.4967 2.56709 14.765 2.83533 14.765 3.16669V12.8337C14.7648 13.1649 14.4966 13.4333 14.1654 13.4333C13.8341 13.4333 13.5659 13.1649 13.5658 12.8337Z" fill="black"/>
</svg>
