<svg width="16" height="16" viewBox="0 0 16 16" fill="none" xmlns="http://www.w3.org/2000/svg">
<path d="M6.24219 3.4095C6.4765 3.17519 6.85651 3.17519 7.09082 3.4095C7.32492 3.64377 7.32492 4.02288 7.09082 4.25716L3.94824 7.39973H13.5C13.8314 7.39973 14.0996 7.66895 14.0996 8.00032C14.0994 8.33154 13.8313 8.59993 13.5 8.59993H3.94824L7.09082 11.7425C7.32513 11.9768 7.32513 12.3568 7.09082 12.5911C6.85649 12.8253 6.47645 12.8254 6.24219 12.5911L2.07617 8.42415C1.96373 8.3117 1.90048 8.15933 1.90039 8.00032C1.90039 7.84119 1.96365 7.68804 2.07617 7.57552L6.24219 3.4095Z" fill="black"/>
</svg>
