<svg width="16" height="16" viewBox="0 0 16 16" fill="none" xmlns="http://www.w3.org/2000/svg">
<path d="M11.8262 9.49249C12.3826 8.93621 13.2844 8.9361 13.8408 9.49249C14.3971 10.0489 14.3971 10.9507 13.8408 11.5071L11.1484 14.2005C10.7859 14.563 10.2939 14.7669 9.78123 14.7669H9.16697C8.8356 14.7669 8.56639 14.4977 8.56639 14.1663V13.5521C8.56644 13.0394 8.77025 12.5474 9.13279 12.1849L11.8262 9.49249ZM8.00096 8.2337C8.66049 8.23373 9.28403 8.33673 9.85936 8.53058C10.173 8.63645 10.3417 8.97658 10.2363 9.29034C10.1305 9.60437 9.78959 9.77408 9.47557 9.66827C9.02732 9.51725 8.53402 9.43295 8.00096 9.43292C6.00465 9.43292 4.50471 10.6072 3.88475 12.2835C3.83022 12.4312 3.86075 12.5633 3.95701 12.678C4.06154 12.8026 4.24487 12.8996 4.46483 12.8997H6.83397C7.16534 12.8997 7.43358 13.1689 7.43358 13.5003C7.4334 13.8315 7.16523 14.0999 6.83397 14.0999H4.46483C3.89952 14.0998 3.37558 13.8529 3.03709 13.4495C2.69041 13.0362 2.54205 12.4564 2.75975 11.8675C3.54447 9.74568 5.47576 8.2337 8.00096 8.2337ZM9.90037 4.33331C9.90037 3.28397 9.04932 2.43292 7.99998 2.43292C6.95064 2.43292 6.09959 3.28397 6.09959 4.33331C6.09959 5.38265 6.95064 6.2337 7.99998 6.2337C9.04932 6.2337 9.90037 5.38265 9.90037 4.33331ZM9.76658 13.5667H9.78123C9.97563 13.5667 10.1623 13.4894 10.2998 13.3519L12.9922 10.6595C13.0799 10.5717 13.08 10.429 12.9922 10.3411C12.9044 10.2533 12.7616 10.2533 12.6738 10.3411L9.98143 13.0335C9.84392 13.171 9.76663 13.3577 9.76658 13.5521V13.5667ZM11.0996 4.33331C11.0996 6.04539 9.71206 7.43292 7.99998 7.43292C6.2879 7.43292 4.90037 6.0454 4.90037 4.33331C4.90037 2.62123 6.2879 1.2337 7.99998 1.2337C9.71206 1.2337 11.0996 2.62123 11.0996 4.33331Z" fill="black"/>
</svg>
