<svg width="16" height="16" viewBox="0 0 16 16" fill="none" xmlns="http://www.w3.org/2000/svg">
<path d="M11.6012 8.80597C11.7118 8.49361 12.0545 8.3301 12.3668 8.44073C14.0487 9.03645 15.3541 10.3951 15.8659 12.0062C16.0482 12.5804 15.8812 13.1275 15.5348 13.5101C15.1982 13.8819 14.6962 14.0999 14.1666 14.0999H13.8336C13.5024 14.0999 13.2332 13.8315 13.233 13.5003C13.233 13.1689 13.5023 12.8997 13.8336 12.8997H14.1666C14.3735 12.8997 14.5467 12.8132 14.6452 12.7044C14.7339 12.6064 14.7619 12.4971 14.7213 12.3694C14.3254 11.1233 13.3004 10.0442 11.9664 9.57159C11.6542 9.461 11.4908 9.11823 11.6012 8.80597ZM6.16566 7.89972C8.93419 7.89985 11.3034 9.65621 12.0348 11.9866C12.2151 12.5611 12.0473 13.1076 11.7008 13.4896C11.3638 13.861 10.8612 14.0794 10.3317 14.0794H1.99867C1.46923 14.0794 0.967516 13.8609 0.630508 13.4896C0.283919 13.1076 0.115249 12.5611 0.295547 11.9866C1.02701 9.65608 3.39701 7.89972 6.16566 7.89972ZM6.16566 9.09991C3.88889 9.09991 2.00603 10.5461 1.44106 12.346C1.40086 12.4741 1.42959 12.5842 1.51918 12.6829C1.61835 12.7922 1.79184 12.8792 1.99867 12.8792H10.3317C10.5384 12.8792 10.712 12.7922 10.8112 12.6829C10.9008 12.5842 10.9304 12.4741 10.8903 12.346C10.3254 10.5461 8.44236 9.10005 6.16566 9.09991ZM7.90004 4.16632C7.89986 3.20917 7.12383 2.43292 6.16664 2.43292C5.20945 2.43292 4.43342 3.20917 4.43324 4.16632C4.43324 5.12362 5.20935 5.89972 6.16664 5.89972C7.12394 5.89972 7.90004 5.12362 7.90004 4.16632ZM11.733 4.16632C11.7329 3.20917 10.9568 2.43292 9.99965 2.43292C9.66843 2.43275 9.40004 2.16458 9.40004 1.83331C9.40004 1.50205 9.66843 1.23388 9.99965 1.2337C11.6196 1.2337 12.9331 2.54643 12.9332 4.16632C12.9332 5.78636 11.6197 7.09991 9.99965 7.09991C9.66854 7.09974 9.40022 6.83142 9.40004 6.50031C9.40004 6.16904 9.66843 5.8999 9.99965 5.89972C10.9569 5.89972 11.733 5.12362 11.733 4.16632ZM9.10023 4.16632C9.10023 5.78636 7.78668 7.09991 6.16664 7.09991C4.5466 7.09991 3.23305 5.78636 3.23305 4.16632C3.23322 2.54643 4.54671 1.2337 6.16664 1.2337C7.78657 1.2337 9.10006 2.54643 9.10023 4.16632Z" fill="black"/>
</svg>
