<svg width="16" height="16" viewBox="0 0 16 16" fill="none" xmlns="http://www.w3.org/2000/svg">
<path d="M1.90039 12.1663V3.83333C1.90039 2.76568 2.76541 1.89991 3.83301 1.89973H7.83301C8.16438 1.89973 8.43359 2.16895 8.43359 2.50032C8.43342 2.83154 8.16427 3.09993 7.83301 3.09993H3.83301C3.42815 3.1001 3.09961 3.42843 3.09961 3.83333V12.1663C3.09961 12.5712 3.42814 12.8996 3.83301 12.8997H12.167C12.5719 12.8996 12.9004 12.5713 12.9004 12.1663V8.16633C12.9006 7.83511 13.1687 7.56672 13.5 7.56672C13.8313 7.56672 14.0994 7.83511 14.0996 8.16633V12.1663C14.0996 13.234 13.2346 14.0998 12.167 14.0999H3.83301C2.76541 14.0998 1.90039 13.234 1.90039 12.1663ZM10.0439 2.04329C11.1243 0.963273 12.8757 0.963273 13.9561 2.04329C15.0365 3.12374 15.0365 4.87592 13.9561 5.95637C12.8756 7.0366 11.1244 7.0366 10.0439 5.95637C8.9635 4.87592 8.9635 3.12374 10.0439 2.04329ZM13.1074 2.89192C12.4957 2.28053 11.5043 2.28053 10.8926 2.89192C10.2808 3.50375 10.2808 4.49591 10.8926 5.10774C11.5044 5.71934 12.4956 5.71934 13.1074 5.10774C13.7192 4.49591 13.7192 3.50375 13.1074 2.89192Z" fill="black"/>
</svg>
