<svg width="16" height="16" viewBox="0 0 16 16" fill="none" xmlns="http://www.w3.org/2000/svg">
<path d="M10.9011 6.5C10.9011 6.095 10.5726 5.7666 10.1677 5.7666H3.16766C2.7628 5.76678 2.43427 6.0951 2.43427 6.5V10.833C2.43427 11.2379 2.7628 11.5662 3.16766 11.5664H4.00165C4.33287 11.5666 4.60126 11.8357 4.60126 12.167V12.8125L6.70966 11.6426L6.77899 11.6094C6.84951 11.5812 6.92526 11.5664 7.00165 11.5664H10.1677C10.5726 11.5664 10.9011 11.238 10.9011 10.833V9.50977C10.901 9.50651 10.9001 9.50327 10.9001 9.5C10.9001 9.49641 10.901 9.49284 10.9011 9.48926V6.5ZM12.1013 8.90039H12.8347C13.2395 8.90039 13.5679 8.57185 13.5681 8.16699V3.83301C13.5679 3.42816 13.2395 3.09961 12.8347 3.09961H6.00165C5.59675 3.09961 5.26843 3.42815 5.26825 3.83301V4.56641H10.1677C11.2354 4.56641 12.1013 5.43224 12.1013 6.5V8.90039ZM14.7682 8.16699C14.7681 9.23463 13.9022 10.0996 12.8347 10.0996H12.1013V10.833C12.1013 11.9008 11.2353 12.7666 10.1677 12.7666H7.15692L4.29266 14.3574C4.10682 14.4607 3.88019 14.4584 3.69696 14.3506C3.51374 14.2428 3.40106 14.0456 3.40106 13.833V12.7666H3.16766C2.10007 12.7664 1.23505 11.9007 1.23505 10.833V6.5C1.23505 5.43236 2.10006 4.56658 3.16766 4.56641H4.06805V3.83301C4.06823 2.76541 4.93401 1.90039 6.00165 1.90039H12.8347C13.9022 1.90039 14.7681 2.76539 14.7682 3.83301V8.16699Z" fill="black"/>
</svg>
