<svg width="16" height="16" viewBox="0 0 16 16" fill="none" xmlns="http://www.w3.org/2000/svg">
<path d="M9.23373 8.00031C9.23373 7.31925 8.68135 6.76708 8.00034 6.76691C7.31917 6.76691 6.76694 7.31914 6.76694 8.00031C6.76711 8.68132 7.31928 9.2337 8.00034 9.2337C8.68124 9.23353 9.23356 8.68121 9.23373 8.00031ZM7.39975 3.50031V1.83331C7.39975 1.50194 7.66896 1.2337 8.00034 1.2337C11.7373 1.23388 14.7669 4.26329 14.7669 8.00031C14.7668 11.7372 11.7372 14.7667 8.00034 14.7669C4.26332 14.7669 1.23391 11.7373 1.23373 8.00031C1.23373 6.95326 1.47205 5.95992 1.8978 5.07355C2.04127 4.77509 2.39903 4.64911 2.6976 4.7923C2.9963 4.93577 3.12233 5.29438 2.97885 5.59308C2.62932 6.32079 2.43295 7.13697 2.43295 8.00031C2.43313 11.0745 4.92606 13.5667 8.00034 13.5667C11.0744 13.5665 13.5666 11.0744 13.5667 8.00031C13.5667 5.12865 11.3921 2.76537 8.59995 2.46613V3.50031C8.59977 3.83142 8.33145 4.09974 8.00034 4.09991C7.66907 4.09991 7.39993 3.83153 7.39975 3.50031ZM10.433 8.00031C10.4328 9.34395 9.34398 10.4327 8.00034 10.4329C6.65654 10.4329 5.56692 9.34406 5.56674 8.00031C5.56674 7.54618 5.69294 7.12191 5.90952 6.75812L3.24252 4.09113C3.00821 3.85681 3.00821 3.47681 3.24252 3.24249C3.47684 3.00818 3.85684 3.00818 4.09116 3.24249L6.75815 5.90948C7.12194 5.69291 7.54622 5.56671 8.00034 5.56671C9.34409 5.56689 10.433 6.65651 10.433 8.00031Z" fill="black"/>
</svg>
