<svg width="16" height="16" viewBox="0 0 16 16" fill="none" xmlns="http://www.w3.org/2000/svg">
<path d="M13.5667 8.00031C13.5667 4.92603 11.0745 2.4331 8.00032 2.43292C4.92594 2.43292 2.43294 4.92592 2.43294 8.00031C2.43311 11.0745 4.92605 13.5667 8.00032 13.5667C11.0744 13.5665 13.5666 11.0744 13.5667 8.00031ZM7.39973 5.16632C7.39991 4.8351 7.66906 4.56671 8.00032 4.56671C8.33143 4.56689 8.59975 4.83521 8.59993 5.16632V9.38507L9.74251 8.24249C9.97682 8.00818 10.3568 8.00818 10.5911 8.24249C10.8253 8.47682 10.8254 8.85687 10.5911 9.09113L8.42415 11.2571C8.18983 11.4915 7.80983 11.4915 7.57552 11.2571L5.4095 9.09113C5.17519 8.85681 5.17519 8.47681 5.4095 8.24249C5.64377 8.0084 6.02288 8.0084 6.25716 8.24249L7.39973 9.38507V5.16632ZM14.7669 8.00031C14.7667 11.7372 11.7372 14.7667 8.00032 14.7669C4.2633 14.7669 1.23389 11.7373 1.23372 8.00031C1.23372 4.26318 4.2632 1.2337 8.00032 1.2337C11.7373 1.23388 14.7669 4.26329 14.7669 8.00031Z" fill="black"/>
</svg>
