<svg width="16" height="16" viewBox="0 0 16 16" fill="none" xmlns="http://www.w3.org/2000/svg">
<path d="M9.6575 1.92089C9.97719 2.00808 10.1656 2.3385 10.0784 2.6582L7.0784 13.6582C6.99103 13.9776 6.66162 14.1662 6.34207 14.0791C6.02237 13.9919 5.83398 13.6615 5.92117 13.3418L8.92117 2.34179C9.00845 2.02242 9.33804 1.834 9.6575 1.92089ZM3.39676 4.75585C3.6238 4.51461 4.0031 4.50257 4.24441 4.72949C4.48572 4.95659 4.49691 5.33681 4.2698 5.57812L2.46414 7.49706C2.19838 7.77943 2.19838 8.22055 2.46414 8.50292L4.2698 10.4219C4.49691 10.6632 4.48572 11.0434 4.24441 11.2705C4.0031 11.4974 3.6238 11.4854 3.39676 11.2441L1.59012 9.32519C0.889476 8.58076 0.889476 7.41923 1.59012 6.6748L3.39676 4.75585ZM11.7552 4.72949C11.9965 4.50238 12.3767 4.51455 12.6038 4.75585L14.4104 6.6748C15.111 7.41922 15.111 8.58077 14.4104 9.32519L12.6038 11.2441C12.3767 11.4854 11.9965 11.4976 11.7552 11.2705C11.5139 11.0434 11.5027 10.6632 11.7298 10.4219L13.5364 8.50292C13.8022 8.22055 13.8022 7.77943 13.5364 7.49706L11.7298 5.57812C11.5027 5.33682 11.5139 4.9566 11.7552 4.72949Z" fill="black"/>
</svg>
